
          <svg xmlns="http://www.w3.org/2000/svg" xmlns:cc="http://creativecommons.org/ns#" xmlns:rdf="http://www.w3.org/1999/02/22-rdf-syntax-ns#" version="1.1" width="591.890625" height="74.525390625">
            <defs>
              <style type="text/css">svg {
          background-color: #fff; }
        
        .root text,
        .root tspan {
          font: 12px Arial; }
        
        .root path {
          fill-opacity: 0;
          stroke-width: 2px;
          stroke: #000; }
        
        .root circle {
          fill: #6b6659;
          stroke-width: 2px;
          stroke: #000; }
        
        .anchor text, .any-character text {
          fill: #fff; }
        
        .anchor rect, .any-character rect {
          fill: #6b6659; }
        
        .escape text, .charset-escape text, .literal text {
          fill: #000; }
        
        .escape rect, .charset-escape rect {
          fill: #bada55; }
        
        .literal rect {
          fill: #dae9e5; }
        
        .charset .charset-box {
          fill: #cbcbba; }
        
        .subexp .subexp-label tspan,
        .charset .charset-label tspan,
        .match-fragment .repeat-label tspan {
          font-size: 10px; }
        
        .repeat-label {
          cursor: help; }
        
        .subexp .subexp-label tspan,
        .charset .charset-label tspan {
          dominant-baseline: text-after-edge; }
        
        .subexp .subexp-box {
          stroke: #908c83;
          stroke-dasharray: 6,2;
          stroke-width: 2px;
          fill-opacity: 0; }
        
        .quote {
          fill: #908c83; }
        </style>
            </defs>
            <metadata>
              <rdf:rdf>
                <cc:license rdf:about="http://creativecommons.org/licenses/by/3.0/">
                  <cc:permits rdf:resource="http://creativecommons.org/ns#Reproduction"></cc:permits>
                  <cc:permits rdf:resource="http://creativecommons.org/ns#Distribution"></cc:permits>
                  <cc:requires rdf:resource="http://creativecommons.org/ns#Notice"></cc:requires>
                  <cc:requires rdf:resource="http://creativecommons.org/ns#Attribution"></cc:requires>
                  <cc:permits rdf:resource="http://creativecommons.org/ns#DerivativeWorks"></cc:permits>
                </cc:license>
              </rdf:rdf>
            </metadata>
          <desc>Created with Snap</desc><g transform="matrix(1,0,0,1,15,9.8955)" class="root"><g transform="matrix(1,0,0,1,10,0)" class="regexp match"><path d="M92.8671875,32.8671953125H122.8672M205.7343875,32.8671953125H225.7344M378.812525,32.8671953125H388.8125"></path><g transform="matrix(1,0,0,1,0,0)" class="match-fragment subexp"><rect rx="3" ry="3" class="subexp-box" transform="matrix(1,0,0,1,0,11.1045)" width="102.8671875" height="43.525390625"></rect><text x="0" y="0" transform="matrix(1,0,0,1,0,11.1045)" class="subexp-label"><tspan>group #1</tspan></text><g transform="matrix(1,0,0,1,10,21.1045)" class="regexp match match-fragment any-character"><g class="label"><rect width="82.8671875" height="23.525390625"></rect><text x="0" y="0" transform="matrix(1,0,0,1,5,16.7627)"><tspan>any character</tspan></text></g></g></g><g transform="matrix(1,0,0,1,112.8672,0)" class="match-fragment subexp"><rect rx="3" ry="3" class="subexp-box" transform="matrix(1,0,0,1,0,11.1045)" width="102.8671875" height="43.525390625"></rect><text x="0" y="0" transform="matrix(1,0,0,1,0,11.1045)" class="subexp-label"><tspan>group #2</tspan></text><g transform="matrix(1,0,0,1,10,21.1045)" class="regexp match match-fragment any-character"><g class="label"><rect width="82.8671875" height="23.525390625"></rect><text x="0" y="0" transform="matrix(1,0,0,1,5,16.7627)"><tspan>any character</tspan></text></g></g></g><g transform="matrix(1,0,0,1,225.7344,21.1045)" class="match-fragment escape"><g class="label"><rect width="153.078125" height="23.525390625" rx="3" ry="3"></rect><text x="0" y="0" transform="matrix(1,0,0,1,5,16.7627)"><tspan>Back reference (group = 1)</tspan></text></g></g><g transform="matrix(1,0,0,1,388.8125,21.1045)" class="match-fragment escape"><g class="label"><rect width="153.078125" height="23.525390625" rx="3" ry="3"></rect><text x="0" y="0" transform="matrix(1,0,0,1,5,16.7627)"><tspan>Back reference (group = 2)</tspan></text></g></g></g><path d="M20,32.8671953125H0M551.890625,32.8671953125H561.890625"></path><circle cx="0" cy="32.8671953125" r="5"></circle><circle cx="561.890625" cy="32.8671953125" r="5"></circle></g></svg>
        