<?xml version="1.0" standalone="no"?>
<!DOCTYPE svg PUBLIC "-//W3C//DTD SVG 20010904//EN"
 "http://www.w3.org/TR/2001/REC-SVG-20010904/DTD/svg10.dtd">
<svg version="1.0" xmlns="http://www.w3.org/2000/svg"
 width="1220.000000pt" height="1220.000000pt" viewBox="0 0 1220.000000 1220.000000"
 preserveAspectRatio="xMidYMid meet">
<metadata>
Created by potrace 1.11, written by Peter Selinger 2001-2013
</metadata>
<g transform="translate(0.000000,1220.000000) scale(0.100000,-0.100000)"
fill="#000000" stroke="none">
<path d="M200 11455 l0 -745 40 0 c33 0 40 -3 40 -20 0 -19 1 -19 19 -2 16 15
17 18 3 30 -27 21 4 43 51 35 43 -7 49 -28 10 -38 l-28 -7 25 -13 c22 -12 22
-14 6 -15 -15 0 -17 -3 -8 -12 8 -8 15 -8 26 2 10 8 31 10 58 7 47 -6 90 4 70
17 -7 4 -10 12 -6 17 3 5 10 7 15 3 5 -3 17 0 25 7 13 10 17 10 25 -2 5 -8 9
-20 9 -26 0 -18 7 -16 33 8 21 19 21 21 4 33 -21 16 -23 46 -2 46 15 0 55 19
65 31 3 3 13 8 23 12 17 6 22 29 18 75 -1 16 4 22 19 22 18 0 19 -3 10 -20 -8
-14 -8 -26 0 -40 15 -28 22 -25 14 5 -7 29 3 33 22 8 17 -24 32 -8 16 17 -7
11 -12 22 -12 25 0 3 29 5 65 5 37 0 65 4 65 10 0 12 37 13 44 1 3 -5 -4 -11
-15 -14 -11 -3 -23 -15 -26 -26 -4 -17 -13 -21 -43 -21 -21 0 -43 -7 -50 -15
-9 -10 -9 -15 -1 -15 6 0 11 -5 11 -11 0 -7 -18 -10 -47 -9 -69 4 -70 3 -82
-30 -12 -36 6 -43 27 -10 9 15 23 20 57 20 32 0 51 6 65 20 24 24 82 28 74 5
-5 -11 2 -15 26 -15 24 0 31 4 26 15 -10 27 31 17 63 -16 21 -20 31 -40 31
-60 0 -27 -2 -29 -40 -29 -29 0 -40 -4 -40 -15 0 -10 10 -15 34 -15 19 0 41
-3 50 -6 12 -4 16 0 16 15 0 15 6 21 21 21 17 0 20 -5 17 -25 -3 -14 1 -30 8
-36 10 -8 14 -8 14 0 0 21 71 13 91 -11 19 -23 19 -23 34 -3 8 11 19 25 24 31
7 8 4 14 -10 17 -10 3 -22 1 -25 -4 -3 -5 -17 -9 -31 -9 -19 0 -23 3 -15 13 6
6 12 28 15 47 4 32 5 33 12 12 6 -18 13 -22 29 -18 11 3 25 6 30 6 4 0 6 6 3
14 -4 10 1 12 16 9 53 -12 117 -52 117 -72 0 -8 13 -12 38 -10 20 2 52 0 70
-5 19 -4 54 -5 79 -1 38 5 44 9 40 26 -3 11 2 26 11 35 13 13 13 17 1 26 -10
7 -8 8 9 3 18 -5 22 -2 22 15 0 15 5 20 17 18 28 -5 25 -23 -7 -41 -23 -14
-30 -25 -30 -48 0 -28 15 -40 22 -18 5 16 48 1 48 -17 0 -21 47 -41 62 -26 9
9 5 14 -13 21 -21 9 -19 10 19 10 l42 1 0 39 0 39 30 -14 c37 -19 38 -31 3
-45 -26 -10 -26 -11 -10 -21 15 -8 23 -5 38 11 20 21 26 51 10 51 -5 0 -11 25
-13 55 -3 53 -2 55 22 54 14 0 19 -3 13 -6 -19 -7 -17 -92 2 -99 11 -5 13 -10
5 -19 -7 -8 -6 -23 5 -49 16 -37 35 -41 35 -6 0 10 4 21 9 24 11 7 88 -30 93
-45 3 -8 15 -8 46 0 40 11 58 31 28 31 -16 0 -28 45 -30 117 -1 44 2 53 17 53
25 0 21 27 -5 34 -35 8 -8 27 47 34 34 3 50 1 57 -9 6 -10 7 -6 2 11 -10 33
-8 71 4 79 17 11 21 104 6 140 -15 36 -11 52 8 33 15 -15 82 -16 73 -2 -3 6
-14 10 -25 10 -22 0 -34 28 -19 46 9 11 7 14 -12 14 l-24 0 25 20 25 20 -24
18 c-16 13 -37 18 -70 17 -25 -1 -34 0 -18 2 24 4 27 8 27 44 0 21 1 39 3 39
1 0 27 -7 57 -15 30 -8 56 -15 57 -15 0 0 -4 11 -10 25 -7 14 -26 30 -46 36
l-33 11 28 19 c16 10 34 17 40 15 7 -3 9 5 6 20 -3 19 -12 25 -43 30 -37 6
-57 34 -24 34 11 0 15 11 15 40 0 33 3 40 20 40 17 0 20 -7 20 -39 0 -29 -5
-41 -17 -44 -26 -6 29 -27 72 -27 28 0 33 -4 37 -28 6 -41 0 -52 -29 -52 -36
0 -27 -34 10 -38 28 -3 28 -4 11 -23 -11 -12 -13 -19 -5 -19 9 0 12 -19 9 -70
-2 -49 1 -70 9 -70 16 0 26 17 13 25 -18 11 0 25 31 25 30 0 41 -23 16 -33 -9
-4 -9 -6 0 -6 7 -1 10 -8 7 -16 -5 -11 -2 -13 10 -9 19 7 21 20 4 27 -7 3 2
10 20 17 40 15 41 25 2 39 -39 13 -38 26 3 38 l32 11 -33 7 c-38 9 -42 22 -8
31 15 3 23 11 20 19 -3 7 4 23 17 36 19 19 20 25 9 43 -9 14 -10 21 -1 24 15
5 14 39 -1 45 -7 3 10 6 39 6 l52 1 4 38 c3 23 3 20 2 -11 -2 -51 11 -67 54
-67 28 0 27 14 -1 28 -18 8 -19 11 -5 11 12 1 17 10 17 34 0 17 3 42 6 55 6
20 3 22 -30 22 -33 0 -76 24 -76 42 0 5 14 8 30 8 17 0 40 6 51 13 17 10 23
10 26 0 3 -7 16 -13 29 -13 21 0 24 -4 24 -40 0 -36 -2 -40 -25 -40 -16 0 -25
-6 -25 -15 0 -11 11 -15 40 -15 36 0 40 3 40 25 0 27 18 33 38 13 9 -9 12 -8
12 4 0 9 -11 25 -25 36 -34 27 -32 48 5 56 21 4 30 11 30 25 0 11 -4 23 -10
26 -15 10 -12 81 5 95 12 10 18 8 32 -6 17 -17 17 -17 1 -11 -16 5 -18 0 -17
-36 1 -23 4 -32 6 -19 3 16 11 22 32 22 34 0 44 9 30 27 -15 17 13 18 40 1 11
-6 26 -8 37 -3 18 8 18 8 1 12 -11 3 -27 13 -38 24 -19 19 -19 20 -1 40 18 18
25 19 93 10 78 -10 129 -25 129 -39 0 -4 -5 -13 -12 -20 -9 -9 -9 -12 0 -12
21 0 27 52 8 66 -13 9 -14 13 -4 17 7 3 -7 4 -32 1 l-45 -5 28 16 c15 9 27 20
27 25 0 5 18 13 40 16 37 6 67 24 40 24 -6 0 -8 5 -5 10 3 6 19 10 36 10 19 0
29 5 29 15 0 8 -7 15 -15 15 -10 0 -15 10 -15 30 0 37 14 38 36 5 17 -25 44
-34 44 -14 0 6 -10 19 -22 30 l-23 19 24 20 c22 19 22 20 3 20 -11 0 -25 -7
-32 -15 -7 -8 -16 -15 -21 -15 -5 0 -9 7 -9 15 0 13 -180 15 -1560 15 l-1560
0 0 -745z m2095 684 c12 -18 -3 -22 -20 -5 -14 14 -14 16 -1 16 8 0 18 -5 21
-11z m222 -46 c-3 -10 -5 -4 -5 12 0 17 2 24 5 18 2 -7 2 -21 0 -30z m729 5
c11 6 24 0 24 -12 0 -24 -35 -24 -59 0 -28 29 -18 54 11 27 11 -10 22 -17 24
-15z m-506 -20 c0 -16 -3 -19 -11 -11 -6 6 -8 16 -5 22 11 17 16 13 16 -11z
m382 -36 c-21 -6 -25 4 -11 30 l13 23 6 -25 c4 -17 2 -26 -8 -28z m-626 1
c-11 -11 -19 6 -11 24 8 17 8 17 12 0 3 -10 2 -21 -1 -24z m432 25 c7 -7 12
-16 12 -20 0 -15 -15 -8 -28 12 -13 22 -3 27 16 8z m-491 -20 c-3 -8 -6 -5 -6
6 -1 11 2 17 5 13 3 -3 4 -12 1 -19z m413 -8 c-8 -5 -22 -9 -30 -9 -10 0 -8 3
5 9 27 12 43 12 25 0z m387 -6 c-3 -3 -12 -4 -19 -1 -8 3 -5 6 6 6 11 1 17 -2
13 -5z m-576 -17 c-1 -12 -15 -9 -19 4 -3 6 1 10 8 8 6 -3 11 -8 11 -12z m255
-74 c-2 -3 -9 -2 -15 2 -8 4 -7 13 1 28 l13 22 3 -23 c2 -13 1 -26 -2 -29z
m222 29 c2 -7 -3 -12 -12 -12 -9 0 -16 7 -16 16 0 17 22 14 28 -4z m-958 -2
c0 -5 -5 -10 -11 -10 -5 0 -7 5 -4 10 3 6 8 10 11 10 2 0 4 -4 4 -10z m405 0
c4 -6 -7 -10 -25 -10 -18 0 -29 4 -25 10 3 6 15 10 25 10 10 0 22 -4 25 -10z
m252 -6 c-3 -3 -12 -4 -19 -1 -8 3 -5 6 6 6 11 1 17 -2 13 -5z m-179 -16 c-6
-18 -28 -21 -28 -4 0 9 7 16 16 16 9 0 14 -5 12 -12z m148 -58 c30 -12 34 -18
34 -52 0 -28 4 -38 16 -38 14 0 15 -2 3 -17 -13 -15 -14 -15 -17 0 -4 21 -28
22 -36 2 -7 -19 -30 -19 -72 1 -38 18 -44 34 -14 34 11 0 20 -4 20 -10 0 -5
16 -10 35 -10 34 0 35 1 35 40 0 33 -4 40 -19 40 -22 0 -32 20 -29 58 1 25 2
24 5 -4 3 -24 11 -34 39 -44z m59 30 c0 -7 -6 -15 -12 -17 -8 -3 -13 4 -13 17
0 13 5 20 13 18 6 -3 12 -11 12 -18z m-665 0 c0 -5 -4 -10 -10 -10 -5 0 -10 5
-10 10 0 6 5 10 10 10 6 0 10 -4 10 -10z m489 -16 c-10 -13 -10 -17 2 -26 11
-7 11 -11 2 -15 -7 -2 -13 -18 -13 -34 0 -19 -5 -29 -15 -29 -22 0 -20 70 3
98 9 12 21 22 26 22 5 0 3 -7 -5 -16z m61 -15 c7 -11 9 -23 6 -26 -7 -7 -36
22 -36 36 0 18 19 12 30 -10z m-641 -42 c-9 -7 -18 -17 -20 -23 -3 -8 -12 -9
-26 -3 -33 12 -28 27 10 32 17 2 37 4 42 5 6 1 3 -4 -6 -11z m582 -104 c-9
-15 -10 -12 -10 17 0 29 1 32 10 18 7 -12 7 -24 0 -35z m-444 1 c-3 -3 -12 -4
-19 -1 -8 3 -5 6 6 6 11 1 17 -2 13 -5z m83 -4 c0 -5 -4 -10 -10 -10 -5 0 -10
5 -10 10 0 6 5 10 10 10 6 0 10 -4 10 -10z m-401 -57 c-1 -53 -6 -49 -11 10
-2 20 0 37 4 37 4 0 8 -21 7 -47z m431 -5 c0 -16 -3 -19 -11 -11 -6 6 -8 16
-5 22 11 17 16 13 16 -11z m268 -26 c2 -7 -5 -12 -15 -13 -10 0 -3 -5 15 -10
22 -7 32 -16 32 -29 0 -26 -46 -38 -67 -17 -13 13 -13 20 -2 51 13 35 28 43
37 18z m-778 -2 c0 -5 -4 -10 -10 -10 -5 0 -10 5 -10 10 0 6 5 10 10 10 6 0
10 -4 10 -10z m675 -4 c10 -9 11 -16 3 -24 -15 -15 -49 4 -42 23 8 19 21 19
39 1z m-830 -76 c3 -5 -3 -10 -15 -10 -12 0 -18 5 -15 10 3 6 10 10 15 10 5 0
12 -4 15 -10z m760 0 c3 -5 1 -10 -4 -10 -6 0 -11 5 -11 10 0 6 2 10 4 10 3 0
8 -4 11 -10z m-330 -10 c-3 -5 -12 -10 -18 -10 -7 0 -6 4 3 10 19 12 23 12 15
0z m408 -51 c5 -4 7 -12 3 -18 -4 -6 -14 -3 -28 11 -16 16 -18 22 -7 29 9 5
16 4 18 -4 2 -7 8 -15 14 -18z m-433 -13 c0 -8 3 -16 8 -19 4 -2 1 -2 -6 0 -8
1 -20 3 -28 3 -8 0 -14 7 -14 15 0 8 9 15 20 15 11 0 20 -6 20 -14z m-48 -48
c-9 -9 -15 -9 -24 0 -9 9 -7 12 12 12 19 0 21 -3 12 -12z m1 -45 c-7 -2 -19
-2 -25 0 -7 3 -2 5 12 5 14 0 19 -2 13 -5z m62 -3 c-3 -5 -12 -10 -18 -10 -7
0 -6 4 3 10 19 12 23 12 15 0z m-35 -71 c0 -5 -7 -9 -15 -9 -9 0 -12 6 -9 15
6 15 24 11 24 -6z m52 -56 c3 -36 0 -43 -14 -43 -15 0 -15 4 -6 30 5 17 8 40
5 52 -3 11 -2 17 3 12 4 -5 10 -28 12 -51z m371 40 c-7 -2 -19 -2 -25 0 -7 3
-2 5 12 5 14 0 19 -2 13 -5z m-608 -23 c3 -5 1 -10 -4 -10 -6 0 -11 5 -11 10
0 6 2 10 4 10 3 0 8 -4 11 -10z m-635 -20 c0 -5 -4 -10 -10 -10 -5 0 -10 5
-10 10 0 6 5 10 10 10 6 0 10 -4 10 -10z m787 -22 c-3 -8 -6 -5 -6 6 -1 11 2
17 5 13 3 -3 4 -12 1 -19z m216 -5 c-13 -2 -33 -2 -45 0 -13 2 -3 4 22 4 25 0
35 -2 23 -4z m-193 -28 c0 -8 -6 -15 -14 -15 -17 0 -28 14 -19 24 12 12 33 6
33 -9z m105 -25 c-5 -8 -11 -8 -17 -2 -6 6 -7 16 -3 22 5 8 11 8 17 2 6 -6 7
-16 3 -22z m55 10 c0 -4 -7 -10 -15 -14 -10 -4 -15 1 -15 14 0 13 5 18 15 14
8 -4 15 -10 15 -14z m-390 -40 c7 0 11 -3 7 -6 -3 -3 -20 -3 -37 1 -26 6 -29
9 -19 22 12 13 14 13 25 -1 6 -9 17 -16 24 -16z m100 10 c0 -5 -9 -10 -21 -10
-11 0 -17 5 -14 10 3 6 13 10 21 10 8 0 14 -4 14 -10z m147 -8 c6 -4 13 -21
15 -37 1 -17 8 -30 13 -31 6 0 18 -4 29 -9 11 -5 26 -4 37 4 16 9 19 8 19 -9
0 -16 -7 -20 -36 -20 -27 0 -43 7 -64 31 -18 18 -27 36 -23 46 3 8 0 19 -8 24
-8 5 -9 9 -4 9 6 0 15 -4 22 -8z m53 -1 c0 -6 -4 -13 -10 -16 -5 -3 -10 1 -10
9 0 9 5 16 10 16 6 0 10 -4 10 -9z m60 -11 c0 -5 -2 -10 -4 -10 -3 0 -8 5 -11
10 -3 6 -1 10 4 10 6 0 11 -4 11 -10z m-240 -35 c0 -33 -2 -35 -31 -35 l-32 0
27 25 c14 13 26 29 26 35 0 5 2 10 5 10 3 0 5 -16 5 -35z m-160 10 c0 -11 -11
-15 -40 -15 -29 0 -40 4 -40 15 0 11 11 15 40 15 29 0 40 -4 40 -15z m376 4
c10 -17 -13 -36 -27 -22 -12 12 -4 33 11 33 5 0 12 -5 16 -11z m-616 -9 c0 -5
-7 -10 -15 -10 -8 0 -15 5 -15 10 0 6 7 10 15 10 8 0 15 -4 15 -10z m290 0 c0
-5 -9 -10 -20 -10 -11 0 -20 5 -20 10 0 6 9 10 20 10 11 0 20 -4 20 -10z m-7
-37 c-7 -2 -19 -2 -25 0 -7 3 -2 5 12 5 14 0 19 -2 13 -5z m180 -60 c-13 -2
-33 -2 -45 0 -13 2 -3 4 22 4 25 0 35 -2 23 -4z m-121 -32 c-12 -7 -62 -4 -62
5 0 2 17 4 38 4 23 0 32 -3 24 -9z m302 -43 c-8 -28 -12 -33 -20 -25 -9 8 6
47 17 47 6 0 7 -10 3 -22z m-164 -8 c0 -5 8 -10 18 -11 15 0 15 -1 -2 -8 -36
-14 -79 3 -59 22 10 11 43 8 43 -3z m-920 -10 c0 -5 -4 -10 -10 -10 -5 0 -10
5 -10 10 0 6 5 10 10 10 6 0 10 -4 10 -10z m846 -42 c-12 -8 -31 7 -31 25 -1
23 19 25 30 4 8 -15 8 -24 1 -29z m142 22 c-7 -11 -16 -16 -21 -11 -12 12 0
31 19 31 12 0 12 -3 2 -20z m-1418 0 c0 -5 -4 -10 -10 -10 -5 0 -10 5 -10 10
0 6 5 10 10 10 6 0 10 -4 10 -10z m310 0 c0 -5 -2 -10 -4 -10 -3 0 -8 5 -11
10 -3 6 -1 10 4 10 6 0 11 -4 11 -10z m340 1 c0 -6 15 -11 33 -13 26 -3 29 -6
14 -12 -11 -5 -28 -4 -43 4 -24 14 -32 30 -14 30 6 0 10 -4 10 -9z m-130 -16
c8 -9 21 -13 36 -9 34 9 30 -9 -7 -25 -27 -12 -33 -11 -52 5 -12 10 -24 20
-26 21 -1 1 0 6 4 12 9 16 30 14 45 -4z m-580 -15 c0 -5 -4 -10 -10 -10 -5 0
-10 5 -10 10 0 6 5 10 10 10 6 0 10 -4 10 -10z m1268 -33 c10 -3 7 -5 -9 -6
-24 -1 -26 2 -20 27 5 24 6 25 9 5 2 -12 11 -24 20 -26z m-486 1 c-18 -18 -14
-38 8 -38 25 0 26 -18 3 -27 -10 -4 -21 -11 -25 -17 -9 -14 -10 40 -2 83 5 23
10 29 17 22 8 -8 7 -15 -1 -23z m408 -3 c0 -8 -4 -17 -10 -20 -6 -4 -10 5 -10
20 0 15 4 24 10 20 6 -3 10 -12 10 -20z m279 -4 c-15 -5 -22 6 -14 19 6 9 10
9 16 -1 5 -8 4 -15 -2 -18z m-1411 7 c-2 -6 -10 -14 -16 -16 -7 -2 -10 2 -6
12 7 18 28 22 22 4z m422 2 c0 -5 -7 -10 -15 -10 -8 0 -15 5 -15 10 0 6 7 10
15 10 8 0 15 -4 15 -10z m462 -18 c-7 -2 -12 -11 -12 -19 0 -10 -6 -13 -16 -9
-9 3 -18 6 -21 6 -4 0 2 9 11 19 11 12 24 17 34 13 10 -3 12 -7 4 -10z m78
-35 c0 -17 -1 -17 -16 -2 -9 9 -13 23 -9 32 5 15 7 15 15 3 6 -8 10 -23 10
-33z m-1050 -2 c-17 -20 -50 -19 -50 1 0 12 6 15 25 10 16 -4 25 -2 25 5 0 7
3 9 6 6 4 -4 1 -13 -6 -22z m616 -6 c12 -13 15 -22 7 -27 -6 -4 -12 -16 -14
-27 -7 -34 -33 -23 -42 19 -7 29 -6 40 4 47 20 12 24 11 45 -12z m599 -19 c3
-5 1 -10 -4 -10 -6 0 -11 5 -11 10 0 6 2 10 4 10 3 0 8 -4 11 -10z m-171 -9
c4 -5 -3 -7 -14 -4 -23 6 -26 13 -6 13 8 0 17 -4 20 -9z m-1164 -5 c0 -11 -19
-15 -25 -6 -3 5 1 10 9 10 9 0 16 -2 16 -4z m3 -63 c-4 -9 -13 -13 -27 -9 -11
3 -27 6 -33 6 -26 0 -12 29 15 32 33 4 53 -8 45 -29z m1657 2 c0 -9 -9 -15
-21 -15 -18 0 -19 2 -9 15 7 8 16 15 21 15 5 0 9 -7 9 -15z"/>
<path d="M3423 12189 c11 -7 23 -7 35 0 14 9 11 10 -18 10 -29 0 -32 -1 -17
-10z"/>
<path d="M3568 12193 c7 -3 16 -2 19 1 4 3 -2 6 -13 5 -11 0 -14 -3 -6 -6z"/>
<path d="M4196 12185 c4 -8 10 -12 15 -9 14 8 10 24 -6 24 -9 0 -12 -6 -9 -15z"/>
<path d="M6617 12183 c-9 -10 -35 -36 -57 -59 -22 -22 -40 -46 -40 -52 0 -5
-13 -16 -29 -23 -17 -8 -36 -24 -43 -38 -7 -13 -49 -62 -93 -107 -71 -73 -138
-145 -219 -236 -14 -16 -29 -28 -33 -28 -4 0 -16 -14 -25 -30 -9 -17 -29 -35
-43 -42 -14 -6 -25 -19 -25 -28 0 -9 -10 -22 -22 -30 -13 -7 -45 -38 -73 -70
-27 -32 -60 -62 -73 -69 -12 -6 -32 -27 -43 -46 -12 -19 -25 -35 -30 -35 -9 0
-67 -60 -139 -145 -24 -27 -68 -71 -99 -98 -73 -62 -72 -61 -101 -97 -14 -18
-36 -44 -50 -59 -14 -15 -47 -50 -73 -79 -26 -29 -54 -52 -62 -52 -8 0 -15 -8
-15 -19 0 -10 -14 -29 -30 -42 -17 -13 -40 -39 -51 -58 -11 -18 -22 -31 -25
-28 -7 7 -44 -29 -44 -43 0 -5 -9 -14 -21 -21 -12 -6 -60 -52 -108 -102 -96
-102 -270 -274 -280 -279 -3 -2 -21 -22 -39 -45 -19 -24 -40 -43 -47 -43 -7 0
-19 -10 -28 -22 -8 -13 -78 -88 -155 -167 -163 -167 -202 -209 -202 -222 0 -5
-4 -9 -8 -9 -9 0 -122 -107 -122 -115 0 -9 -71 -75 -81 -75 -5 0 -19 -16 -31
-35 -13 -19 -26 -35 -30 -35 -9 0 -188 -181 -188 -190 0 -4 -18 -21 -40 -39
-22 -17 -40 -38 -40 -44 0 -7 -33 -44 -72 -83 -40 -38 -82 -82 -93 -97 -11
-15 -35 -37 -53 -47 -18 -11 -36 -28 -39 -37 -8 -20 -173 -183 -185 -183 -4 0
-8 -5 -8 -12 0 -6 -26 -37 -57 -68 -75 -73 -210 -216 -214 -227 -2 -4 -25 -25
-51 -46 -27 -21 -48 -44 -48 -52 0 -7 -14 -26 -32 -42 -58 -52 -203 -203 -265
-275 -18 -21 -36 -38 -41 -38 -5 0 -15 -13 -22 -29 -7 -18 -24 -34 -42 -40
-24 -9 -28 -14 -23 -32 6 -17 4 -21 -8 -16 -15 6 -128 -104 -140 -137 -4 -10
-11 -15 -16 -12 -5 4 -20 -8 -32 -26 -13 -18 -31 -39 -41 -46 -36 -26 -108
-100 -108 -111 0 -6 -6 -11 -12 -11 -16 0 -148 -141 -148 -157 0 -7 -8 -13
-19 -13 -10 0 -39 -26 -67 -59 -27 -33 -54 -60 -60 -60 -5 -1 -20 -15 -33 -32
-18 -24 -20 -33 -11 -45 13 -14 8 -18 -22 -15 -10 1 -18 -3 -18 -9 0 -6 -11
-15 -24 -21 -24 -11 -25 -34 -3 -42 7 -2 4 -3 -5 -2 -9 2 -25 -3 -35 -11 -10
-7 -26 -14 -35 -14 -9 0 -25 -13 -35 -30 -9 -16 -22 -30 -27 -30 -5 0 -36 -28
-68 -61 -45 -48 -57 -66 -53 -83 5 -15 4 -17 -3 -7 -14 20 -29 7 -52 -46 -24
-54 -26 -89 -5 -97 8 -3 15 -10 15 -16 0 -18 -40 -11 -78 15 -21 14 -38 21
-40 15 -6 -16 18 -40 39 -40 15 0 19 -8 19 -40 0 -25 -5 -40 -12 -41 -7 0 -1
-5 15 -11 36 -13 34 -24 -5 -33 l-33 -7 29 -10 c21 -8 30 -7 36 2 4 7 13 9 19
6 16 -10 14 -26 -4 -26 -11 0 -15 -11 -15 -40 0 -29 4 -40 15 -40 11 0 15 -11
15 -40 0 -29 -4 -40 -15 -40 -8 0 -15 5 -15 10 0 11 -33 14 -42 4 -8 -7 21
-64 33 -64 5 0 9 -6 9 -14 0 -8 8 -17 18 -19 16 -4 16 -5 0 -6 -11 -1 -18 -9
-18 -21 0 -17 -7 -20 -40 -20 -29 0 -40 -4 -40 -15 0 -8 7 -15 16 -15 13 0 15
-6 9 -27 -9 -38 -25 -53 -25 -25 0 12 -4 22 -10 22 -5 0 -10 7 -10 15 0 8 -7
15 -15 15 -8 0 -15 -7 -15 -15 0 -9 7 -18 15 -21 8 -4 15 -14 15 -24 0 -10 7
-20 15 -24 8 -3 15 -15 15 -26 0 -17 -6 -20 -45 -20 -33 0 -45 -4 -45 -15 0
-11 11 -15 40 -15 22 0 40 -4 40 -9 0 -5 16 -15 36 -21 l36 -12 -28 -19 c-35
-23 -44 -24 -44 -4 0 11 -11 15 -40 15 -37 0 -40 -2 -40 -27 0 -16 7 -37 15
-47 23 -30 18 -36 -25 -36 -46 0 -50 -10 -15 -38 14 -11 25 -25 25 -31 0 -6 5
-11 11 -11 5 0 7 -5 3 -11 -5 -8 -8 -8 -14 0 -5 9 -14 9 -34 1 l-28 -10 24
-20 c20 -17 21 -21 8 -30 -12 -9 -10 -10 9 -5 16 5 21 4 17 -4 -12 -19 6 -12
31 11 l23 22 21 -21 c14 -14 17 -23 10 -27 -6 -4 -11 -2 -11 3 0 6 -7 11 -15
11 -20 0 -19 -6 6 -31 19 -19 22 -19 44 -5 14 9 32 16 42 16 15 0 14 -4 -7
-20 -27 -21 -26 -23 40 -24 25 -1 45 -5 45 -11 2 -33 27 -53 75 -59 27 -4 50
-11 50 -16 0 -5 8 -11 18 -13 9 -3 39 -10 65 -17 31 -8 46 -17 43 -25 -3 -8 2
-11 13 -8 10 2 25 -3 34 -11 8 -9 22 -16 31 -16 8 0 19 -6 23 -13 9 -15 104
-57 128 -57 9 0 13 -4 10 -10 -3 -5 1 -10 9 -10 8 0 21 -6 28 -13 24 -24 122
-64 188 -77 36 -7 74 -18 85 -25 16 -9 78 -33 105 -40 3 -1 12 -4 20 -7 8 -3
42 -13 75 -23 79 -22 140 -51 194 -92 24 -18 48 -33 52 -33 5 0 37 -18 71 -40
35 -22 69 -40 77 -40 8 0 22 -6 30 -14 9 -8 66 -33 126 -57 106 -41 186 -83
193 -100 2 -5 10 -9 18 -9 8 0 14 -4 14 -10 0 -5 -7 -10 -16 -10 -20 0 -116
31 -130 42 -6 4 -51 22 -100 39 -71 24 -112 31 -199 35 l-110 6 -55 -34 c-54
-33 -92 -80 -77 -95 5 -4 12 -1 16 6 5 7 13 11 19 7 6 -3 14 -2 17 4 4 6 25
10 48 9 63 -2 76 -7 70 -28 -3 -13 2 -21 16 -26 12 -3 21 -12 21 -19 0 -14 42
-26 86 -26 17 0 28 -8 34 -25 5 -14 17 -25 25 -25 14 0 95 -75 95 -88 0 -2 12
-13 26 -24 14 -11 23 -26 20 -34 -7 -18 14 -30 24 -14 6 10 25 11 72 7 53 -6
67 -11 85 -34 22 -26 23 -27 23 -6 0 16 5 20 20 16 20 -5 23 -30 3 -26 -5 1
-7 -14 -5 -33 4 -34 15 -43 27 -24 14 22 35 10 35 -21 0 -16 -3 -28 -7 -26 -5
3 -9 -9 -10 -26 -2 -30 -2 -30 13 -9 8 12 20 20 25 17 15 -10 10 -40 -10 -66
-10 -13 -27 -51 -39 -84 -11 -33 -24 -69 -28 -80 -7 -19 -7 -19 9 -3 9 9 17
20 17 25 0 4 15 25 33 46 19 20 42 53 53 72 10 19 24 35 30 35 6 0 17 7 24 15
16 19 64 19 79 1 7 -8 9 -25 6 -39 -5 -19 -2 -27 13 -31 25 -8 34 -43 26 -97
-5 -30 -13 -43 -30 -50 -25 -9 -31 -28 -15 -45 16 -17 20 -103 5 -115 -16 -13
-17 -19 -5 -38 8 -12 12 -12 25 -2 28 23 17 1 -11 -24 -27 -23 -28 -23 -9 -44
11 -12 15 -21 9 -21 -6 0 -8 -11 -5 -25 2 -14 8 -25 13 -25 5 0 10 -8 10 -17
1 -10 4 -5 8 11 l6 29 38 -35 c42 -40 50 -84 18 -96 -14 -5 -17 -12 -10 -29 8
-23 29 -32 29 -13 0 6 18 10 40 10 22 0 40 5 40 10 0 6 11 23 25 38 20 22 25
37 25 80 0 34 5 59 15 68 17 18 17 19 15 -66 -1 -45 -6 -68 -16 -73 -18 -11
-18 -27 1 -27 18 0 20 -27 3 -33 -10 -3 -11 -13 -2 -44 12 -45 0 -88 -17 -62
-7 11 -9 10 -9 -3 0 -10 5 -18 12 -18 6 0 9 -2 6 -5 -3 -3 -12 -3 -21 1 -11 4
-14 14 -10 39 4 25 0 38 -16 54 -25 25 -91 30 -91 6 0 -11 -11 -15 -38 -15
-41 0 -74 -32 -53 -53 8 -8 11 -6 11 6 0 24 15 21 38 -8 11 -14 26 -25 33 -25
9 -1 8 -4 -3 -11 -22 -12 -24 -48 -3 -55 8 -4 15 -14 14 -23 0 -10 -2 -11 -6
-3 -6 15 -33 16 -33 0 0 -6 -3 -8 -7 -4 -4 4 -8 15 -8 23 0 26 -22 26 -29 1
-8 -31 -7 -81 2 -93 4 -6 23 -23 41 -39 31 -25 35 -33 34 -74 -1 -39 0 -42 6
-17 l7 30 13 -24 c10 -18 10 -25 1 -31 -16 -10 -8 -45 10 -45 9 0 17 14 21 38
8 48 29 73 29 34 0 -15 5 -27 11 -27 7 0 23 -12 36 -27 20 -21 27 -23 33 -12
8 11 10 11 14 -1 9 -30 13 -120 5 -120 -5 0 -9 6 -9 13 0 18 -45 41 -60 32 -8
-5 -10 -21 -6 -44 3 -20 6 -58 6 -86 0 -70 9 -81 49 -61 29 15 32 15 38 1 3
-9 1 -21 -6 -28 -6 -6 -11 -24 -11 -39 0 -21 5 -28 19 -28 11 0 23 5 26 10 10
17 22 11 28 -13 2 -12 8 -31 12 -41 7 -16 5 -18 -8 -13 -9 4 -24 10 -32 13
-11 4 -15 0 -15 -15 0 -15 -6 -21 -21 -21 -21 0 -21 1 -2 46 2 6 -3 18 -11 27
-9 9 -16 22 -16 30 0 8 -9 22 -19 31 -18 16 -22 17 -42 2 -34 -24 -61 -4 -57
41 2 29 -1 37 -19 44 -29 11 -30 -7 -3 -56 11 -20 20 -50 20 -68 0 -18 4 -37
9 -43 5 -5 11 -22 13 -39 3 -26 0 -30 -22 -30 -18 0 -25 -6 -26 -20 -1 -11 -2
-28 -3 -37 -1 -12 -6 -15 -18 -11 -15 6 -16 4 -5 -9 8 -10 10 -26 6 -42 -6
-26 8 -37 21 -15 11 17 30 4 30 -22 0 -20 5 -24 32 -24 37 0 68 -32 51 -52
-12 -15 -38 -17 -38 -4 0 5 6 12 13 14 9 4 9 8 -2 15 -21 15 -43 -8 -24 -26
18 -18 17 -72 -1 -72 -9 0 -12 -7 -9 -20 3 -11 8 -18 12 -16 4 3 13 1 20 -3
11 -7 11 -16 1 -47 -8 -22 -15 -33 -17 -26 -3 6 -9 10 -14 6 -12 -7 -12 -71 0
-76 5 -1 13 -16 17 -33 7 -29 7 -29 -40 15 -34 32 -45 48 -40 63 5 17 2 18
-23 13 -22 -5 -39 0 -73 23 -51 34 -63 37 -79 17 -9 -11 -6 -21 15 -45 21 -26
25 -39 21 -67 -9 -56 9 -84 54 -84 30 0 42 -6 55 -25 9 -14 20 -23 24 -20 4 3
13 -2 20 -10 7 -8 18 -15 26 -15 7 0 15 -8 19 -19 3 -10 17 -31 31 -47 22 -23
29 -26 45 -16 16 10 19 9 19 -7 0 -11 -6 -21 -12 -24 -8 -2 8 -25 39 -58 29
-30 53 -62 53 -72 0 -13 5 -17 19 -12 16 5 20 -1 26 -33 6 -35 11 -40 61 -62
30 -13 54 -30 54 -36 0 -7 18 -15 40 -19 22 -4 40 -11 40 -16 0 -5 11 -9 24
-9 16 0 27 -7 31 -19 3 -11 21 -29 40 -40 19 -11 35 -25 35 -31 0 -5 7 -10 15
-10 18 0 20 16 3 23 -7 3 1 4 17 2 18 -1 30 -8 30 -16 0 -8 -6 -13 -14 -11
-17 3 -36 -20 -62 -76 -12 -25 -31 -47 -45 -52 -13 -5 -24 -15 -24 -21 0 -7
-8 -29 -17 -50 -12 -27 -26 -42 -48 -49 -17 -6 -38 -18 -47 -28 -37 -37 -54
-49 -81 -56 -15 -4 -32 -17 -37 -29 -13 -30 -35 -57 -48 -57 -16 0 -24 -33
-10 -42 40 -27 140 -67 183 -74 28 -4 59 -13 70 -20 27 -18 131 -29 140 -15 3
6 14 11 23 11 14 0 13 -2 -3 -13 -17 -13 -17 -14 4 -20 15 -4 21 -1 21 12 0
22 46 46 56 29 4 -7 12 -1 21 16 9 17 22 26 38 26 13 0 36 6 51 12 22 10 28
10 32 0 2 -6 8 -12 14 -12 6 0 7 7 4 16 -8 20 22 56 38 47 6 -4 5 0 -2 9 -10
13 -10 17 3 22 30 11 70 -5 88 -36 18 -31 23 -98 8 -98 -5 0 -7 -10 -4 -21 4
-14 0 -25 -11 -31 -9 -5 -16 -18 -16 -30 0 -16 5 -19 25 -16 14 3 25 1 25 -4
0 -11 148 -9 222 4 29 5 62 10 73 12 11 2 38 8 60 13 43 12 80 11 108 -2 26
-11 35 4 13 21 -14 10 -16 14 -5 14 24 0 38 -15 36 -39 -1 -19 -6 -22 -29 -17
-15 3 -28 2 -28 -2 0 -4 -16 -15 -35 -24 -19 -8 -35 -11 -35 -6 0 5 -10 2 -22
-6 -12 -9 -32 -16 -45 -16 -12 0 -25 -4 -28 -10 -3 -5 -19 -10 -35 -10 -27 0
-28 -2 -23 -34 5 -30 3 -35 -18 -38 -29 -4 -39 -38 -12 -38 11 0 24 -5 30 -11
6 -6 29 -10 52 -7 32 3 41 0 44 -14 8 -28 37 -21 48 12 6 17 16 27 22 23 6 -4
8 1 5 14 -6 22 14 29 99 37 18 2 38 8 45 13 16 13 74 10 108 -5 19 -8 28 -7
37 5 8 10 21 12 47 8 20 -4 36 -11 36 -15 0 -17 -69 -50 -103 -50 -27 0 -40
-7 -58 -30 -13 -17 -41 -36 -62 -42 -31 -9 -35 -13 -22 -21 19 -10 115 21 122
39 2 7 13 10 24 7 10 -3 30 2 44 11 13 9 32 16 42 16 9 0 27 10 40 22 13 12
36 23 52 24 16 1 34 5 40 9 6 3 11 1 11 -4 0 -6 -4 -11 -10 -11 -13 0 -50 -37
-50 -50 0 -5 -8 -10 -18 -10 -31 0 -72 -24 -67 -39 4 -11 -2 -12 -30 -8 -28 5
-37 2 -45 -13 -6 -11 -16 -17 -23 -14 -18 7 -148 -56 -141 -68 12 -20 56 -29
73 -15 26 21 64 38 96 41 17 2 32 4 35 5 3 0 14 15 24 32 15 25 22 30 43 24
18 -4 32 0 47 14 20 19 24 19 51 5 41 -20 59 -45 42 -56 -7 -5 -1 -7 16 -4 22
4 27 1 27 -15 0 -12 12 -24 36 -34 53 -22 65 -8 57 66 -5 49 -3 59 10 59 8 0
17 -5 19 -11 2 -7 20 -12 39 -13 40 -1 49 -29 11 -34 -38 -6 -62 -33 -62 -69
0 -23 5 -33 15 -33 8 0 15 -4 15 -9 0 -5 14 -14 30 -20 18 -6 30 -17 31 -28 1
-24 31 -75 48 -81 7 -2 15 5 18 17 3 12 12 21 19 21 17 0 18 31 2 49 -10 10
-10 15 -2 18 7 2 10 13 7 23 -6 23 12 27 21 5 3 -8 14 -15 25 -15 11 0 26 -7
35 -15 9 -9 17 -11 21 -5 9 14 45 12 45 -2 0 -22 64 -137 79 -143 8 -3 21 1
30 10 16 16 9 20 -31 16 -23 -3 -22 1 2 41 11 18 20 27 20 21 0 -7 5 -13 10
-13 6 0 10 7 10 15 0 8 -9 15 -21 15 -11 0 -18 4 -15 9 4 5 18 6 34 2 28 -8
31 -22 17 -68 -6 -17 -3 -23 9 -23 9 0 16 7 16 15 0 8 4 15 10 15 5 0 14 15
19 32 8 30 9 29 9 -21 0 -29 4 -56 10 -60 6 -3 14 -20 18 -36 4 -17 16 -43 26
-60 16 -27 18 -28 18 -8 0 12 4 24 9 27 9 6 22 -40 23 -81 l0 -23 2839 0 2839
0 0 6100 0 6100 -2683 0 c-2543 0 -2684 -1 -2700 -17z m1154 -3544 c13 -19 16
-19 43 -5 16 8 33 13 38 10 13 -8 9 -34 -5 -34 -19 0 -19 -51 0 -72 20 -22 52
-23 79 -3 26 20 47 19 77 -5 30 -24 65 -26 73 -5 9 23 34 18 35 -7 0 -13 3
-17 6 -10 2 6 12 12 21 12 8 0 12 -3 9 -7 -11 -10 13 -33 35 -33 24 0 124 -45
133 -59 9 -15 42 -14 48 2 3 7 7 5 12 -8 9 -22 93 -105 107 -105 4 0 8 -7 8
-15 0 -9 5 -21 10 -28 6 -7 19 -23 30 -37 l20 -25 -6 38 c-7 41 3 47 31 17 10
-11 21 -17 26 -14 11 6 89 -46 89 -60 0 -6 14 -17 30 -24 17 -8 30 -20 30 -27
0 -7 3 -15 8 -17 4 -1 20 -29 37 -60 16 -32 33 -58 37 -58 4 0 8 -6 8 -13 0
-8 18 -31 40 -53 22 -21 50 -54 61 -71 11 -18 27 -33 35 -33 17 0 18 12 2 29
-11 10 -10 11 5 6 9 -4 17 -13 17 -21 0 -8 7 -14 15 -14 8 0 15 -8 15 -17 0
-14 2 -15 9 -4 5 7 6 22 4 32 -12 46 58 -4 103 -73 29 -45 29 -48 7 -48 -13 0
-14 -3 -5 -12 7 -7 12 -22 12 -35 0 -13 5 -23 11 -23 7 0 9 -9 5 -24 -6 -25
27 -75 75 -116 13 -10 21 -19 16 -20 -11 0 22 -60 33 -60 6 0 10 7 10 15 0 25
26 17 62 -18 29 -28 34 -39 30 -69 -4 -34 -3 -35 23 -30 24 4 26 3 17 -13 -6
-11 -6 -27 -2 -39 5 -12 11 -37 15 -57 3 -20 14 -44 25 -54 12 -11 20 -31 20
-51 0 -46 24 -67 67 -59 22 4 33 2 33 -6 0 -7 10 -9 25 -7 19 4 32 -4 60 -33
19 -21 35 -46 35 -55 0 -14 7 -16 39 -11 34 4 39 2 34 -12 -4 -14 -3 -14 6 -1
5 8 8 24 5 35 -3 13 2 24 17 33 26 17 28 15 33 -37 5 -65 20 -74 86 -57 53 14
77 13 53 -2 -8 -5 -9 -13 -3 -22 5 -8 4 -22 -2 -33 -14 -27 3 -42 31 -28 17
10 21 9 21 -3 0 -10 6 -13 15 -10 31 12 11 -64 -24 -92 -8 -6 -11 -15 -8 -20
3 -6 2 -16 -3 -24 -6 -9 -3 -24 8 -42 19 -33 42 -37 42 -8 0 11 -4 20 -10 20
-5 0 -10 9 -10 19 0 21 22 33 45 25 17 -7 21 -44 5 -44 -15 0 -12 -36 5 -50 8
-7 15 -10 15 -6 0 4 11 -1 25 -10 27 -18 32 -43 13 -74 -10 -16 -10 -24 0 -40
7 -11 9 -20 4 -20 -15 0 -35 -66 -32 -112 1 -30 -2 -48 -9 -48 -6 0 -11 -5
-11 -10 0 -6 -8 -23 -17 -37 -10 -15 -17 -36 -15 -47 4 -37 -13 -52 -43 -38
-17 8 -32 9 -43 3 -16 -9 -16 -10 1 -16 9 -4 24 -5 32 -1 11 4 15 -2 15 -28 0
-31 -3 -34 -37 -41 -21 -4 -41 -12 -45 -18 -12 -19 -9 -68 7 -132 l16 -59 -26
-23 c-14 -14 -23 -28 -20 -34 4 -5 1 -9 -4 -9 -6 0 -16 9 -23 20 -15 24 -28
26 -28 5 0 -9 -9 -15 -22 -15 -29 0 -58 -28 -58 -57 0 -19 5 -23 31 -23 27 0
30 -2 19 -15 -7 -8 -21 -15 -31 -15 -26 0 -99 -30 -99 -41 0 -5 7 -9 15 -9 13
0 14 -4 5 -20 -6 -11 -16 -17 -25 -14 -14 6 -19 -5 -16 -32 2 -17 -27 -37 -44
-30 -11 4 -15 -1 -15 -19 0 -27 -20 -37 -65 -31 -44 6 -105 34 -112 51 -3 8
-12 15 -21 15 -12 0 -13 3 -4 12 16 16 15 38 -1 38 -22 0 -40 -45 -35 -89 2
-30 0 -41 -10 -41 -21 0 -72 -56 -72 -79 0 -12 5 -21 11 -21 6 0 8 -8 4 -19
-3 -11 -2 -22 2 -24 11 -7 4 -97 -7 -97 -5 0 -10 7 -12 17 -3 15 -4 15 -17 0
-12 -15 -11 -17 3 -17 16 0 21 -16 17 -57 -1 -13 2 -23 7 -23 5 0 7 -13 4 -30
-3 -23 -9 -30 -28 -30 -12 0 -26 5 -29 10 -4 6 5 10 19 10 16 0 26 6 26 15 0
9 -9 15 -25 15 -14 0 -25 -4 -25 -9 0 -12 -74 -41 -105 -41 -14 0 -29 8 -35
19 -5 11 -24 22 -41 26 -21 5 -27 10 -19 15 22 14 -57 33 -106 25 -27 -4 -44
-2 -44 4 0 20 -67 83 -86 81 -41 -5 -55 1 -64 25 -10 25 -17 29 -57 25 -13 -1
-23 3 -23 9 0 6 -7 11 -16 11 -9 0 -29 14 -46 32 -23 25 -31 29 -38 18 -10
-17 -10 -17 -35 33 l-20 38 -65 -3 c-56 -3 -65 -1 -64 14 1 9 -6 17 -15 17
-30 1 -81 13 -81 20 0 14 -135 -1 -143 -15 -12 -20 -27 -7 -27 22 0 15 -7 27
-17 30 -10 3 -39 15 -65 28 l-48 24 0 -25 c0 -21 -4 -24 -27 -22 -34 2 -62 -8
-85 -32 -9 -9 -35 -20 -58 -24 -22 -4 -38 -11 -35 -15 3 -5 -3 -13 -12 -19
-10 -6 -12 -11 -5 -11 20 0 13 -25 -10 -35 -18 -8 -24 -20 -26 -53 -2 -28 -7
-42 -15 -39 -14 5 -67 -23 -67 -36 0 -5 -11 -18 -25 -29 -14 -11 -25 -25 -25
-32 0 -8 -16 -16 -36 -19 -42 -7 -64 -23 -64 -47 0 -10 -7 -20 -15 -24 -8 -3
-14 -11 -13 -18 2 -7 -3 -13 -9 -14 -7 -1 -18 -2 -24 -3 -9 -1 -25 -34 -31
-66 -1 -5 -13 -20 -27 -33 -13 -12 -29 -32 -35 -45 -6 -12 -21 -26 -33 -32
-17 -7 -20 -15 -16 -37 3 -15 1 -34 -4 -40 -6 -7 -13 -28 -17 -46 -6 -35 -55
-104 -57 -80 0 7 -5 1 -11 -14 -5 -16 -14 -28 -18 -28 -5 0 -14 -18 -20 -40
-6 -22 -15 -38 -20 -35 -14 9 -40 -24 -40 -51 0 -14 -7 -27 -15 -30 -8 -4 -15
-16 -15 -28 0 -27 -36 -70 -79 -93 -19 -10 -39 -28 -45 -38 -6 -11 -15 -23
-19 -26 -5 -4 -14 -17 -21 -30 -7 -14 -31 -31 -61 -42 -102 -38 -172 -38 -285
-1 -70 24 -86 33 -88 52 -3 17 -10 22 -31 22 -20 0 -29 7 -38 30 -6 17 -18 30
-27 30 -9 0 -16 8 -16 19 0 15 -5 18 -22 13 -17 -4 -20 -2 -15 11 4 10 2 17
-4 17 -5 0 -14 10 -19 23 -5 12 -9 16 -9 10 -1 -7 -5 -13 -11 -13 -5 0 -10 25
-10 55 0 30 -4 55 -9 55 -16 0 -41 31 -41 51 0 10 -9 28 -21 40 -16 16 -18 23
-8 35 9 11 8 14 -7 14 -21 0 -94 68 -94 87 0 7 -4 13 -10 13 -5 0 -16 13 -25
29 -8 17 -26 42 -41 58 -30 33 -39 24 -49 -48 -4 -26 -15 -56 -26 -68 -36 -39
-16 -111 31 -111 13 0 17 -5 14 -15 -4 -8 -12 -15 -19 -15 -20 0 -26 -14 -19
-49 5 -22 12 -31 26 -31 16 0 17 -3 7 -21 -10 -19 -8 -20 10 -14 17 5 21 2 21
-14 0 -15 6 -21 21 -21 17 0 20 -4 14 -29 -7 -32 8 -44 46 -34 19 5 21 3 16
-16 -4 -15 2 -30 19 -48 18 -20 21 -29 13 -39 -6 -8 -8 -22 -4 -31 6 -16 8
-16 25 4 23 28 30 14 30 -58 0 -31 8 -66 21 -91 26 -50 19 -93 -12 -83 -18 6
-20 4 -14 -17 11 -35 25 -48 51 -48 12 0 26 -4 29 -10 3 -5 1 -10 -4 -10 -6 0
-11 -4 -11 -10 0 -5 7 -7 15 -3 13 5 15 -3 10 -51 -5 -55 -5 -56 20 -56 14 0
28 -6 31 -14 7 -20 53 -29 70 -15 11 9 15 8 20 -5 4 -11 13 -15 22 -11 10 4
23 -3 35 -17 10 -13 16 -18 13 -11 -4 7 3 17 15 24 21 11 21 10 5 -12 -21 -30
-22 -99 -1 -99 9 0 15 -9 15 -25 0 -14 -4 -25 -9 -25 -5 0 -12 -12 -16 -27 -3
-15 -9 -22 -13 -16 -4 6 -34 14 -67 18 -33 3 -64 10 -69 15 -5 5 -14 6 -21 4
-6 -3 -18 2 -25 11 -7 8 -19 15 -27 15 -17 0 -103 49 -103 59 0 7 -58 31 -74
31 -5 0 -6 -7 -2 -15 3 -9 0 -15 -9 -15 -8 0 -15 5 -15 11 0 6 -17 32 -38 58
-21 25 -42 54 -45 64 -4 9 -13 17 -22 17 -8 0 -15 6 -15 13 -1 16 -38 42 -71
50 -18 5 -29 16 -33 33 -4 16 -12 24 -21 21 -7 -3 -16 1 -19 10 -4 8 -12 13
-20 10 -10 -4 -13 3 -12 26 1 25 -3 31 -16 29 -10 -2 -18 3 -18 10 0 13 -71
63 -89 63 -5 0 -13 3 -17 7 -4 5 -15 8 -25 8 -9 0 -31 16 -48 35 -17 19 -39
35 -50 35 -12 0 -23 11 -30 30 -5 17 -15 30 -20 30 -6 0 -11 8 -11 17 0 13 -3
14 -12 5 -18 -18 -48 -15 -48 6 0 9 7 30 15 46 16 31 10 53 -6 23 -12 -20 -64
-23 -76 -4 -20 32 -31 81 -22 99 6 11 6 18 0 18 -5 0 -11 12 -13 28 -2 22 -8
27 -30 27 -37 1 -55 19 -62 65 -5 31 -11 40 -26 40 -25 0 -27 -36 -3 -62 15
-17 15 -19 -2 -38 -10 -11 -24 -20 -32 -20 -17 0 -53 36 -53 54 0 8 -5 18 -12
22 -19 12 -66 15 -73 4 -11 -18 -40 -10 -51 15 -10 21 -9 25 10 32 11 4 27 6
35 4 7 -1 11 4 9 11 -5 16 -41 22 -75 13 -18 -4 -22 -9 -14 -18 7 -9 7 -17 0
-27 -8 -11 -12 -12 -15 -3 -3 7 -11 10 -18 7 -8 -3 -16 5 -20 21 -8 31 1 48
20 41 14 -5 17 3 15 34 0 10 1 11 5 3 11 -25 24 -12 24 25 l0 37 21 -25 21
-25 -7 30 c-8 38 -23 55 -46 55 -13 0 -19 -7 -20 -22 0 -22 -1 -22 -9 -3 -5
11 -9 32 -9 47 -1 14 -6 28 -11 30 -18 6 1 69 23 77 18 7 18 8 2 24 -10 11
-14 24 -10 38 6 18 12 20 40 15 29 -6 34 -3 40 16 4 13 14 30 21 39 8 9 14 27
14 40 2 110 7 125 50 131 14 2 26 11 28 21 5 26 -21 77 -39 77 -23 0 -34 32
-15 42 29 17 38 46 25 83 -7 19 -17 35 -23 35 -5 0 -2 8 7 18 16 17 15 20 -14
41 -25 19 -28 25 -18 37 7 9 21 13 34 10 14 -4 25 1 33 14 7 12 8 20 2 20 -5
0 -10 11 -10 25 0 14 -4 25 -8 25 -5 0 -8 -10 -8 -22 1 -14 -5 -23 -14 -23 -9
0 -14 8 -13 19 1 11 -6 25 -14 31 -10 7 -16 27 -16 53 0 23 -4 39 -8 36 -14
-8 -10 10 6 32 8 10 15 31 15 45 0 19 6 28 22 33 18 4 20 8 10 18 -17 17 -15
59 4 86 17 25 11 62 -12 62 -16 0 -16 2 -8 25 6 15 8 15 25 -1 10 -9 23 -13
29 -9 18 11 29 49 18 62 -6 8 0 11 24 10 29 -2 33 1 33 23 0 18 -6 26 -22 28
-26 4 -38 29 -22 48 6 8 9 25 7 38 -4 18 4 34 26 58 22 23 31 43 31 68 1 36
22 61 105 130 17 14 30 34 30 47 0 23 35 40 71 35 27 -4 84 33 87 56 2 12 -1
22 -7 22 -18 0 -12 26 9 45 11 10 20 27 20 38 0 16 3 17 15 7 12 -10 18 -10
29 -1 10 9 16 9 21 1 5 -8 11 -8 21 1 7 6 11 15 8 20 -8 14 16 51 30 46 8 -3
17 11 24 39 12 44 12 44 57 44 25 0 45 4 45 9 0 17 -20 23 -35 11 -8 -7 -23
-10 -34 -7 -10 2 -25 0 -34 -5 -13 -7 -15 -5 -11 7 3 8 15 15 25 15 11 0 29
11 41 25 24 28 63 33 72 10 3 -8 10 -15 16 -15 5 0 10 7 10 15 0 9 9 15 21 15
18 0 19 3 9 15 -15 18 -6 33 26 45 13 5 24 13 23 17 -7 42 32 64 63 36 10 -9
18 -11 18 -6 0 6 20 13 45 15 45 3 63 -13 28 -26 -12 -5 -14 -9 -5 -18 7 -7
12 -22 12 -35 0 -20 5 -23 36 -23 36 0 73 -23 54 -35 -5 -3 -10 -1 -10 4 0 6
-4 11 -10 11 -5 0 -10 -6 -10 -14 0 -23 -28 -27 -35 -5 -9 28 -43 24 -51 -6
-3 -14 -11 -25 -18 -25 -28 -1 -38 -17 -26 -40 9 -18 9 -24 0 -30 -8 -5 -11
-19 -7 -39 5 -24 3 -29 -8 -24 -9 3 -15 -1 -15 -10 0 -23 11 -48 19 -43 4 3 5
-10 3 -29 -3 -28 0 -34 25 -43 17 -6 21 -11 11 -11 -24 -1 -23 -22 0 -28 21
-5 59 -63 43 -63 -6 0 -11 -7 -11 -15 0 -8 6 -15 13 -15 22 0 57 -46 44 -59
-14 -14 12 -64 30 -57 8 3 16 -1 19 -9 4 -8 15 -15 26 -15 11 0 22 -8 25 -20
7 -26 22 -16 40 27 14 34 15 34 34 17 10 -9 19 -23 19 -31 0 -7 5 -13 11 -13
6 0 8 24 5 69 -3 53 -1 73 10 82 18 15 45 4 38 -15 -5 -12 5 -13 54 -9 46 4
65 2 85 -12 31 -20 33 -42 12 -100 -19 -54 -18 -123 3 -160 40 -70 69 -106 99
-120 48 -23 141 -19 206 9 l55 25 31 -26 c25 -21 31 -34 31 -64 0 -21 4 -40 9
-43 5 -3 12 -21 15 -40 4 -18 18 -46 31 -60 14 -15 25 -31 25 -35 0 -5 7 -12
16 -15 22 -9 14 -50 -11 -54 -25 -3 -105 64 -105 89 0 10 -10 19 -27 22 -16 3
-38 8 -50 12 -13 4 -23 3 -23 -1 0 -14 46 -64 59 -64 6 0 11 -9 11 -20 0 -11
4 -20 8 -20 5 0 14 -11 20 -25 6 -14 18 -25 25 -25 7 0 28 -11 47 -25 23 -17
47 -25 75 -25 48 0 65 13 65 52 0 30 23 39 37 15 4 -8 16 -16 25 -20 26 -9 56
-64 52 -95 -2 -15 -5 -39 -6 -54 0 -16 -7 -28 -14 -28 -7 0 -18 -9 -24 -21 -7
-12 -18 -18 -26 -15 -8 3 -17 -1 -20 -9 -4 -8 -11 -15 -18 -15 -6 0 -19 -18
-30 -40 -10 -21 -24 -41 -31 -44 -16 -6 -5 -68 13 -74 6 -2 12 1 12 7 0 7 14
10 34 7 25 -3 39 1 51 14 9 10 27 21 41 24 13 4 24 12 24 19 0 9 2 9 8 -1 6
-9 19 -10 47 -4 39 8 39 8 40 57 2 80 25 106 61 70 9 -8 24 -15 34 -15 14 0
18 7 17 28 -1 15 -6 30 -11 33 -4 4 -3 10 3 13 6 4 11 2 11 -3 0 -6 8 -11 18
-11 29 0 82 30 82 46 0 8 7 17 15 20 8 4 13 10 10 14 -3 4 2 13 10 20 7 6 11
18 8 26 -3 7 2 16 10 20 11 4 14 20 12 67 -3 84 -11 106 -35 100 -16 -4 -20 3
-26 44 -4 26 -8 55 -8 63 -1 8 -7 15 -15 15 -8 0 -15 13 -16 32 -1 17 -12 44
-24 59 -11 15 -21 33 -21 41 0 7 -7 16 -15 19 -10 4 -13 13 -10 25 4 11 -8 45
-29 85 -20 37 -36 74 -36 84 0 9 -16 34 -36 55 -45 49 -77 112 -71 136 5 19
-15 44 -26 32 -4 -3 -7 0 -7 8 0 9 -25 39 -55 68 -30 29 -55 59 -55 67 0 8
-18 21 -39 30 -32 13 -38 19 -33 37 5 19 4 20 -11 8 -15 -11 -18 -10 -27 13
-5 14 -7 32 -4 39 2 7 -21 40 -53 72 -64 66 -87 101 -72 110 5 4 9 20 9 37 0
26 -2 29 -15 18 -16 -13 -18 -9 -16 25 2 26 -34 65 -59 65 -11 0 -20 6 -20 13
0 8 -17 33 -39 56 -46 50 -59 102 -34 140 20 31 23 119 4 126 -7 3 -11 12 -7
20 6 17 -23 72 -43 80 -21 8 -50 -23 -57 -61 -5 -28 -11 -34 -31 -34 -13 0
-33 -4 -43 -10 -15 -8 -20 -6 -26 12 -4 13 -14 28 -22 34 -8 6 -21 28 -28 50
-19 54 -3 94 37 94 16 0 29 4 29 8 0 5 18 15 40 22 26 9 40 19 40 30 0 24 40
33 60 15 19 -17 33 -19 58 -6 9 5 31 15 48 21 22 8 39 26 54 56 13 24 27 44
32 44 4 0 8 7 8 15 0 8 5 15 10 15 6 0 10 -4 10 -10 0 -5 5 -10 10 -10 6 0 10
7 10 15 0 8 -9 15 -20 15 -12 0 -20 7 -20 16 0 9 9 18 20 21 11 3 20 11 20 18
0 7 9 15 20 18 14 3 20 14 20 31 0 26 30 39 30 14 0 -7 9 6 20 30 13 28 25 42
38 42 11 0 33 7 48 15 16 8 23 15 17 15 -7 0 -13 8 -13 19 0 21 39 33 64 19
13 -7 16 -4 16 19 0 15 7 37 15 47 23 30 18 46 -12 46 -22 0 -25 2 -13 10 13
8 13 11 1 19 -15 9 -7 31 11 31 6 0 20 -8 31 -17 15 -13 21 -15 24 -5 7 18 21
15 26 -5 2 -10 3 -3 1 15 -2 21 2 32 10 32 9 0 12 -9 9 -24 -5 -26 12 -66 28
-66 6 0 8 4 4 9 -3 5 -1 12 5 16 5 3 10 2 10 -3 0 -17 40 -1 51 20 7 13 18 18
30 15 12 -3 20 1 24 14 4 10 15 19 25 19 10 0 20 7 24 15 3 8 12 12 21 9 11
-5 15 1 16 20 1 14 3 31 4 36 1 6 3 13 4 16 0 4 7 1 15 -5 10 -9 16 -9 21 -1
5 8 11 8 21 -1 11 -9 18 -8 30 2 14 11 19 10 35 -10 14 -18 19 -19 19 -7 0 9
9 21 20 28 11 7 20 18 20 25 0 22 66 16 81 -8z m-691 -99 c0 -5 -7 -7 -15 -4
-8 4 -15 8 -15 10 0 2 7 4 15 4 8 0 15 -4 15 -10z m360 0 c0 -5 -4 -10 -10
-10 -5 0 -10 5 -10 10 0 6 5 10 10 10 6 0 10 -4 10 -10z m-430 -90 c0 -5 -7
-7 -15 -4 -8 4 -15 8 -15 10 0 2 7 4 15 4 8 0 15 -4 15 -10z m21 -153 c-8 -8
-11 -7 -11 4 0 9 3 19 7 23 4 4 9 2 11 -4 3 -7 -1 -17 -7 -23z m-246 -267 c-3
-5 -10 -10 -16 -10 -5 0 -9 5 -9 10 0 6 7 10 16 10 8 0 12 -4 9 -10z m2115 0
c0 -5 -2 -10 -4 -10 -3 0 -8 5 -11 10 -3 6 -1 10 4 10 6 0 11 -4 11 -10z m105
-71 c12 -18 -3 -22 -20 -5 -14 14 -14 16 -1 16 8 0 18 -5 21 -11z m-2458 -75
c-3 -3 -12 -4 -19 -1 -8 3 -5 6 6 6 11 1 17 -2 13 -5z m-172 -74 c3 -5 -3 -10
-14 -10 -12 0 -21 5 -21 10 0 6 6 10 14 10 8 0 18 -4 21 -10z m-959 -195 c4
-8 12 -15 20 -15 19 0 18 -14 -2 -31 -13 -10 -17 -10 -25 2 -6 10 -9 10 -9 2
0 -21 -17 -14 -23 9 -10 36 27 66 39 33z m902 -33 c4 -26 -6 -28 -24 -4 -18
24 -17 34 4 30 9 -2 18 -13 20 -26z m-978 -13 c9 -15 8 -24 -1 -35 -18 -22
-29 -17 -27 14 3 47 11 53 28 21z m3945 5 c0 -5 9 -22 19 -37 26 -39 10 -49
-20 -12 -25 32 -32 69 -11 63 6 -3 12 -9 12 -14z m-2885 -24 c0 -5 -4 -10 -10
-10 -5 0 -10 5 -10 10 0 6 5 10 10 10 6 0 10 -4 10 -10z m-129 -36 c9 -11 10
-20 2 -32 -9 -16 -46 -25 -40 -11 1 4 -6 16 -16 26 -9 11 -14 23 -10 26 12 13
50 7 64 -9z m49 -10 c0 -8 -4 -12 -10 -9 -5 3 -10 10 -10 16 0 5 5 9 10 9 6 0
10 -7 10 -16z m-263 -74 c4 -44 -5 -51 -26 -19 -10 18 -11 26 0 45 16 30 21
25 26 -26z m506 28 c3 -10 11 -10 33 -3 16 6 37 9 46 7 20 -4 82 -107 73 -122
-3 -5 -24 -10 -46 -10 -32 0 -39 3 -39 20 0 11 -6 20 -14 20 -9 0 -12 7 -9 19
5 21 -11 36 -27 26 -8 -5 -7 -11 0 -20 13 -16 5 -35 -13 -34 -9 0 -9 2 1 6 21
8 13 26 -10 20 -14 -4 -27 1 -40 15 -18 21 -18 22 4 45 24 26 34 29 41 11z
m-83 -16 c0 -13 -12 -22 -22 -16 -10 6 -1 24 13 24 5 0 9 -4 9 -8z m-380 -43
c0 -5 -7 -9 -15 -9 -9 0 -12 6 -9 15 6 15 24 11 24 -6z m-143 -51 c-3 -8 -6
-5 -6 6 -1 11 2 17 5 13 3 -3 4 -12 1 -19z m113 12 c0 -5 -7 -10 -15 -10 -8 0
-15 5 -15 10 0 6 7 10 15 10 8 0 15 -4 15 -10z m-30 -85 c0 -25 -4 -45 -10
-45 -5 0 -10 5 -10 10 0 17 -25 11 -48 -10 -12 -12 -23 -19 -23 -18 -1 2 -3
16 -5 31 -4 34 37 76 74 77 20 0 22 -5 22 -45z m-744 -22 c-10 -10 -19 5 -10
18 6 11 8 11 12 0 2 -7 1 -15 -2 -18z m164 -12 c0 -20 -13 -41 -24 -41 -7 0
-18 -12 -24 -26 -7 -14 -17 -22 -22 -19 -12 7 1 34 33 71 21 25 37 31 37 15z
m-190 -51 c-14 -11 -33 -20 -42 -20 -9 0 -20 -5 -24 -12 -5 -7 -2 -9 8 -6 8 4
19 3 25 0 18 -13 39 -68 37 -99 -2 -30 -31 -82 -46 -83 -10 0 -38 60 -38 82 0
18 -15 25 -24 10 -3 -5 0 -27 6 -50 12 -46 -2 -78 -30 -67 -8 3 -25 -6 -38
-20 -13 -14 -34 -25 -49 -25 -15 0 -25 -6 -25 -14 0 -8 -10 -16 -22 -18 -12
-2 -29 -16 -38 -33 -18 -33 -50 -46 -50 -21 0 24 -1 30 -11 48 -5 9 -5 19 -1
22 5 3 9 19 10 35 0 16 8 41 17 55 10 14 14 26 10 26 -3 0 0 6 7 14 7 8 38 40
68 72 30 32 58 58 63 56 4 -1 7 4 7 11 1 6 10 23 21 37 18 21 22 22 30 8 8
-15 15 -14 71 7 70 25 101 17 58 -15z m180 -9 c0 -6 -4 -13 -10 -16 -5 -3 -10
1 -10 9 0 9 5 16 10 16 6 0 10 -4 10 -9z m880 -51 c0 -5 -2 -10 -4 -10 -3 0
-8 5 -11 10 -3 6 -1 10 4 10 6 0 11 -4 11 -10z m1 -49 c-11 -7 -7 -13 18 -25
17 -9 31 -21 31 -26 0 -6 5 -10 10 -10 6 0 10 7 10 15 0 27 28 16 79 -34 28
-27 51 -52 51 -56 0 -10 28 -35 39 -35 6 0 11 5 11 10 0 6 -4 10 -10 10 -5 0
-10 6 -10 13 0 18 125 16 142 -1 7 -7 21 -12 32 -12 22 0 116 -86 116 -106 0
-7 11 -22 25 -35 15 -13 37 -46 51 -72 14 -26 31 -50 39 -53 7 -3 17 -19 20
-35 4 -16 11 -31 16 -34 5 -4 9 -17 9 -30 0 -13 5 -27 10 -30 6 -4 8 -10 5
-15 -2 -4 4 -19 15 -32 28 -36 35 -74 16 -81 -22 -8 -65 9 -73 28 -3 9 -12 14
-19 11 -7 -3 -16 -1 -19 5 -4 5 -22 16 -41 24 -20 8 -38 25 -44 40 -5 14 -14
24 -19 23 -4 -2 -26 13 -47 32 -22 19 -50 42 -64 51 -35 23 -90 77 -90 89 0 6
-7 10 -15 10 -8 0 -15 7 -15 15 0 8 -6 15 -13 15 -8 0 -22 9 -33 21 -23 25
-69 51 -77 42 -4 -3 -10 3 -14 13 -3 10 -24 37 -45 59 -29 31 -38 36 -38 21 0
-16 -2 -17 -16 -5 -15 13 -24 15 -69 22 -11 2 -27 6 -35 10 -8 3 -24 7 -34 9
-27 4 -45 36 -27 47 11 7 10 13 -4 35 -10 15 -15 29 -11 33 3 3 6 1 6 -5 0 -7
16 -12 38 -12 28 0 45 7 62 25 13 14 28 25 34 25 6 0 5 -4 -3 -9z m-288 -75
c4 -10 1 -13 -9 -9 -15 6 -19 23 -5 23 5 0 11 -7 14 -14z m-4437 -66 c11 -11
6 -100 -7 -100 -5 0 -9 17 -9 39 0 22 -6 44 -15 51 -12 10 -15 10 -15 0 0 -8
-3 -11 -6 -7 -10 10 6 27 25 27 9 0 21 -4 27 -10z m8490 -15 c25 -23 26 -27
12 -41 -24 -24 -58 -2 -58 36 0 37 11 38 46 5z m-4976 -34 c0 -6 -4 -13 -10
-16 -5 -3 -10 1 -10 9 0 9 5 16 10 16 6 0 10 -4 10 -9z m4900 -1 c0 -5 -4 -10
-10 -10 -5 0 -10 5 -10 10 0 6 5 10 10 10 6 0 10 -4 10 -10z m-8500 -18 c0
-10 -22 -32 -32 -32 -13 0 -9 28 5 33 19 8 27 8 27 -1z m3550 -62 c0 -5 -4
-10 -10 -10 -5 0 -10 5 -10 10 0 6 5 10 10 10 6 0 10 -4 10 -10z m-3635 -40
c3 -5 1 -10 -4 -10 -6 0 -11 5 -11 10 0 6 2 10 4 10 3 0 8 -4 11 -10z m126
-17 c-6 -10 -11 -12 -11 -5 0 16 -32 16 -48 0 -10 -10 -15 -10 -22 2 -8 12 -1
16 38 20 56 6 57 6 43 -17z m-141 -63 c6 0 5 -7 -2 -20 -7 -11 -18 -20 -25
-20 -17 0 -29 23 -15 28 7 2 12 16 13 30 0 26 1 26 9 5 5 -13 14 -23 20 -23z
m98 11 c3 -8 -1 -12 -9 -9 -7 2 -15 10 -17 17 -3 8 1 12 9 9 7 -2 15 -10 17
-17z m248 -6 c4 -8 12 -15 20 -15 8 0 14 -7 14 -15 0 -22 -37 -18 -50 4 -5 11
-10 24 -10 30 0 16 20 13 26 -4z m3184 -26 c0 -14 -5 -19 -14 -16 -17 7 -36
-11 -36 -34 0 -18 -54 -79 -70 -79 -17 0 -21 75 -6 110 8 19 15 30 16 24 0
-13 25 -11 60 4 38 16 50 14 50 -9z m1683 -35 c94 -48 201 -141 212 -185 3
-14 16 -29 28 -34 12 -6 23 -19 24 -30 3 -17 1 -16 -7 3 -5 13 -14 21 -20 17
-11 -7 -19 -1 -135 111 -49 48 -107 98 -127 111 -35 21 -46 33 -33 33 3 0 29
-12 58 -26z m-4913 -9 c0 -8 -4 -15 -9 -15 -13 0 -22 16 -14 24 11 11 23 6 23
-9z m8500 -50 c10 -12 10 -15 -4 -15 -9 0 -16 7 -16 15 0 8 2 15 4 15 2 0 9
-7 16 -15z m-8455 -5 c-3 -5 -13 -10 -21 -10 -8 0 -12 5 -9 10 3 6 13 10 21
10 8 0 12 -4 9 -10z m19 -55 c-21 -16 -44 -20 -44 -7 0 15 13 22 39 22 24 0
24 -1 5 -15z m-366 -11 c-9 -9 -24 -14 -32 -11 -27 11 -17 27 16 27 30 0 31
-1 16 -16z m8849 -110 c-3 -3 -12 -4 -19 -1 -8 3 -5 6 6 6 11 1 17 -2 13 -5z
m-3337 -39 c0 -8 -4 -15 -10 -15 -5 0 -10 7 -10 15 0 8 5 15 10 15 6 0 10 -7
10 -15z m-5502 -107 c-6 -18 -28 -21 -28 -4 0 9 7 16 16 16 9 0 14 -5 12 -12z
m111 -47 c10 -7 10 -10 1 -16 -7 -4 -16 -2 -20 5 -4 7 -15 10 -25 7 -9 -4 -14
-3 -10 3 8 12 35 13 54 1z m-19 -56 c0 -14 -4 -25 -10 -25 -5 0 -10 11 -10 25
0 14 5 25 10 25 6 0 10 -11 10 -25z m37 -7 c-3 -8 -6 -5 -6 6 -1 11 2 17 5 13
3 -3 4 -12 1 -19z m-160 6 c-3 -3 -12 -4 -19 -1 -8 3 -5 6 6 6 11 1 17 -2 13
-5z m-52 -84 c-24 -27 -50 -28 -35 -1 5 11 10 30 10 43 l0 22 22 -21 c21 -22
21 -23 3 -43z m55 20 c0 -5 -4 -10 -10 -10 -5 0 -10 5 -10 10 0 6 5 10 10 10
6 0 10 -4 10 -10z m130 -25 c0 -8 -4 -15 -10 -15 -5 0 -10 7 -10 15 0 8 5 15
10 15 6 0 10 -7 10 -15z m-50 -5 c0 -5 -9 -10 -21 -10 -11 0 -17 5 -14 10 3 6
13 10 21 10 8 0 14 -4 14 -10z m190 -35 c0 -2 -7 -5 -15 -9 -9 -3 -15 0 -15 9
0 9 6 12 15 9 8 -4 15 -7 15 -9z m-367 -11 c3 -3 3 -13 0 -21 -5 -12 -7 -12
-14 -1 -15 23 -4 40 14 22z m77 -30 c0 -8 5 -14 10 -14 6 0 10 -6 10 -14 0 -8
6 -17 13 -19 9 -4 9 -6 0 -6 -7 -1 -18 8 -25 19 -7 11 -18 20 -25 20 -14 0
-18 22 -7 33 10 9 24 -2 24 -19z m187 -6 c-3 -8 -6 -5 -6 6 -1 11 2 17 5 13 3
-3 4 -12 1 -19z m-199 -60 c10 -23 9 -28 -3 -28 -8 0 -19 -17 -25 -40 -12 -45
-16 -47 -42 -23 -17 15 -19 15 -36 0 -19 -17 -52 -23 -52 -9 0 4 7 18 16 30
12 17 19 20 34 12 25 -13 25 -13 55 14 19 18 25 31 20 45 -7 23 3 48 14 34 4
-4 12 -20 19 -35z m56 -27 c3 -5 -1 -11 -9 -15 -9 -3 -15 0 -15 9 0 16 16 20
24 6z m-184 -177 c0 -9 -5 -14 -12 -12 -18 6 -21 28 -4 28 9 0 16 -7 16 -16z
m300 -179 c0 -9 -6 -12 -15 -9 -8 4 -15 10 -15 15 0 5 7 9 15 9 8 0 15 -7 15
-15z m6690 -45 c0 -5 -9 -10 -21 -10 -11 0 -17 5 -14 10 3 6 13 10 21 10 8 0
14 -4 14 -10z m-3470 -50 c0 -5 -5 -10 -11 -10 -5 0 -7 5 -4 10 3 6 8 10 11
10 2 0 4 -4 4 -10z m-127 -196 c8 -9 -36 -74 -50 -74 -18 0 -16 10 7 48 19 31
30 38 43 26z m3323 -109 c42 -17 43 -43 3 -62 -22 -11 -33 -10 -62 2 -44 18
-54 33 -30 42 10 3 22 12 26 20 10 17 20 16 63 -2z m-26 -109 c0 -31 23 -74
49 -92 12 -9 21 -22 21 -29 0 -8 12 -21 28 -29 15 -8 37 -28 50 -45 23 -32 37
-37 60 -22 10 6 11 13 1 34 -7 15 -17 27 -23 27 -13 0 -36 89 -25 96 4 2 12
-2 16 -11 5 -9 29 -17 58 -20 124 -13 187 -35 204 -73 15 -32 14 -45 -8 -64
-14 -12 -20 -36 -26 -94 -4 -44 -6 -84 -5 -89 6 -26 -3 -24 -42 9 -23 20 -44
33 -47 30 -3 -3 4 -13 17 -21 12 -9 22 -21 22 -28 0 -8 10 -22 23 -32 13 -10
30 -33 39 -50 16 -32 16 -33 -7 -33 -12 0 -25 7 -29 15 -3 8 -12 15 -19 15 -8
0 -22 18 -33 40 -10 22 -24 40 -29 40 -6 0 -16 9 -23 20 -14 23 -42 27 -42 5
0 -8 -9 -15 -20 -15 -11 0 -20 7 -20 15 0 8 -7 15 -15 15 -8 0 -15 5 -15 10 0
6 -9 21 -21 33 -11 12 -36 55 -55 95 -20 40 -42 72 -50 72 -12 0 -12 -5 -1
-32 8 -18 17 -46 21 -61 6 -26 5 -27 -15 -17 -13 7 -25 8 -30 3 -14 -14 5 -89
21 -85 7 2 10 -3 7 -12 -4 -9 -2 -18 4 -21 16 -10 0 -23 -21 -18 -14 4 -20 0
-20 -12 0 -11 5 -15 15 -11 18 7 18 4 4 -28 -10 -20 -9 -28 5 -41 9 -9 16 -22
16 -29 0 -8 7 -19 15 -26 8 -7 15 -19 15 -26 0 -8 -7 -14 -15 -14 -17 0 -20
-16 -5 -25 6 -3 10 -16 10 -28 0 -13 16 -37 36 -57 20 -19 43 -49 51 -67 7
-18 20 -33 28 -33 8 0 26 -11 41 -25 26 -24 38 -29 58 -26 5 1 6 -5 3 -14 -5
-11 0 -15 15 -15 12 0 18 -3 15 -7 -11 -11 14 -33 38 -33 12 0 41 -18 65 -40
24 -22 48 -40 53 -40 30 0 84 -35 96 -62 12 -28 12 -32 -5 -42 -17 -9 -15 -11
16 -17 l35 -6 -30 -13 c-28 -13 -29 -14 -7 -17 32 -6 27 -23 -7 -23 -16 0 -31
-4 -33 -10 -1 -5 -25 -13 -51 -16 -27 -4 -47 -3 -45 2 2 5 -2 9 -7 9 -5 0 -8
-4 -6 -10 12 -33 12 -45 0 -45 -7 0 -24 -12 -38 -27 -15 -18 -25 -23 -28 -16
-3 7 -15 10 -31 7 -15 -3 -40 -6 -57 -7 -20 -2 -36 -12 -50 -34 -17 -24 -25
-29 -39 -21 -24 13 -46 -7 -46 -43 0 -45 -17 -79 -40 -79 -11 0 -36 -7 -55
-15 -26 -10 -37 -22 -41 -45 -8 -35 -37 -41 -56 -10 -15 24 -68 28 -68 5 0
-21 -8 -19 -47 15 -36 32 -80 39 -90 14 -3 -8 -12 -13 -20 -10 -8 3 -12 2 -8
-3 3 -5 -13 -12 -35 -16 -31 -5 -40 -11 -40 -27 0 -15 -4 -18 -17 -13 -10 4
-44 14 -76 22 -54 14 -59 14 -78 -3 -13 -12 -20 -29 -19 -49 3 -47 1 -54 -19
-74 -35 -35 -78 -4 -52 38 6 9 11 10 15 2 4 -6 11 -11 17 -11 14 0 11 27 -6
43 -8 8 -11 17 -8 21 3 3 -6 18 -20 32 -15 15 -27 33 -27 40 0 21 22 28 35 11
7 -10 26 -17 48 -17 l35 0 -1 62 c-2 56 0 63 18 63 17 0 20 7 21 55 1 30 -4
58 -10 62 -13 8 -8 13 22 22 16 6 22 3 22 -8 0 -8 9 -20 20 -26 16 -9 20 -8
20 5 0 8 -4 15 -10 15 -5 0 -10 16 -10 35 0 23 5 35 14 35 20 0 8 48 -17 65
-15 11 -17 15 -7 16 11 0 11 2 3 6 -7 2 -13 17 -12 31 0 24 1 25 9 7 5 -11 9
-15 10 -10 0 6 7 -1 15 -15 12 -22 13 -13 8 80 -2 58 -9 116 -14 130 -5 14
-11 42 -13 63 -2 20 -9 43 -16 52 -8 10 -11 33 -8 67 3 30 1 60 -5 70 -9 14
-7 22 11 41 12 13 22 33 22 45 0 12 6 32 13 45 6 12 13 24 14 26 1 1 7 0 14
-5 13 -8 80 -8 114 0 11 2 24 5 28 5 5 1 7 7 4 14 -7 20 12 47 33 47 11 0 20
5 20 10 0 6 8 10 18 10 16 -1 16 -1 0 -14 -23 -17 -23 -26 0 -26 10 0 23 -5
30 -12 9 -9 18 -9 37 0 27 13 34 32 10 32 -8 0 -15 7 -15 15 0 9 -9 15 -22 15
-29 1 -58 22 -58 44 0 20 8 20 29 2 9 -7 28 -16 44 -20 32 -8 34 2 13 81 -15
56 -12 210 5 228 5 5 9 17 9 26 0 10 19 27 48 42 61 31 62 31 62 3z m458 -48
c-2 -18 -7 -33 -13 -33 -5 0 -11 15 -13 33 -3 24 1 32 13 32 12 0 16 -8 13
-32z m-323 -7 c0 -31 -17 -37 -33 -11 -15 24 -7 42 16 38 10 -2 17 -13 17 -27z
m437 -34 c6 -11 5 -17 -1 -17 -6 0 -8 -7 -5 -15 4 -8 2 -15 -2 -15 -16 1 -54
38 -54 53 0 21 49 16 62 -6z m146 -80 c45 -44 50 -58 28 -76 -11 -9 -22 -7
-50 10 -20 11 -36 24 -36 28 0 4 -16 13 -36 20 -44 16 -53 36 -24 61 29 25 60
13 118 -43z m-3818 12 c0 -5 5 -7 10 -4 12 7 12 3 4 -19 -5 -13 -9 -14 -20 -5
-11 9 -18 8 -29 -1 -10 -9 -15 -9 -15 -1 0 6 5 11 10 11 6 0 10 7 10 15 0 8 7
15 15 15 8 0 15 -5 15 -11z m70 -39 c0 -11 -7 -20 -15 -20 -8 0 -15 2 -15 4 0
2 -3 11 -6 20 -4 12 0 16 15 16 14 0 21 -6 21 -20z m-120 -91 c0 -5 -9 -9 -20
-9 -19 0 -26 11 -14 23 8 8 34 -3 34 -14z m-80 -19 c0 -5 -4 -10 -10 -10 -5 0
-10 5 -10 10 0 6 5 10 10 10 6 0 10 -4 10 -10z m3348 -113 c-2 -12 10 -34 30
-54 17 -19 32 -40 32 -48 0 -7 4 -15 8 -17 12 -5 52 -77 52 -93 0 -8 6 -18 13
-22 14 -9 47 -58 47 -70 0 -4 -5 -2 -12 5 -7 7 -22 12 -35 12 -14 0 -23 6 -23
15 0 8 -4 15 -10 15 -5 0 -10 7 -10 15 0 18 -46 87 -66 98 -8 4 -14 15 -14 23
0 8 -4 23 -10 34 -5 11 -15 29 -21 41 -7 15 -7 24 1 34 9 11 7 17 -9 27 -12 7
-21 19 -21 26 0 9 7 8 26 -4 15 -11 24 -24 22 -37z m-2738 -57 c0 -5 -9 -14
-20 -20 -16 -8 -20 -8 -20 4 0 13 13 23 33 25 4 1 7 -3 7 -9z m-90 -16 c0 -8
-4 -12 -10 -9 -5 3 -10 10 -10 16 0 5 5 9 10 9 6 0 10 -7 10 -16z m3211 -14
c38 -21 68 -30 101 -30 45 0 60 4 137 37 22 10 36 12 43 5 16 -16 15 -92 -1
-101 -7 -5 -11 -13 -7 -19 6 -10 -46 -22 -97 -22 -15 0 -35 9 -44 20 -10 11
-26 20 -36 20 -39 0 -177 97 -161 113 9 9 3 11 65 -23z m-3329 -114 c31 -23
63 -79 77 -136 8 -30 22 -61 32 -68 19 -13 15 -42 -6 -42 -8 0 -10 -9 -7 -25
5 -28 12 -31 30 -13 9 9 12 9 12 -1 0 -7 4 -10 9 -6 5 3 16 -2 24 -10 14 -13
18 -11 44 18 15 18 38 46 50 62 l21 30 39 -19 c21 -10 70 -42 110 -72 39 -30
80 -54 91 -54 27 0 106 -63 130 -104 12 -20 29 -37 39 -38 10 -1 25 -2 34 -3
31 -2 88 -44 104 -77 38 -77 99 -142 165 -175 36 -17 71 -32 79 -32 7 -1 29
-10 47 -22 30 -18 34 -25 34 -65 0 -50 3 -52 78 -58 65 -4 100 -32 104 -84 3
-31 6 -36 31 -37 36 -1 67 -40 65 -80 -2 -36 -50 -91 -129 -144 l-55 -38 -37
19 c-22 11 -37 26 -37 37 0 14 -10 20 -41 25 -23 4 -60 19 -83 35 -33 22 -49
27 -83 23 -32 -3 -47 1 -64 17 -25 23 -39 27 -39 11 0 -5 -5 -10 -11 -10 -6 0
-8 9 -4 20 4 11 2 20 -4 20 -6 0 -11 6 -11 14 0 8 -10 14 -25 14 -14 0 -25 -4
-25 -9 0 -20 -40 -12 -95 20 -89 51 -294 260 -324 330 -12 30 -21 65 -18 78 3
17 -3 32 -19 48 -13 13 -26 36 -29 52 -8 38 -31 84 -60 117 -22 25 -24 26 -22
7 1 -12 4 -21 8 -21 3 0 5 -24 4 -52 -2 -29 3 -64 10 -78 7 -14 15 -45 19 -70
4 -24 12 -51 19 -59 7 -8 12 -24 12 -35 0 -14 6 -21 18 -20 12 1 17 -5 17 -22
0 -15 15 -37 40 -60 22 -20 40 -44 40 -53 0 -9 16 -27 35 -40 19 -13 37 -31
40 -41 3 -10 20 -21 39 -24 19 -4 41 -17 49 -29 24 -37 83 -97 94 -97 6 0 32
-21 57 -47 33 -33 54 -46 74 -46 20 0 33 -9 50 -34 12 -19 22 -39 22 -44 0 -6
5 -7 10 -4 6 3 15 3 22 -1 8 -5 6 -10 -8 -14 -10 -4 -25 -3 -31 2 -9 7 -13 7
-13 -2 0 -20 -120 -8 -136 14 -9 14 -20 16 -43 11 -24 -5 -31 -3 -31 8 0 8 -7
18 -16 21 -23 9 -54 7 -54 -2 0 -5 -17 -17 -38 -26 -36 -16 -42 -16 -76 -2
-37 16 -56 14 -56 -5 0 -5 8 -9 18 -9 23 0 42 -19 42 -43 0 -16 -3 -17 -15 -7
-8 6 -19 9 -25 5 -13 -8 -39 23 -40 48 0 9 -6 17 -13 17 -21 0 -48 35 -42 53
4 9 -3 21 -17 31 -19 14 -21 18 -8 26 17 10 14 15 -17 24 -21 7 -21 5 -12 -29
6 -20 8 -39 5 -42 -2 -3 -24 15 -48 40 -24 24 -55 52 -70 62 -16 9 -28 26 -28
37 0 21 -51 78 -69 78 -6 0 -11 15 -11 33 0 22 -9 43 -29 64 -16 18 -32 47
-36 65 -4 18 -13 48 -21 66 -9 18 -18 65 -21 105 -3 40 -10 80 -15 90 -5 10
-4 33 3 59 8 31 8 43 0 46 -6 2 -11 10 -11 18 0 9 5 12 10 9 14 -8 13 -1 -5
42 -9 20 -13 44 -10 54 3 9 1 20 -5 24 -6 4 -10 -5 -11 -22 0 -27 -1 -27 -11
-6 -12 25 3 53 29 53 11 0 14 6 9 23 -4 12 -9 30 -11 40 -5 21 40 73 50 57 9
-15 25 -12 25 5 0 9 -7 18 -15 21 -8 3 -17 22 -21 41 -4 20 -14 37 -23 40 -11
3 -16 15 -16 40 0 30 4 37 22 38 13 1 26 5 30 8 9 10 15 8 35 -7z m3211 -101
c4 -8 2 -17 -2 -20 -5 -2 -11 4 -14 15 -6 23 8 27 16 5z m-4916 -21 c-3 -3
-12 -4 -19 -1 -8 3 -5 6 6 6 11 1 17 -2 13 -5z m3898 -19 c0 -10 -6 -20 -12
-22 -8 -3 -13 5 -13 22 0 17 5 25 13 23 6 -3 12 -13 12 -23z m-2265 6 c0 -6
-4 -13 -10 -16 -5 -3 -10 1 -10 9 0 9 5 16 10 16 6 0 10 -4 10 -9z m-35 -28
c-4 -10 -9 -26 -12 -35 -3 -10 -14 -20 -24 -23 -12 -4 -19 -16 -19 -31 0 -13
-6 -24 -13 -24 -15 0 -51 93 -44 112 3 8 6 5 6 -6 1 -12 6 -16 16 -12 12 4 14
0 8 -22 -6 -24 -5 -26 10 -14 9 8 16 17 15 20 -2 19 3 33 11 28 5 -3 14 1 21
9 17 21 34 19 25 -2z m-1501 -48 c-4 -8 -8 -15 -10 -15 -2 0 -4 7 -4 15 0 8 4
15 10 15 5 0 7 -7 4 -15z m1346 -30 c0 -8 -4 -15 -10 -15 -5 0 -10 7 -10 15 0
8 5 15 10 15 6 0 10 -7 10 -15z m40 -46 c0 -17 -4 -28 -10 -24 -5 3 -10 17
-10 31 0 13 5 24 10 24 6 0 10 -14 10 -31z m-37 -89 c-7 -28 -13 -25 -13 6 0
14 4 23 9 20 5 -3 7 -15 4 -26z m-803 -116 c0 -8 -4 -14 -10 -14 -5 0 -10 9
-10 21 0 11 5 17 10 14 6 -3 10 -13 10 -21z m2350 -20 c0 -8 -4 -12 -10 -9 -5
3 -10 10 -10 16 0 5 5 9 10 9 6 0 10 -7 10 -16z m-2653 -26 c-3 -8 -6 -5 -6 6
-1 11 2 17 5 13 3 -3 4 -12 1 -19z m-86 -153 c-3 -5 -7 0 -9 13 -4 24 -22 28
-52 10 -27 -17 -37 -1 -13 21 34 32 57 30 69 -4 6 -16 8 -34 5 -40z m-32 -11
c3 -16 1 -17 -13 -5 -19 16 -21 34 -3 29 6 -3 14 -13 16 -24z m3049 -31 c-4
-45 -22 -42 -26 4 -3 25 1 33 13 33 13 0 16 -8 13 -37z m-2208 17 c0 -5 -4
-10 -10 -10 -5 0 -10 5 -10 10 0 6 5 10 10 10 6 0 10 -4 10 -10z m2130 -97
c19 0 40 4 46 9 8 6 13 0 16 -17 4 -17 1 -25 -8 -25 -8 0 -14 -5 -14 -10 0 -6
7 -10 16 -8 26 5 28 -19 2 -25 -13 -4 -29 0 -39 9 -10 9 -26 13 -37 10 -22 -8
-52 30 -52 65 0 20 2 21 18 7 9 -8 33 -15 52 -15z m765 -15 c-9 -55 -14 -62
-31 -47 -18 15 -18 39 1 39 9 0 15 9 15 25 0 14 5 25 11 25 7 0 8 -14 4 -42z
m-3735 -103 c0 -8 -7 -15 -15 -15 -8 0 -15 7 -15 15 0 8 7 15 15 15 8 0 15 -7
15 -15z m1010 -31 c0 -8 7 -14 15 -14 8 0 15 -4 15 -10 0 -5 9 -10 20 -10 11
0 20 -5 20 -11 0 -5 4 -8 9 -5 5 4 12 -8 16 -25 12 -52 26 -18 16 37 -5 27 -7
51 -5 53 2 2 4 -1 4 -7 0 -7 5 -12 10 -12 6 0 10 7 10 15 0 8 9 15 20 15 11 0
20 -5 20 -11 0 -5 -4 -8 -9 -4 -5 3 -13 0 -17 -6 -4 -6 1 -16 10 -21 9 -5 14
-13 11 -18 -3 -5 6 -17 20 -26 14 -9 25 -24 25 -33 0 -27 34 -86 49 -86 15 0
23 -12 41 -62 11 -30 49 -51 70 -38 6 3 7 0 4 -8 -7 -20 16 -33 27 -16 4 7 9
11 11 9 2 -3 17 -25 32 -50 16 -25 39 -55 50 -67 12 -13 33 -35 47 -50 14 -16
41 -49 59 -75 22 -32 44 -51 65 -57 17 -4 55 -25 83 -46 42 -30 51 -41 46 -57
-4 -15 -2 -19 7 -16 8 3 14 15 13 27 0 11 3 21 8 21 4 0 8 -6 8 -13 0 -8 11
-24 25 -37 32 -30 32 -42 -1 -36 -25 5 -26 4 -9 -14 29 -32 -12 -114 -50 -100
-11 4 -24 5 -30 3 -5 -2 -2 2 7 9 22 19 8 44 -18 33 -11 -5 -23 -7 -27 -6 -5
1 -6 -3 -3 -8 22 -35 -114 -36 -163 -1 -19 13 -28 26 -24 36 3 8 2 14 -3 13
-22 -5 -67 24 -76 49 -15 40 -56 68 -79 54 -13 -9 -20 -8 -31 5 -10 13 -10 17
0 20 21 8 13 23 -13 23 -17 0 -25 5 -25 18 0 13 -9 18 -41 18 -46 2 -90 35
-82 63 5 19 -14 101 -23 101 -3 0 -19 -9 -34 -20 -32 -22 -34 -20 -51 50 -17
73 -27 104 -28 88 -1 -22 -21 -24 -21 -3 0 8 -6 15 -14 15 -20 0 -31 21 -16
30 18 11 3 30 -36 46 -42 18 -43 34 -4 57 27 16 29 20 15 33 -21 21 -19 41 5
54 19 10 19 11 0 55 -13 31 -15 45 -7 48 16 6 27 -1 27 -19z m90 -24 c0 -5 -4
-10 -10 -10 -5 0 -10 5 -10 10 0 6 5 10 10 10 6 0 10 -4 10 -10z m-1060 -56
c0 -11 6 -13 19 -9 24 7 33 -16 30 -77 -1 -24 2 -67 6 -95 7 -49 6 -53 -13
-53 -12 0 -30 14 -43 33 -13 17 -27 34 -31 35 -16 7 -8 23 10 20 15 -3 17 6
17 62 0 36 -4 73 -9 83 -5 11 -4 17 3 17 6 0 11 -7 11 -16z m730 -9 c14 -16 6
-35 -16 -35 -8 0 -14 10 -14 25 0 28 12 32 30 10z m-40 -25 c0 -5 -2 -10 -4
-10 -3 0 -8 5 -11 10 -3 6 -1 10 4 10 6 0 11 -4 11 -10z m-703 -47 c-3 -10 -5
-2 -5 17 0 19 2 27 5 18 2 -10 2 -26 0 -35z m819 22 c7 -27 0 -55 -13 -55 -11
0 -34 61 -27 71 11 18 34 8 40 -16z m2701 -87 c-3 -8 -6 -5 -6 6 -1 11 2 17 5
13 3 -3 4 -12 1 -19z m-2747 -39 c0 -16 -4 -29 -10 -29 -5 0 -10 16 -10 36 0
21 4 33 10 29 6 -3 10 -19 10 -36z m140 37 c0 -3 -4 -8 -10 -11 -5 -3 -10 -1
-10 4 0 6 5 11 10 11 6 0 10 -2 10 -4z m1491 -139 c-4 -11 -13 -23 -19 -25
-13 -4 -15 11 -6 46 5 17 10 20 20 11 8 -7 10 -18 5 -32z m1149 18 c0 -8 -4
-15 -10 -15 -5 0 -10 7 -10 15 0 8 5 15 10 15 6 0 10 -7 10 -15z m-2570 -26
c0 -5 -7 -9 -15 -9 -8 0 -15 7 -15 15 0 9 6 12 15 9 8 -4 15 -10 15 -15z m54
-5 c3 -8 2 -12 -4 -9 -6 3 -10 10 -10 16 0 14 7 11 14 -7z m1003 0 c-3 -3 -12
-4 -19 -1 -8 3 -5 6 6 6 11 1 17 -2 13 -5z m1420 -87 c-5 -15 -19 -18 -36 -8
-8 5 -11 16 -8 25 5 14 11 15 27 6 12 -6 20 -16 17 -23z m-1832 -57 c18 -20
17 -20 -8 -20 -20 0 -27 5 -27 20 0 11 4 20 8 20 5 0 17 -9 27 -20z m-1510
-40 c3 -5 1 -10 -4 -10 -6 0 -11 5 -11 10 0 6 2 10 4 10 3 0 8 -4 11 -10z
m1279 -179 c3 -5 -4 -11 -16 -14 -25 -7 -33 -3 -23 12 8 13 32 14 39 2z
m-1138 -126 c3 -19 10 -38 15 -41 12 -7 11 -54 -1 -54 -18 0 -43 38 -45 67 -1
15 -5 36 -9 46 -6 13 -3 17 12 17 16 0 23 -8 28 -35z m-189 -67 c-3 -8 -6 -5
-6 6 -1 11 2 17 5 13 3 -3 4 -12 1 -19z m56 -58 c9 0 17 -7 17 -15 0 -18 -11
-19 -45 -3 -14 6 -25 19 -25 31 0 19 1 19 18 4 10 -10 26 -17 35 -17z m117 0
c0 -5 -11 -10 -24 -10 -26 0 -51 -24 -41 -40 3 -5 0 -10 -9 -10 -17 0 -25 18
-18 42 3 12 17 18 46 21 22 2 42 4 44 5 1 1 2 -2 2 -8z m-63 -86 c-3 -3 -12
-4 -19 -1 -8 3 -5 6 6 6 11 1 17 -2 13 -5z m3 -149 c0 -61 -17 -74 -40 -30 -7
14 -22 25 -32 25 -20 0 -23 17 -8 40 9 13 11 13 20 0 5 -8 10 -21 10 -27 0
-26 29 -12 35 17 10 45 15 36 15 -25z m-120 -24 c-5 -11 -10 -29 -10 -40 0
-13 -6 -21 -16 -21 -11 0 -14 5 -10 16 3 9 6 27 6 40 0 17 5 24 20 24 17 0 19
-3 10 -19z m-50 -208 c0 -7 -4 -13 -10 -13 -5 0 -10 12 -10 28 0 21 2 24 10
12 5 -8 10 -21 10 -27z m220 27 c0 -5 -4 -10 -10 -10 -5 0 -10 5 -10 10 0 6 5
10 10 10 6 0 10 -4 10 -10z m-20 -289 c0 -6 -4 -13 -10 -16 -5 -3 -10 1 -10 9
0 9 5 16 10 16 6 0 10 -4 10 -9z m360 -355 c0 -3 -4 -8 -10 -11 -5 -3 -10 -1
-10 4 0 6 5 11 10 11 6 0 10 -2 10 -4z m-390 -396 c0 -5 -2 -10 -4 -10 -3 0
-8 5 -11 10 -3 6 -1 10 4 10 6 0 11 -4 11 -10z m810 0 c0 -5 -10 -10 -22 -10
-19 0 -20 2 -8 10 19 13 30 13 30 0z m658 -111 c4 -20 -123 -48 -141 -30 -13
13 -12 15 43 34 54 19 94 18 98 -4z m317 -179 c3 -6 -1 -13 -9 -16 -9 -3 -16
-18 -16 -33 l-1 -26 -15 28 c-12 22 -13 31 -3 43 13 16 35 18 44 4z m425 -56
c0 -8 -4 -12 -10 -9 -5 3 -10 10 -10 16 0 5 5 9 10 9 6 0 10 -7 10 -16z m10
-55 c0 -11 -4 -17 -10 -14 -5 3 -10 15 -10 26 0 11 5 17 10 14 6 -3 10 -15 10
-26z m-26 -25 c24 -23 20 -44 -8 -44 -30 0 -37 9 -29 38 6 26 16 28 37 6z
m-64 -94 c0 -5 -2 -10 -4 -10 -3 0 -8 5 -11 10 -3 6 -1 10 4 10 6 0 11 -4 11
-10z m330 -265 c0 -23 -3 -27 -10 -15 -5 8 -10 29 -10 45 0 23 3 27 10 15 5
-8 10 -28 10 -45z"/>
<path d="M7930 8490 c0 -6 7 -10 15 -10 8 0 15 2 15 4 0 2 -7 6 -15 10 -8 3
-15 1 -15 -4z"/>
<path d="M6780 7640 c0 -20 25 -38 36 -27 8 7 -15 47 -26 47 -6 0 -10 -9 -10
-20z"/>
<path d="M5960 7155 c0 -8 2 -15 4 -15 2 0 6 7 10 15 3 8 1 15 -4 15 -6 0 -10
-7 -10 -15z"/>
<path d="M5282 6545 c-10 -22 -9 -25 8 -25 21 0 26 16 12 38 -6 9 -12 6 -20
-13z"/>
<path d="M5237 6500 c-3 -11 -1 -20 4 -20 5 0 9 9 9 20 0 11 -2 20 -4 20 -2 0
-6 -9 -9 -20z"/>
<path d="M6145 6449 c-10 -15 3 -25 16 -12 7 7 7 13 1 17 -6 3 -14 1 -17 -5z"/>
<path d="M5960 6390 c0 -5 5 -10 10 -10 6 0 10 5 10 10 0 6 -4 10 -10 10 -5 0
-10 -4 -10 -10z"/>
<path d="M6006 6255 c-4 -14 -2 -35 4 -46 19 -34 141 -150 205 -193 33 -22 68
-51 78 -63 10 -13 23 -23 29 -23 5 0 21 -9 35 -20 14 -11 34 -20 44 -20 10 0
23 -8 28 -19 8 -13 27 -21 68 -26 32 -4 63 -11 69 -16 6 -5 33 -10 61 -13 27
-2 58 -8 69 -14 11 -6 49 -8 86 -5 51 3 73 1 90 -11 29 -21 48 -20 48 2 0 25
-46 44 -76 30 -28 -13 -42 -5 -25 16 9 11 4 17 -31 31 -90 36 -129 44 -199 38
-49 -4 -69 -10 -69 -19 0 -33 -69 8 -83 49 -6 15 -47 24 -82 17 -5 -1 -7 2 -3
5 12 12 -11 45 -31 45 -10 0 -24 6 -31 14 -6 8 -21 16 -32 18 -12 2 -28 17
-37 35 -9 18 -21 33 -26 33 -6 0 -18 8 -27 18 -27 28 -44 40 -63 43 -11 3 -23
19 -29 41 -6 20 -23 46 -37 57 l-27 21 -6 -25z"/>
<path d="M6466 6082 c-11 -19 135 -109 189 -116 50 -7 85 -24 79 -39 -6 -17
22 -31 32 -16 8 13 -25 49 -45 49 -10 0 -17 9 -17 26 -1 14 -12 33 -25 42 -12
9 -31 24 -41 34 -10 10 -24 18 -30 18 -9 0 -8 -4 2 -10 13 -8 12 -10 -3 -10
-10 0 -26 4 -35 9 -27 14 -99 23 -106 13z"/>
<path d="M5050 5826 c0 -9 7 -16 16 -16 17 0 14 22 -4 28 -7 2 -12 -3 -12 -12z"/>
<path d="M6920 5750 c0 -5 5 -10 10 -10 6 0 10 5 10 10 0 6 -4 10 -10 10 -5 0
-10 -4 -10 -10z"/>
<path d="M9293 5580 c-3 -11 -14 -20 -24 -20 -30 0 -22 -17 12 -29 18 -6 34
-11 35 -11 2 0 4 18 4 40 0 42 -18 55 -27 20z"/>
<path d="M5106 5575 c-9 -24 -7 -57 3 -51 13 8 20 42 11 56 -5 8 -9 7 -14 -5z"/>
<path d="M9635 5570 c-3 -5 -1 -10 4 -10 6 0 11 5 11 10 0 6 -2 10 -4 10 -3 0
-8 -4 -11 -10z"/>
<path d="M9190 5555 c0 -8 6 -15 14 -15 22 0 28 17 10 24 -22 9 -24 8 -24 -9z"/>
<path d="M9560 5558 c0 -9 -4 -18 -9 -20 -5 -1 -3 -8 4 -15 6 -6 18 -7 25 -3
10 6 9 13 -4 31 -12 18 -16 19 -16 7z"/>
<path d="M6992 5500 c0 -14 2 -19 5 -12 2 6 2 18 0 25 -3 6 -5 1 -5 -13z"/>
<path d="M7044 5449 c-3 -6 0 -15 7 -20 18 -11 21 -11 39 1 13 9 13 11 0 20
-20 13 -37 13 -46 -1z"/>
<path d="M9311 5334 c0 -11 3 -14 6 -6 3 7 2 16 -1 19 -3 4 -6 -2 -5 -13z"/>
<path d="M5138 5323 c7 -3 16 -2 19 1 4 3 -2 6 -13 5 -11 0 -14 -3 -6 -6z"/>
<path d="M6788 5299 c-16 -11 -28 -29 -28 -39 0 -17 3 -17 26 -6 25 14 53 44
54 59 0 13 -25 7 -52 -14z"/>
<path d="M5343 4865 c-17 -7 -34 -11 -37 -8 -3 3 -24 7 -46 9 -48 4 -62 -14
-33 -43 23 -23 61 -23 78 0 11 15 13 16 19 2 3 -8 12 -15 21 -15 18 0 19 -11
3 -29 -11 -11 -6 -13 28 -8 22 2 48 0 58 -5 11 -6 22 -6 31 2 8 7 21 10 28 7
9 -3 13 7 14 34 1 26 -2 39 -10 37 -21 -3 -97 13 -103 23 -7 12 -12 11 -51 -6z"/>
<path d="M5549 4815 c-1 -3 -2 -8 -3 -12 -1 -5 -5 -14 -10 -21 -13 -22 1 -25
22 -6 17 16 18 21 6 32 -8 7 -15 10 -15 7z"/>
<path d="M5000 4789 c0 -5 5 -7 10 -4 6 3 10 8 10 11 0 2 -4 4 -10 4 -5 0 -10
-5 -10 -11z"/>
<path d="M5660 4780 c0 -5 5 -10 10 -10 6 0 10 5 10 10 0 6 -4 10 -10 10 -5 0
-10 -4 -10 -10z"/>
<path d="M5260 4770 c0 -5 5 -10 11 -10 5 0 7 5 4 10 -3 6 -8 10 -11 10 -2 0
-4 -4 -4 -10z"/>
<path d="M5212 4764 c9 -3 19 -15 22 -27 4 -18 4 -18 3 3 -1 17 -8 25 -22 27
-14 1 -15 0 -3 -3z"/>
<path d="M5294 4691 c23 -26 25 -26 22 -3 -2 9 -11 19 -22 21 -19 3 -19 3 0
-18z"/>
<path d="M5533 4680 c0 -18 6 -30 14 -30 8 0 13 12 13 30 0 18 -5 30 -13 30
-8 0 -14 -12 -14 -30z"/>
<path d="M5368 4658 c23 -24 36 -21 26 6 -3 9 -16 16 -27 16 l-21 0 22 -22z"/>
<path d="M5305 4630 c-3 -5 -1 -10 4 -10 6 0 11 5 11 10 0 6 -2 10 -4 10 -3 0
-8 -4 -11 -10z"/>
<path d="M5337 4634 c-3 -4 1 -20 9 -36 19 -36 26 -32 18 10 -6 31 -14 39 -27
26z"/>
<path d="M5175 4590 c3 -5 8 -10 11 -10 2 0 4 5 4 10 0 6 -5 10 -11 10 -5 0
-7 -4 -4 -10z"/>
<path d="M5471 4587 c-6 -8 -8 -17 -4 -20 7 -8 33 11 33 24 0 13 -16 11 -29
-4z"/>
<path d="M5410 4535 c0 -16 12 -18 48 -9 34 10 26 24 -13 24 -24 0 -35 -5 -35
-15z"/>
<path d="M5500 4532 c0 -14 11 -21 26 -15 8 3 11 9 8 14 -7 11 -34 12 -34 1z"/>
<path d="M5360 4470 c0 -5 17 -10 38 -9 30 0 33 2 17 9 -28 12 -55 12 -55 0z"/>
<path d="M6040 4420 c0 -5 7 -10 15 -10 8 0 15 5 15 10 0 6 -7 10 -15 10 -8 0
-15 -4 -15 -10z"/>
<path d="M5160 7159 c0 -5 5 -7 10 -4 6 3 10 8 10 11 0 2 -4 4 -10 4 -5 0 -10
-5 -10 -11z"/>
<path d="M5154 7120 c0 -10 7 -17 15 -15 22 3 25 22 4 27 -13 3 -19 0 -19 -12z"/>
<path d="M5150 7011 c0 -6 4 -13 10 -16 6 -3 7 1 4 9 -7 18 -14 21 -14 7z"/>
<path d="M6720 6911 c0 -10 22 -31 32 -31 17 0 7 28 -12 33 -11 3 -20 2 -20
-2z"/>
<path d="M8120 4671 c0 -6 4 -13 10 -16 6 -3 7 1 4 9 -7 18 -14 21 -14 7z"/>
<path d="M7920 4483 c0 -4 5 -15 10 -23 7 -11 12 -12 21 -3 8 8 6 14 -10 22
-12 7 -21 8 -21 4z"/>
<path d="M7880 4439 c0 -11 4 -18 10 -14 5 3 7 12 3 20 -7 21 -13 19 -13 -6z"/>
<path d="M8177 3808 c-17 -9 -17 -12 -3 -33 9 -13 13 -31 10 -39 -4 -10 -1
-16 8 -16 11 0 15 12 13 45 -1 52 -4 57 -28 43z"/>
<path d="M7441 3654 c0 -11 3 -14 6 -6 3 7 2 16 -1 19 -3 4 -6 -2 -5 -13z"/>
<path d="M7560 3526 c0 -2 7 -6 15 -10 8 -3 15 -1 15 4 0 6 -7 10 -15 10 -8 0
-15 -2 -15 -4z"/>
<path d="M7882 3500 c0 -14 2 -19 5 -12 2 6 2 18 0 25 -3 6 -5 1 -5 -13z"/>
<path d="M5037 4373 c-3 -2 -2 -13 0 -24 7 -23 35 -21 39 3 2 15 -29 32 -39
21z"/>
<path d="M5160 4039 c0 -5 5 -7 10 -4 6 3 10 8 10 11 0 2 -4 4 -10 4 -5 0 -10
-5 -10 -11z"/>
<path d="M5143 3940 c-9 -67 -9 -117 2 -280 4 -52 8 -113 9 -135 4 -69 6 -74
25 -80 27 -8 48 3 55 31 6 23 26 34 26 14 0 -5 5 -10 11 -10 14 0 5 70 -10 79
-6 4 -10 15 -10 26 0 60 -11 164 -20 193 -7 24 -7 34 2 37 7 2 29 9 50 15 51
16 42 35 -17 33 l-46 -1 0 71 0 72 -34 0 -34 0 -9 -65z"/>
<path d="M5440 3270 c0 -5 7 -7 15 -4 8 4 15 8 15 10 0 2 -7 4 -15 4 -8 0 -15
-4 -15 -10z"/>
<path d="M6595 3550 c3 -5 8 -10 11 -10 2 0 4 5 4 10 0 6 -5 10 -11 10 -5 0
-7 -4 -4 -10z"/>
<path d="M4630 3330 c0 -6 -8 -11 -17 -11 -10 -1 0 -5 22 -8 25 -4 45 -2 53 6
17 17 16 18 -23 20 -19 2 -35 -2 -35 -7z"/>
<path d="M4692 3171 c2 -7 7 -12 11 -12 12 1 9 15 -3 20 -7 2 -11 -2 -8 -8z"/>
<path d="M3415 12150 c-8 -13 20 -24 41 -16 20 8 9 26 -16 26 -10 0 -22 -5
-25 -10z"/>
<path d="M4476 12141 c-4 -7 -5 -15 -2 -18 9 -9 19 4 14 18 -4 11 -6 11 -12 0z"/>
<path d="M3568 12123 c7 -3 16 -2 19 1 4 3 -2 6 -13 5 -11 0 -14 -3 -6 -6z"/>
<path d="M3480 12109 c0 -5 5 -7 10 -4 6 3 10 8 10 11 0 2 -4 4 -10 4 -5 0
-10 -5 -10 -11z"/>
<path d="M4020 12111 c0 -5 -9 -13 -20 -16 -25 -8 -26 -22 -1 -30 10 -3 22
-16 26 -28 6 -21 7 -20 15 8 5 17 12 40 15 53 6 18 4 22 -14 22 -11 0 -21 -4
-21 -9z"/>
<path d="M3704 12089 c-3 -6 -1 -16 5 -22 8 -8 11 -5 11 11 0 24 -5 28 -16 11z"/>
<path d="M3400 12070 c0 -5 18 -10 40 -10 22 0 43 0 47 -1 4 0 9 4 11 10 2 7
-15 11 -47 11 -28 0 -51 -4 -51 -10z"/>
<path d="M4300 12066 c0 -9 5 -16 10 -16 6 0 10 4 10 9 0 6 -4 13 -10 16 -5 3
-10 -1 -10 -9z"/>
<path d="M4150 12055 c0 -8 -5 -15 -11 -15 -5 0 -7 -4 -4 -10 12 -20 35 -10
35 15 0 14 -4 25 -10 25 -5 0 -10 -7 -10 -15z"/>
<path d="M3340 12030 c0 -5 9 -10 19 -10 11 0 23 5 26 10 4 6 -5 10 -19 10
-14 0 -26 -4 -26 -10z"/>
<path d="M3720 11999 c0 -12 29 -38 43 -39 15 0 6 30 -12 40 -25 13 -31 13
-31 -1z"/>
<path d="M4185 11991 c-3 -5 -1 -12 5 -16 5 -3 10 1 10 9 0 18 -6 21 -15 7z"/>
<path d="M3425 11980 c-4 -6 -15 -8 -26 -5 -11 4 -19 2 -19 -4 0 -6 16 -11 35
-11 26 0 33 3 29 15 -7 18 -11 19 -19 5z"/>
<path d="M3292 11940 c10 -15 10 -24 1 -38 -7 -12 -8 -24 -2 -33 8 -13 13 -5
10 15 -1 4 10 23 24 42 20 26 22 34 11 34 -9 0 -16 -8 -16 -17 -1 -17 -1 -17
-14 0 -18 24 -29 22 -14 -3z"/>
<path d="M3066 11922 c-10 -17 12 -62 31 -62 7 0 13 5 13 11 0 8 14 10 43 6
23 -3 37 -4 30 -1 -7 3 -10 11 -7 19 3 7 1 16 -5 20 -6 3 -11 -1 -11 -9 0 -12
-10 -16 -39 -16 -33 0 -40 4 -43 23 -2 16 -5 19 -12 9z"/>
<path d="M3018 11813 c-2 -4 -3 -19 -3 -33 0 -20 5 -25 25 -25 21 0 25 5 25
30 -1 23 -6 31 -22 33 -12 2 -23 0 -25 -5z"/>
<path d="M2944 11795 c8 -8 17 -15 20 -15 3 0 6 7 6 15 0 9 -9 15 -21 15 -18
0 -19 -2 -5 -15z"/>
<path d="M3145 11710 c3 -5 8 -10 11 -10 2 0 4 5 4 10 0 6 -5 10 -11 10 -5 0
-7 -4 -4 -10z"/>
<path d="M2920 11680 c0 -5 7 -10 15 -10 8 0 15 5 15 10 0 6 -7 10 -15 10 -8
0 -15 -4 -15 -10z"/>
<path d="M3050 11680 c0 -5 7 -10 15 -10 8 0 15 5 15 10 0 6 -7 10 -15 10 -8
0 -15 -4 -15 -10z"/>
<path d="M3320 11610 c0 -32 9 -37 28 -18 7 7 8 17 1 30 -15 27 -29 22 -29
-12z"/>
<path d="M2935 11585 c21 -17 37 -15 43 3 2 8 -8 12 -30 12 -31 -1 -32 -1 -13
-15z"/>
<path d="M2790 11520 c0 -29 4 -40 15 -40 11 0 15 11 15 40 0 29 -4 40 -15 40
-11 0 -15 -11 -15 -40z"/>
<path d="M2843 11528 c2 -7 12 -13 22 -13 10 0 20 6 23 13 2 7 -6 12 -23 12
-17 0 -25 -5 -22 -12z"/>
<path d="M2693 11483 c9 -2 23 -2 30 0 6 3 -1 5 -18 5 -16 0 -22 -2 -12 -5z"/>
<path d="M2630 11455 c0 -8 5 -15 10 -15 6 0 10 7 10 15 0 8 -4 15 -10 15 -5
0 -10 -7 -10 -15z"/>
<path d="M2772 11443 c-19 -8 -3 -23 25 -23 21 0 24 2 13 15 -13 16 -17 17
-38 8z"/>
<path d="M3188 11418 c9 -9 15 -9 24 0 9 9 7 12 -12 12 -19 0 -21 -3 -12 -12z"/>
<path d="M2838 11393 c7 -3 16 -2 19 1 4 3 -2 6 -13 5 -11 0 -14 -3 -6 -6z"/>
<path d="M2280 11346 c0 -9 7 -12 20 -9 11 3 20 9 20 14 0 5 -9 9 -20 9 -11 0
-20 -6 -20 -14z"/>
<path d="M2868 11338 c9 -9 15 -9 24 0 9 9 7 12 -12 12 -19 0 -21 -3 -12 -12z"/>
<path d="M2388 11323 c6 -2 18 -2 25 0 6 3 1 5 -13 5 -14 0 -19 -2 -12 -5z"/>
<path d="M2761 11254 c0 -11 3 -14 6 -6 3 7 2 16 -1 19 -3 4 -6 -2 -5 -13z"/>
<path d="M2376 11224 c-9 -22 -8 -24 9 -24 8 0 15 9 15 20 0 24 -15 27 -24 4z"/>
<path d="M3066 11222 c-3 -6 -1 -14 5 -17 14 -9 20 -2 10 14 -6 8 -11 9 -15 3z"/>
<path d="M2410 11181 c0 -11 -5 -21 -12 -23 -17 -6 0 -28 23 -28 10 0 19 7 19
15 0 8 -5 15 -11 15 -5 0 -7 5 -4 11 4 5 17 9 28 8 35 -2 43 1 27 11 -8 5 -27
10 -42 10 -21 0 -28 -5 -28 -19z"/>
<path d="M2468 11068 c9 -9 15 -9 24 0 9 9 7 12 -12 12 -19 0 -21 -3 -12 -12z"/>
<path d="M2440 10989 c0 -5 5 -7 10 -4 6 3 10 8 10 11 0 2 -4 4 -10 4 -5 0
-10 -5 -10 -11z"/>
<path d="M2505 10990 c3 -5 8 -10 11 -10 2 0 4 5 4 10 0 6 -5 10 -11 10 -5 0
-7 -4 -4 -10z"/>
<path d="M2570 10930 c0 -5 7 -10 15 -10 8 0 15 5 15 10 0 6 -7 10 -15 10 -8
0 -15 -4 -15 -10z"/>
<path d="M897 10783 c-12 -11 -8 -23 8 -23 8 0 15 -7 15 -15 0 -11 11 -15 40
-15 37 0 40 2 40 27 0 21 -3 24 -12 15 -16 -16 -43 -15 -58 3 -14 16 -23 19
-33 8z"/>
<path d="M760 10744 c0 -22 4 -25 28 -22 19 2 26 8 24 20 -1 9 5 19 15 21 10
3 -1 5 -24 6 -40 1 -43 -1 -43 -25z"/>
<path d="M2928 10763 c7 -3 16 -2 19 1 4 3 -2 6 -13 5 -11 0 -14 -3 -6 -6z"/>
<path d="M655 10750 c3 -5 10 -10 16 -10 5 0 9 5 9 10 0 6 -7 10 -16 10 -8 0
-12 -4 -9 -10z"/>
<path d="M1320 10720 c0 -13 5 -20 13 -17 6 2 12 10 12 17 0 7 -6 15 -12 18
-8 2 -13 -5 -13 -18z"/>
<path d="M655 10690 c-3 -5 1 -10 9 -10 9 0 16 5 16 10 0 6 -4 10 -9 10 -6 0
-13 -4 -16 -10z"/>
<path d="M835 10694 c-6 -2 -9 -24 -7 -49 3 -36 1 -45 -12 -45 -10 0 -13 -6
-9 -17 14 -43 83 -61 83 -23 0 14 -7 20 -23 20 -20 0 -24 5 -25 32 0 18 6 41
15 50 11 12 12 18 4 18 -7 0 -9 5 -6 10 6 10 -2 12 -20 4z"/>
<path d="M1375 10690 c-3 -5 3 -10 15 -10 12 0 18 5 15 10 -3 6 -10 10 -15 10
-5 0 -12 -4 -15 -10z"/>
<path d="M747 10683 c-17 -4 -17 -7 -4 -21 8 -10 17 -28 20 -42 2 -14 5 -5 6
23 0 26 0 46 -1 46 -2 -1 -11 -3 -21 -6z"/>
<path d="M933 10683 c9 -2 17 -8 17 -13 0 -8 39 -23 54 -21 4 1 14 -4 22 -10
17 -14 19 -12 28 17 6 19 2 22 -40 28 -53 7 -110 6 -81 -1z"/>
<path d="M218 10661 c-22 -21 -23 -31 -4 -31 7 0 21 11 30 25 20 30 1 34 -26
6z"/>
<path d="M2040 10651 c0 -12 9 -21 26 -25 35 -9 38 -4 14 22 -25 27 -40 28
-40 3z"/>
<path d="M1480 10640 c0 -5 18 -10 40 -10 22 0 40 5 40 10 0 6 -18 10 -40 10
-22 0 -40 -4 -40 -10z"/>
<path d="M1640 10626 c0 -9 17 -15 53 -19 60 -6 70 -1 43 19 -26 19 -96 19
-96 0z"/>
<path d="M1847 10634 c-9 -10 2 -24 19 -24 8 0 14 7 14 15 0 15 -21 21 -33 9z"/>
<path d="M2220 10622 c0 -11 7 -25 16 -33 13 -10 17 -10 25 2 14 22 6 44 -19
47 -16 3 -22 -2 -22 -16z"/>
<path d="M715 10590 c4 -6 11 -8 16 -5 14 9 11 15 -7 15 -8 0 -12 -5 -9 -10z"/>
<path d="M1358 10575 c-4 -21 -1 -25 18 -25 27 0 28 3 14 31 -14 26 -27 24
-32 -6z"/>
<path d="M1432 10588 c7 -20 48 -23 48 -4 0 11 -9 16 -26 16 -16 0 -24 -5 -22
-12z"/>
<path d="M1641 10584 c0 -11 3 -14 6 -6 3 7 2 16 -1 19 -3 4 -6 -2 -5 -13z"/>
<path d="M1528 10578 c-36 -13 -35 -23 2 -37 29 -10 30 -9 30 20 0 16 -1 29
-2 28 -2 0 -15 -5 -30 -11z"/>
<path d="M1750 10575 c0 -8 5 -15 10 -15 6 0 10 7 10 15 0 8 -4 15 -10 15 -5
0 -10 -7 -10 -15z"/>
<path d="M1265 10570 c4 -6 11 -8 16 -5 14 9 11 15 -7 15 -8 0 -12 -5 -9 -10z"/>
<path d="M2191 10565 c1 -19 18 -51 18 -35 0 8 -4 22 -9 30 -5 8 -9 11 -9 5z"/>
<path d="M1005 10550 c-3 -6 5 -10 19 -10 13 0 31 -3 40 -6 11 -4 16 -1 16 10
0 12 -9 16 -34 16 -19 0 -38 -4 -41 -10z"/>
<path d="M1711 10534 c0 -11 3 -14 6 -6 3 7 2 16 -1 19 -3 4 -6 -2 -5 -13z"/>
<path d="M2360 10530 c0 -11 7 -20 15 -20 13 0 14 4 5 20 -6 11 -13 20 -15 20
-3 0 -5 -9 -5 -20z"/>
<path d="M1340 10531 c0 -10 19 -25 25 -20 1 2 -3 10 -11 17 -8 7 -14 8 -14 3z"/>
<path d="M1270 10526 c0 -2 11 -6 25 -8 14 -3 25 -1 25 3 0 5 -11 9 -25 9 -14
0 -25 -2 -25 -4z"/>
<path d="M2258 10523 c7 -3 16 -2 19 1 4 3 -2 6 -13 5 -11 0 -14 -3 -6 -6z"/>
<path d="M987 10502 c-13 -14 -15 -22 -7 -27 16 -10 33 9 28 30 -3 16 -5 15
-21 -3z"/>
<path d="M1100 10513 c-20 -7 -50 -34 -50 -45 0 -15 27 -8 45 12 20 22 30 19
30 -8 0 -10 6 -15 15 -13 8 2 23 4 33 5 9 0 17 8 17 17 0 12 -7 15 -25 11 -18
-3 -25 0 -25 12 0 16 -13 19 -40 9z"/>
<path d="M1590 10510 c0 -5 5 -10 10 -10 6 0 10 5 10 10 0 6 -4 10 -10 10 -5
0 -10 -4 -10 -10z"/>
<path d="M1778 10513 c7 -3 16 -2 19 1 4 3 -2 6 -13 5 -11 0 -14 -3 -6 -6z"/>
<path d="M1888 10513 c7 -3 16 -2 19 1 4 3 -2 6 -13 5 -11 0 -14 -3 -6 -6z"/>
<path d="M760 10494 c0 -8 10 -14 25 -14 22 0 38 19 18 21 -5 0 -16 2 -25 4
-10 2 -18 -3 -18 -11z"/>
<path d="M1225 10490 c-4 -6 -3 -16 3 -22 6 -6 12 -6 17 2 4 6 3 16 -3 22 -6
6 -12 6 -17 -2z"/>
<path d="M1348 10463 c7 -3 16 -2 19 1 4 3 -2 6 -13 5 -11 0 -14 -3 -6 -6z"/>
<path d="M2316 10455 c-4 -12 3 -15 37 -14 28 1 33 3 17 6 -14 3 -30 9 -36 14
-8 6 -14 4 -18 -6z"/>
<path d="M1030 10430 c0 -5 5 -10 10 -10 6 0 10 5 10 10 0 6 -4 10 -10 10 -5
0 -10 -4 -10 -10z"/>
<path d="M1240 10429 c0 -5 5 -7 10 -4 6 3 10 8 10 11 0 2 -4 4 -10 4 -5 0
-10 -5 -10 -11z"/>
<path d="M2264 10409 c-3 -6 -1 -16 5 -22 8 -8 11 -5 11 11 0 24 -5 28 -16 11z"/>
<path d="M2346 10331 c-4 -7 -5 -15 -2 -18 9 -9 19 4 14 18 -4 11 -6 11 -12 0z"/>
<path d="M2470 10299 c0 -5 5 -7 10 -4 6 3 10 8 10 11 0 2 -4 4 -10 4 -5 0
-10 -5 -10 -11z"/>
<path d="M1276 6684 c-8 -20 1 -34 20 -34 8 0 14 10 14 25 0 28 -24 34 -34 9z"/>
<path d="M1187 6575 c-7 -16 8 -29 23 -20 10 6 2 35 -10 35 -4 0 -10 -7 -13
-15z"/>
<path d="M1138 6522 c-10 -2 -18 -8 -18 -13 0 -11 11 -11 30 1 18 11 11 18
-12 12z"/>
<path d="M1080 6479 c0 -5 5 -7 10 -4 6 3 10 8 10 11 0 2 -4 4 -10 4 -5 0 -10
-5 -10 -11z"/>
<path d="M1115 6463 l-30 -17 37 -9 c26 -6 38 -15 41 -30 3 -18 5 -17 6 6 1
19 -4 27 -16 27 -13 0 -14 3 -5 12 13 13 16 28 5 28 -5 -1 -21 -8 -38 -17z"/>
<path d="M1210 6425 c0 -8 2 -15 4 -15 2 0 6 7 10 15 3 8 1 15 -4 15 -6 0 -10
-7 -10 -15z"/>
<path d="M1270 6400 c0 -29 -4 -40 -15 -40 -8 0 -15 -5 -15 -11 0 -6 10 -9 23
-7 19 3 22 10 25 51 2 28 -1 47 -7 47 -6 0 -11 -18 -11 -40z"/>
<path d="M1138 6363 c7 -3 16 -2 19 1 4 3 -2 6 -13 5 -11 0 -14 -3 -6 -6z"/>
<path d="M1060 6271 c0 -6 5 -13 10 -16 6 -3 10 1 10 9 0 9 -4 16 -10 16 -5 0
-10 -4 -10 -9z"/>
<path d="M1160 6266 c0 -9 -8 -12 -26 -8 -20 4 -25 1 -22 -9 3 -8 15 -13 26
-12 14 2 22 -4 25 -20 2 -12 5 -3 6 21 0 23 -1 42 -4 42 -3 0 -5 -6 -5 -14z"/>
<path d="M1233 6240 c0 -25 2 -35 4 -22 2 12 2 32 0 45 -2 12 -4 2 -4 -23z"/>
<path d="M1028 6155 c-2 -31 1 -46 10 -50 22 -8 42 -6 42 5 0 6 -7 10 -15 10
-11 0 -15 11 -15 40 0 55 -17 51 -22 -5z"/>
<path d="M1110 6090 c0 -5 5 -10 10 -10 6 0 10 5 10 10 0 6 -4 10 -10 10 -5 0
-10 -4 -10 -10z"/>
<path d="M1150 6050 c0 -5 5 -10 11 -10 5 0 7 5 4 10 -3 6 -8 10 -11 10 -2 0
-4 -4 -4 -10z"/>
<path d="M1064 5929 c-3 -6 -1 -16 5 -22 8 -8 11 -5 11 11 0 24 -5 28 -16 11z"/>
<path d="M1085 5890 c-4 -6 5 -10 19 -10 14 0 26 5 26 10 0 6 -9 10 -19 10
-11 0 -23 -4 -26 -10z"/>
<path d="M985 5820 c3 -5 8 -10 11 -10 2 0 4 5 4 10 0 6 -5 10 -11 10 -5 0 -7
-4 -4 -10z"/>
<path d="M1050 5810 c0 -5 7 -10 15 -10 8 0 15 5 15 10 0 6 -7 10 -15 10 -8 0
-15 -4 -15 -10z"/>
<path d="M1000 5787 c0 -10 -7 -25 -15 -33 -18 -19 -20 -46 -2 -42 17 3 57
-12 57 -22 0 -4 9 -6 20 -3 14 4 20 0 20 -13 0 -9 3 -15 6 -11 14 14 -9 45
-36 51 -25 4 -30 11 -30 33 0 16 -5 35 -10 43 -8 13 -10 12 -10 -3z"/>
<path d="M2440 4690 c0 -5 5 -10 10 -10 6 0 10 5 10 10 0 6 -4 10 -10 10 -5 0
-10 -4 -10 -10z"/>
<path d="M3237 4206 c-4 -10 -1 -13 8 -9 8 3 12 9 9 14 -7 12 -11 11 -17 -5z"/>
<path d="M3420 3652 c0 -10 6 -27 14 -38 14 -19 15 -19 22 0 5 12 3 21 -4 24
-7 2 -12 10 -12 18 0 8 -4 14 -10 14 -5 0 -10 -8 -10 -18z"/>
<path d="M3660 3553 c0 -5 5 -15 10 -23 8 -12 10 -11 10 8 0 12 -4 22 -10 22
-5 0 -10 -3 -10 -7z"/>
<path d="M3470 3384 c0 -9 7 -14 17 -12 25 5 28 28 4 28 -12 0 -21 -6 -21 -16z"/>
<path d="M3510 2990 c0 -5 9 -10 19 -10 11 0 23 5 26 10 4 6 -5 10 -19 10 -14
0 -26 -4 -26 -10z"/>
<path d="M3522 2904 c-22 -15 -27 -38 -16 -68 8 -21 16 -20 42 4 12 12 23 16
27 10 17 -27 51 16 40 51 -7 21 -7 21 -31 -2 l-24 -22 0 21 c0 26 -8 27 -38 6z"/>
<path d="M3449 2793 c5 -10 14 -29 19 -43 l11 -25 0 25 c0 24 -19 60 -33 60
-3 0 -2 -8 3 -17z"/>
<path d="M3640 2774 c0 -8 5 -12 10 -9 6 3 10 10 10 16 0 5 -4 9 -10 9 -5 0
-10 -7 -10 -16z"/>
<path d="M3561 2658 c-1 -49 3 -55 29 -38 12 8 12 11 -2 27 -9 10 -18 27 -21
38 -2 11 -5 -1 -6 -27z"/>
<path d="M3420 1949 c0 -5 5 -7 10 -4 6 3 10 8 10 11 0 2 -4 4 -10 4 -5 0 -10
-5 -10 -11z"/>
<path d="M4750 670 c-22 -14 0 -30 28 -19 12 4 22 13 22 19 0 13 -30 13 -50 0z"/>
<path d="M5137 599 c7 -7 15 -10 18 -7 3 3 -2 9 -12 12 -14 6 -15 5 -6 -5z"/>
<path d="M4700 596 c0 -9 30 -14 35 -6 4 6 -3 10 -14 10 -12 0 -21 -2 -21 -4z"/>
<path d="M5040 580 c0 -5 9 -10 20 -10 11 0 20 5 20 10 0 6 -9 10 -20 10 -11
0 -20 -4 -20 -10z"/>
<path d="M5036 481 c-3 -4 -19 -11 -36 -14 -49 -10 -37 -31 13 -23 46 8 63 19
53 35 -9 13 -23 14 -30 2z"/>
<path d="M5372 391 c2 -10 14 -16 33 -16 17 0 36 -4 43 -8 9 -7 10 -3 1 16 -9
20 -18 25 -45 24 -26 -1 -34 -5 -32 -16z"/>
<path d="M5020 380 c-8 -15 -7 -21 8 -29 14 -7 25 -4 45 13 35 30 34 36 -8 36
-24 0 -37 -6 -45 -20z"/>
<path d="M4800 340 c0 -5 9 -10 21 -10 11 0 17 5 14 10 -3 6 -13 10 -21 10 -8
0 -14 -4 -14 -10z"/>
<path d="M5523 343 c-19 -7 -16 -21 14 -59 30 -40 43 -34 36 14 -5 33 -28 53
-50 45z"/>
<path d="M5652 316 c-16 -8 -21 -17 -18 -31 3 -11 6 -27 6 -35 0 -11 3 -11 12
-2 7 7 25 12 40 12 15 0 28 4 28 10 0 5 8 7 18 4 13 -5 14 -4 3 4 -8 6 -20 8
-27 5 -8 -3 -16 5 -20 21 -7 28 -8 29 -42 12z"/>
<path d="M5600 205 c0 -8 5 -15 10 -15 6 0 10 7 10 15 0 8 -4 15 -10 15 -5 0
-10 -7 -10 -15z"/>
<path d="M5560 155 c0 -21 28 -31 43 -16 9 9 8 14 -3 21 -22 14 -40 12 -40 -5z"/>
<path d="M5986 141 c-4 -7 -5 -15 -2 -18 9 -9 19 4 14 18 -4 11 -6 11 -12 0z"/>
<path d="M6070 121 c0 -10 7 -24 15 -31 21 -17 107 14 98 36 -6 16 -63 20 -63
4 0 -5 5 -10 11 -10 5 0 7 -5 4 -10 -4 -7 -14 -3 -25 10 -22 25 -40 26 -40 1z"/>
<path d="M6180 70 c0 -5 5 -10 10 -10 6 0 10 5 10 10 0 6 -4 10 -10 10 -5 0
-10 -4 -10 -10z"/>
<path d="M6242 23 c2 -10 10 -18 18 -18 8 0 16 8 18 18 2 12 -3 17 -18 17 -15
0 -20 -5 -18 -17z"/>
</g>
</svg>
