<?xml version="1.0" standalone="no"?>
<!DOCTYPE svg PUBLIC "-//W3C//DTD SVG 20010904//EN"
 "http://www.w3.org/TR/2001/REC-SVG-20010904/DTD/svg10.dtd">
<svg version="1.0" xmlns="http://www.w3.org/2000/svg"
 width="1560.000000pt" height="1560.000000pt" viewBox="0 0 1560.000000 1560.000000"
 preserveAspectRatio="xMidYMid meet">
<metadata>
Created by potrace 1.11, written by Peter Selinger 2001-2013
</metadata>
<g transform="translate(0.000000,1560.000000) scale(0.100000,-0.100000)"
fill="#000000" stroke="none">
<path d="M11700 13960 c-8 -5 -23 -10 -33 -10 -11 0 -30 -9 -44 -20 -37 -29
-180 -70 -245 -70 -79 0 -116 -15 -133 -55 -11 -27 -22 -36 -57 -45 -24 -7
-50 -16 -58 -21 -35 -22 -83 -40 -108 -41 -116 -3 -262 23 -298 53 -7 5 -35
12 -64 16 -52 6 -52 6 -45 -18 4 -13 15 -36 26 -51 17 -24 18 -33 7 -77 -10
-46 -15 -51 -43 -57 -21 -4 -42 1 -66 14 -47 27 -104 35 -120 16 -17 -21 -50
-17 -56 7 -4 14 -11 18 -22 13 -33 -14 -62 -16 -74 -5 -7 6 -27 10 -43 10 -16
0 -48 3 -72 7 -66 10 -130 -3 -138 -28 -5 -16 -12 -19 -34 -15 -23 5 -38 -4
-98 -57 l-70 -64 -164 2 c-89 1 -171 -1 -180 -6 -9 -4 -26 -25 -38 -46 -12
-22 -36 -47 -53 -57 -18 -10 -107 -94 -199 -186 -111 -111 -179 -172 -202
-180 -34 -12 -84 -59 -271 -250 -38 -39 -85 -83 -105 -97 -76 -57 -135 -115
-151 -151 -19 -43 -68 -87 -125 -112 -22 -10 -59 -38 -81 -61 -23 -24 -55 -53
-71 -65 -29 -22 -72 -91 -72 -117 0 -7 -9 -21 -20 -31 -11 -10 -20 -23 -20
-29 -1 -14 -99 -86 -117 -86 -7 0 -13 -4 -13 -9 0 -5 -10 -13 -22 -16 -13 -4
-34 -18 -48 -30 -14 -13 -43 -31 -64 -42 -28 -12 -49 -33 -69 -68 -16 -27 -41
-63 -57 -80 -15 -16 -38 -61 -50 -100 -27 -84 -51 -121 -85 -129 -14 -4 -25
-12 -25 -20 0 -33 -134 -162 -206 -199 -41 -21 -84 -73 -84 -101 0 -13 -16
-43 -35 -67 -19 -24 -35 -54 -35 -67 0 -12 -9 -30 -21 -40 -11 -9 -28 -33 -38
-52 -10 -19 -52 -99 -93 -177 -68 -129 -76 -150 -83 -218 -4 -49 -3 -75 3 -75
6 0 14 -25 18 -56 5 -46 3 -63 -12 -88 -12 -20 -18 -49 -17 -83 0 -49 -2 -53
-28 -62 -32 -11 -37 -26 -14 -35 19 -7 10 -30 -27 -76 -18 -22 -28 -46 -28
-67 0 -24 -10 -44 -35 -72 -19 -21 -35 -44 -35 -50 0 -6 -6 -11 -14 -11 -8 0
-18 -10 -22 -22 -3 -13 -14 -34 -23 -48 -10 -14 -26 -52 -36 -85 -11 -33 -28
-70 -39 -83 -17 -19 -18 -26 -8 -42 7 -11 12 -31 12 -45 0 -28 25 -44 43 -26
6 6 14 11 17 11 12 0 -21 -114 -38 -133 -8 -9 -12 -20 -9 -23 3 -4 30 15 59
41 29 26 63 52 75 58 13 5 25 18 28 29 4 10 13 18 20 18 18 0 29 41 20 70 l-7
22 -22 -21 c-26 -25 -32 -26 -39 -7 -14 35 78 156 118 156 18 0 20 -31 3 -48
-7 -7 -13 -41 -14 -77 -1 -54 1 -63 12 -54 8 6 14 23 15 38 0 14 3 20 6 14 8
-20 23 -15 23 7 0 15 7 20 28 20 15 0 34 6 40 12 7 7 20 13 30 13 10 0 18 9
20 22 2 13 13 24 30 28 27 7 27 7 5 16 -13 4 -23 11 -23 14 0 4 5 3 12 -1 7
-5 9 -2 5 9 -4 11 1 18 14 22 14 5 19 13 16 26 -3 10 -1 19 4 19 5 0 9 -4 9
-10 0 -17 26 -11 44 9 19 21 14 41 -10 41 -8 0 -14 5 -14 10 0 6 8 10 19 10
41 0 79 22 92 53 7 18 24 40 36 50 13 10 23 25 23 33 0 8 5 12 10 9 6 -3 23 8
38 24 16 18 39 32 56 33 37 3 49 19 36 52 -14 37 -4 53 40 60 21 3 40 13 44
21 3 8 12 15 20 15 8 0 24 16 36 35 12 19 28 35 37 35 8 0 33 16 56 35 22 19
48 35 56 35 26 1 52 26 45 43 -4 11 7 23 34 41 29 18 39 31 38 48 -3 27 20 58
43 58 9 0 29 7 45 15 15 8 34 15 41 15 7 0 15 7 19 15 3 8 17 15 31 15 15 0
36 11 49 25 13 14 31 25 39 25 9 0 24 12 33 26 14 20 24 25 53 23 53 -3 59 -1
71 22 9 15 8 24 -1 35 -10 12 -2 14 49 14 51 0 63 3 72 20 6 11 20 20 31 20
11 0 22 8 26 18 15 44 54 82 84 82 30 0 38 13 17 26 -15 10 21 21 68 23 23 1
33 7 37 21 4 14 14 20 35 20 28 0 50 14 51 33 0 12 47 47 63 47 8 0 19 5 25
11 6 6 19 9 29 7 27 -6 54 29 54 68 0 21 6 37 18 43 17 10 13 13 -22 15 -35 2
-30 26 5 26 18 0 52 11 76 25 42 25 56 45 31 45 -9 0 -8 4 2 10 8 5 22 7 31 5
11 -4 15 1 14 17 -1 18 -9 24 -38 28 -20 3 -46 13 -58 23 -11 10 -27 16 -35
13 -9 -4 -12 -1 -9 5 4 6 -2 13 -13 16 -20 5 -20 6 5 29 28 26 36 27 102 15
24 -5 57 -5 74 0 20 6 35 5 44 -3 10 -8 17 -8 26 1 9 9 7 13 -11 17 -12 4 -22
14 -22 23 0 9 -9 23 -20 31 -35 25 -21 46 38 56 8 1 22 10 33 19 11 11 28 16
44 13 14 -3 25 -1 25 3 0 5 -4 9 -10 9 -5 0 -10 9 -10 20 0 12 -5 17 -14 14
-8 -3 -17 -1 -20 5 -11 17 10 20 38 6 22 -12 31 -12 47 -2 17 10 22 9 33 -5
15 -21 32 -23 39 -5 4 9 6 8 6 -2 1 -11 5 -10 21 4 10 9 26 15 35 12 11 -5 15
0 15 16 0 30 24 64 34 49 4 -7 19 -12 33 -12 21 0 24 2 13 15 -7 8 -10 16 -6
16 54 11 96 32 101 50 4 13 12 18 21 15 8 -3 21 -9 30 -12 12 -5 15 -2 12 12
-2 10 -12 20 -23 22 -25 5 -55 31 -55 47 0 21 30 26 55 9 13 -9 28 -13 33 -10
6 3 15 -1 22 -9 12 -14 69 -11 80 5 3 4 27 10 54 13 36 3 54 11 67 28 14 19
20 21 30 12 10 -10 16 -10 30 3 16 14 20 14 43 -1 15 -10 30 -33 36 -56 6 -22
15 -37 20 -34 6 3 8 0 5 -7 -9 -25 11 -37 69 -40 42 -2 60 1 64 10 2 7 -5 16
-17 19 -27 7 -27 34 -1 58 11 10 21 16 21 14 1 -2 3 -15 4 -29 9 -74 20 -105
49 -131 37 -34 52 -36 68 -9 7 11 19 20 26 20 7 0 11 -4 7 -10 -3 -5 5 -16 17
-24 20 -13 29 -13 63 -2 56 20 76 9 40 -22 -23 -19 -25 -26 -14 -33 8 -5 23
-9 34 -9 12 0 26 -5 33 -12 7 -7 27 -11 46 -10 19 1 38 -2 41 -8 4 -7 29 -10
57 -9 39 2 52 -1 59 -14 6 -9 21 -17 34 -17 25 0 34 -6 95 -61 26 -24 35 -27
46 -18 12 9 17 9 27 -3 7 -9 28 -18 48 -21 50 -7 152 -56 170 -81 4 -5 24 -12
45 -15 33 -5 39 -10 42 -33 2 -15 10 -32 18 -38 8 -7 14 -24 14 -39 0 -29 16
-51 37 -51 7 0 13 9 13 20 0 11 5 20 10 20 6 0 10 -9 10 -20 0 -14 7 -19 28
-20 94 -1 142 -18 142 -49 0 -28 58 -74 84 -67 26 6 48 -6 45 -25 -6 -28 12
-59 34 -59 24 0 87 -62 87 -85 0 -8 4 -15 10 -15 5 0 16 -16 24 -35 10 -24 21
-35 36 -35 11 0 32 -11 45 -25 20 -19 24 -32 22 -63 -2 -21 -7 -44 -11 -50 -7
-11 31 -38 41 -29 2 3 0 14 -6 25 -10 19 2 82 17 82 18 0 112 -76 112 -91 0
-9 7 -20 16 -23 11 -4 15 -17 12 -48 -3 -36 0 -43 17 -46 30 -6 131 -109 170
-175 29 -48 33 -61 23 -77 -9 -14 -9 -22 2 -35 7 -9 19 -14 26 -11 7 3 25 1
41 -3 21 -5 29 -15 33 -37 3 -17 12 -30 24 -32 15 -3 17 1 11 28 l-7 32 21
-21 c12 -12 21 -24 21 -27 0 -15 82 -82 95 -78 23 9 67 -46 60 -74 -4 -16 0
-31 11 -43 9 -10 14 -24 11 -31 -2 -7 2 -25 9 -39 7 -15 11 -29 7 -32 -12 -13
9 -58 41 -91 34 -33 35 -34 52 -15 20 23 42 25 50 4 3 -8 15 -17 25 -20 11 -4
18 -14 17 -23 -2 -13 3 -16 25 -14 19 2 26 -1 22 -8 -3 -6 -10 -8 -15 -5 -5 3
-11 -3 -15 -14 -7 -23 -4 -102 4 -116 3 -5 11 -30 16 -55 7 -33 15 -46 30 -48
54 -8 64 -14 84 -52 12 -22 21 -47 21 -55 0 -9 10 -15 25 -15 14 0 28 -7 31
-15 5 -11 10 -13 19 -5 9 8 17 6 28 -5 17 -17 37 -20 37 -6 0 5 -7 17 -16 25
-21 22 -14 49 16 56 33 9 72 -5 101 -36 12 -13 28 -24 35 -24 7 0 27 -18 44
-40 17 -22 30 -40 27 -40 -3 0 7 -13 21 -28 23 -25 29 -27 54 -18 37 14 36 36
-2 36 -40 0 -38 13 4 26 37 11 61 4 83 -25 10 -14 12 -14 18 2 12 29 43 19 70
-23 14 -22 25 -45 25 -51 0 -7 8 -4 20 6 16 14 23 16 32 7 9 -9 7 -16 -5 -30
-14 -15 -15 -23 -5 -50 8 -20 19 -32 30 -32 19 0 24 -15 8 -25 -16 -10 -12
-55 5 -55 10 0 15 -10 15 -30 0 -42 27 -80 56 -80 13 0 25 -6 25 -12 4 -38 20
-78 32 -78 8 0 8 -3 0 -11 -8 -8 -17 -8 -31 0 -17 9 -23 8 -31 -6 -7 -14 -3
-22 24 -40 19 -13 40 -23 48 -23 8 0 25 -9 38 -21 13 -11 34 -29 47 -40 24
-20 28 -34 12 -44 -12 -8 -13 -42 -1 -47 4 -1 12 -14 16 -28 7 -21 6 -23 -7
-13 -8 7 -18 10 -22 6 -13 -14 -25 21 -13 36 9 12 9 13 0 7 -9 -5 -11 -2 -7 8
3 8 -3 19 -15 26 -19 10 -21 8 -21 -22 1 -34 23 -58 68 -72 16 -5 22 -15 22
-36 0 -16 5 -32 10 -35 8 -5 8 -40 0 -80 -1 -5 -2 -17 -1 -25 1 -13 2 -13 11
0 9 13 11 13 20 0 5 -8 14 -36 19 -62 8 -36 7 -52 -5 -76 -14 -30 -12 -91 5
-102 15 -9 21 -58 11 -85 -8 -20 -7 -27 5 -31 20 -8 19 -40 -1 -48 -13 -5 -14
-9 -4 -21 10 -12 7 -17 -13 -26 -22 -10 -25 -17 -20 -40 3 -19 1 -29 -6 -29
-7 0 -10 -4 -7 -9 3 -4 -1 -17 -9 -27 -8 -10 -15 -29 -15 -40 0 -12 -11 -29
-25 -38 -14 -9 -25 -23 -25 -31 0 -7 -7 -21 -16 -29 -8 -9 -13 -20 -9 -26 3
-6 -1 -7 -10 -4 -19 8 -46 -24 -40 -46 6 -19 -10 -44 -23 -36 -14 8 -62 -39
-62 -62 0 -11 -7 -25 -15 -32 -8 -7 -15 -21 -15 -31 0 -10 -9 -24 -20 -32 -11
-8 -17 -17 -14 -20 4 -3 3 -18 0 -33 -5 -20 -12 -25 -26 -21 -11 3 -21 1 -21
-4 -1 -5 -2 -13 -3 -18 0 -5 -5 -13 -10 -18 -6 -5 -6 -2 -1 7 8 13 6 13 -8 2
-9 -8 -19 -21 -22 -31 -4 -13 -14 -16 -38 -13 -22 2 -46 -4 -70 -18 -41 -24
-48 -40 -16 -40 11 0 18 -4 14 -10 -3 -5 -13 -6 -21 -3 -13 5 -14 0 -8 -31 5
-32 4 -38 -13 -42 -10 -3 -25 -15 -32 -26 -12 -19 -11 -20 13 -16 16 3 31 -1
38 -10 9 -11 9 -14 1 -9 -7 4 -14 -1 -18 -14 -4 -12 -12 -18 -21 -15 -7 3 -18
-3 -24 -14 -13 -25 -13 -30 4 -24 8 3 17 0 21 -5 3 -6 11 -8 17 -5 6 4 6 -1
-1 -14 -6 -11 -8 -28 -5 -37 4 -10 -11 -33 -48 -70 -30 -30 -52 -58 -49 -62 3
-4 -4 0 -16 11 -13 11 -19 24 -16 34 5 12 1 14 -15 10 -15 -4 -19 -2 -15 8 11
29 -7 12 -23 -21 -9 -20 -19 -33 -22 -31 -3 3 1 12 7 20 8 10 9 16 1 21 -6 4
-10 3 -9 -2 4 -22 -3 -25 -20 -9 -11 10 -26 16 -33 13 -9 -4 -8 -6 3 -6 9 -1
28 -16 42 -34 24 -32 25 -35 9 -51 -15 -15 -15 -16 -1 -11 10 4 19 0 22 -9 4
-10 -4 -18 -24 -25 -16 -5 -29 -15 -29 -22 0 -7 -3 -10 -6 -7 -3 4 -15 -3 -26
-14 -12 -12 -26 -17 -36 -12 -9 3 -26 7 -37 8 -18 1 -20 -5 -18 -61 2 -70 -8
-84 -39 -56 -14 12 -18 13 -13 3 8 -13 6 -13 -7 -2 -13 10 -22 11 -37 2 -12
-6 -21 -15 -21 -21 0 -5 -11 -15 -25 -21 -17 -8 -25 -19 -24 -32 3 -39 -1 -44
-35 -50 -51 -10 -123 -108 -125 -171 0 -11 -1 -36 -1 -56 -1 -31 -6 -37 -34
-47 -46 -17 -86 -15 -86 3 0 8 0 18 -1 23 0 9 -51 37 -61 34 -5 -1 -8 9 -8 22
0 33 -21 90 -37 99 -7 5 -11 12 -8 18 4 5 1 9 -4 9 -6 0 -10 3 -10 8 1 4 0 10
-1 15 -5 15 -8 27 -9 43 -1 12 -4 14 -13 6 -7 -5 -35 -13 -61 -17 -26 -4 -55
-14 -62 -22 -9 -9 -23 -12 -36 -8 -25 8 -20 29 9 33 12 2 22 10 22 19 0 13 -9
15 -49 10 -45 -5 -53 -3 -88 24 -21 17 -41 36 -45 42 -5 9 -10 9 -19 0 -9 -9
-21 -7 -53 9 -26 13 -41 17 -44 9 -5 -14 -42 5 -42 22 0 7 -15 18 -32 25 -18
7 -55 24 -82 37 -37 17 -54 21 -68 14 -21 -12 -26 9 -6 29 10 10 10 15 -1 21
-8 5 -20 7 -28 4 -7 -3 -16 2 -19 11 -9 23 -77 56 -101 50 -13 -4 -22 0 -26
10 -4 9 -17 16 -30 16 -16 0 -34 12 -51 35 -22 28 -32 34 -50 29 -17 -4 -28 0
-39 17 -14 19 -19 20 -32 9 -10 -8 -15 -9 -15 -2 0 7 -27 29 -60 51 -55 35
-64 38 -90 28 -24 -9 -32 -8 -42 3 -7 9 -12 13 -11 11 6 -10 -48 -29 -67 -24
-27 7 -10 29 30 38 16 3 31 13 34 22 6 14 8 14 24 -1 24 -21 32 -20 32 4 0 29
-20 33 -82 21 -29 -6 -71 -12 -93 -13 -22 0 -44 -4 -50 -7 -5 -3 -28 -7 -50
-8 -22 -1 -57 -5 -79 -8 l-38 -7 17 26 c17 25 17 26 -3 26 -11 0 -34 -8 -51
-17 -30 -18 -30 -17 -59 10 -15 15 -33 27 -39 27 -6 0 -9 9 -6 20 4 16 0 20
-18 20 -13 0 -30 9 -37 20 -14 24 -45 26 -66 5 -8 -8 -19 -15 -25 -15 -6 0
-11 7 -11 15 0 22 -26 18 -47 -8 -10 -13 -26 -21 -36 -19 -10 2 -25 -5 -32
-15 -10 -13 -26 -18 -61 -18 -49 0 -48 1 -77 -67 -11 -25 -25 -40 -42 -44 -16
-4 -25 -13 -25 -25 0 -12 -7 -19 -20 -19 -11 0 -20 -6 -20 -13 0 -32 -56 -117
-78 -117 -5 0 -15 -7 -23 -16 -7 -8 -21 -13 -31 -11 -23 6 -24 -20 -2 -45 14
-14 14 -20 4 -33 -7 -8 -19 -15 -27 -15 -8 0 -13 -6 -10 -13 2 -6 -5 -20 -17
-29 -22 -16 -22 -15 -18 14 4 28 3 29 -17 16 -14 -8 -20 -20 -17 -31 6 -23
-19 -33 -39 -17 -13 11 -15 7 -15 -23 0 -36 19 -64 21 -30 0 15 2 14 11 -5 9
-19 7 -26 -12 -47 -13 -13 -27 -22 -32 -19 -5 3 -8 2 -7 -3 1 -4 -1 -16 -6
-27 -8 -17 -9 -17 -19 3 -12 21 -12 21 -45 -8 -21 -19 -39 -27 -53 -23 -18 4
-19 2 -9 -15 12 -23 6 -33 -20 -33 -22 0 -32 -27 -13 -34 20 -8 17 -30 -7 -52
-13 -12 -18 -25 -15 -40 7 -28 -16 -53 -56 -61 -26 -5 -28 -9 -23 -35 7 -32
-8 -58 -34 -58 -22 0 -50 -34 -58 -71 -3 -16 -13 -35 -22 -42 -9 -7 -26 -33
-39 -59 -13 -27 -29 -48 -36 -48 -17 0 -36 -43 -36 -80 0 -29 -5 -37 -45 -65
-18 -13 -18 -14 -2 -15 17 0 23 -20 10 -34 -4 -3 -8 -14 -9 -22 -2 -13 2 -12
19 4 12 10 47 27 77 38 67 22 84 36 86 72 1 15 3 30 3 34 1 9 115 3 130 -6 6
-4 11 -16 11 -27 0 -11 -4 -18 -9 -14 -24 14 -32 -72 -13 -130 1 -3 2 -9 2
-15 0 -5 5 -10 10 -10 13 0 13 37 1 45 -12 7 5 60 33 100 29 41 38 50 64 64
12 6 21 17 19 24 -1 7 7 11 20 10 39 -4 70 96 53 170 -5 26 -4 39 6 47 7 7 11
17 8 24 -3 8 2 16 10 19 9 4 16 15 16 26 0 11 10 26 23 33 l22 12 -25 7 c-26
6 -24 8 25 24 8 2 15 14 15 25 0 12 -4 18 -10 15 -6 -3 -7 1 -4 9 3 9 1 16 -5
16 -20 0 -12 17 14 28 37 17 68 15 62 -2 -4 -10 0 -14 14 -13 10 1 19 5 19 10
0 5 7 4 15 -3 9 -7 27 -10 44 -7 16 4 31 3 33 -1 2 -4 11 0 20 10 15 15 16 19
3 32 -19 18 -19 30 -1 45 11 10 16 8 21 -8 10 -31 33 -25 48 12 14 33 41 61
61 63 40 4 39 4 21 24 -9 10 -22 18 -29 17 -6 -1 -11 13 -12 33 -1 45 5 60 22
60 7 0 19 8 26 18 15 21 73 47 86 38 5 -3 26 -8 46 -10 20 -3 57 -16 81 -30
24 -14 55 -26 70 -26 14 0 35 -5 46 -11 11 -5 43 -12 72 -13 47 -3 54 -7 70
-37 10 -19 22 -33 27 -32 5 2 4 -8 -2 -22 -6 -14 -14 -25 -18 -25 -10 0 -63
53 -76 76 -17 29 -50 29 -70 0 -19 -31 -37 -33 -70 -7 -20 16 -30 17 -71 9
-63 -13 -73 -23 -73 -69 0 -50 26 -104 57 -118 13 -6 29 -23 34 -39 13 -35 88
-85 106 -70 10 8 13 5 13 -11 0 -11 5 -21 10 -21 15 0 12 26 -5 40 -9 8 -12
18 -6 29 4 9 5 27 1 41 -5 21 -11 24 -36 22 -33 -3 -57 17 -67 55 -11 46 59
59 78 16 6 -15 19 -23 35 -23 14 0 34 -7 44 -15 11 -8 29 -15 40 -15 11 0 33
-4 50 -9 17 -5 67 -15 111 -21 44 -7 87 -18 95 -24 8 -7 22 -16 31 -19 9 -3
26 -25 37 -49 20 -42 34 -107 23 -106 -50 5 -69 -37 -75 -162 l-4 -92 57 -57
c89 -90 133 -111 230 -114 52 -1 85 3 93 11 7 7 23 12 36 12 12 0 40 11 60 25
75 51 96 29 97 -102 0 -88 -2 -95 -24 -112 -18 -14 -38 -17 -77 -15 -43 2 -54
0 -54 -12 0 -8 -5 -12 -10 -9 -6 4 -7 12 -3 18 5 8 2 8 -9 -1 -8 -7 -24 -10
-34 -6 -18 5 -18 5 -1 -9 9 -8 17 -18 17 -22 0 -5 7 -17 17 -27 9 -10 11 -18
5 -18 -6 0 -21 13 -33 29 l-22 30 -38 -19 c-20 -11 -39 -25 -42 -32 -4 -10 -6
-10 -6 0 -1 7 -5 10 -11 7 -5 -3 -10 -1 -10 4 0 6 -7 11 -15 11 -8 0 -15 5
-15 10 0 6 -5 10 -11 10 -13 0 -39 25 -39 38 0 5 -15 13 -32 16 -18 4 -45 9
-60 12 -24 6 -48 44 -27 44 5 0 9 9 9 20 0 26 -43 43 -87 35 -25 -4 -37 -1
-59 21 l-27 27 -12 -29 c-8 -18 -14 -22 -14 -12 -1 18 -27 48 -42 48 -5 0 -6
-12 -2 -27 3 -16 6 -36 5 -46 0 -12 4 -17 13 -13 9 3 19 -9 29 -35 11 -27 22
-39 35 -39 11 0 22 -9 26 -19 5 -16 12 -19 42 -14 32 5 35 4 29 -14 -3 -10 0
-27 6 -36 11 -14 24 -15 91 -9 43 5 80 4 83 0 3 -4 0 -8 -7 -8 -7 0 -9 -3 -6
-6 4 -4 13 -1 21 5 11 10 17 7 30 -11 14 -20 14 -23 0 -31 -11 -6 -20 -3 -29
10 -7 10 -17 15 -21 11 -4 -4 -14 -3 -21 4 -9 7 -17 8 -21 2 -4 -5 -13 -9 -19
-10 -29 -2 -33 -5 -33 -18 0 -7 14 -19 31 -26 27 -12 30 -17 27 -47 -3 -24 0
-34 13 -38 29 -10 32 -65 3 -65 -21 0 -6 -26 33 -56 30 -22 39 -25 54 -16 25
16 30 15 22 -4 -6 -17 16 -66 27 -59 4 3 22 -10 40 -29 21 -21 40 -32 51 -29
10 3 28 -4 40 -16 13 -12 36 -21 55 -21 18 0 34 -6 37 -12 3 -10 9 -9 23 4 18
15 21 15 44 -4 l24 -20 21 24 c14 16 30 23 55 22 56 -1 69 -11 63 -47 -4 -28
-3 -30 12 -17 15 12 16 11 9 -16 -10 -41 -12 -44 -39 -44 -24 0 -51 -31 -38
-44 3 -3 -5 -6 -19 -6 -19 0 -27 -6 -30 -24 -3 -13 -1 -31 4 -40 7 -12 5 -16
-8 -16 -15 0 -16 -2 -2 -17 29 -35 32 -46 10 -39 -11 4 -23 2 -27 -4 -4 -6
-15 -8 -26 -5 -11 4 -19 2 -19 -4 0 -6 -7 -11 -15 -11 -8 0 -15 5 -15 10 0 17
-36 11 -53 -8 -10 -10 -17 -26 -17 -35 0 -10 -5 -14 -14 -11 -8 3 -12 12 -10
19 3 7 0 16 -7 21 -7 4 -10 3 -6 -3 11 -18 -28 -44 -57 -39 -22 4 -26 1 -26
-18 0 -26 -25 -52 -55 -58 -10 -1 -22 -14 -25 -26 -3 -13 -16 -30 -30 -37 -14
-8 -20 -14 -15 -15 6 0 -9 -12 -32 -26 -40 -23 -42 -27 -37 -60 7 -43 -9 -64
-47 -64 -15 0 -31 -5 -35 -11 -5 -8 -10 -6 -16 5 -8 14 -18 16 -54 10 -38 -5
-44 -4 -44 12 0 29 -18 3 -25 -37 -4 -22 -3 -39 4 -43 14 -9 2 -36 -15 -36 -8
0 -14 -5 -14 -11 0 -5 -4 -7 -10 -4 -5 3 -25 -9 -44 -27 -36 -35 -82 -49 -72
-23 7 18 -31 30 -48 16 -7 -6 -16 -9 -20 -6 -3 3 -2 -1 4 -7 17 -21 11 -35
-20 -48 -17 -7 -33 -22 -36 -36 -3 -13 -18 -27 -35 -33 -16 -5 -29 -9 -30 -8
0 1 -2 10 -4 20 -3 15 -1 16 11 6 8 -7 14 -7 14 -1 0 5 -7 12 -15 16 -18 6
-45 -2 -45 -15 0 -15 -50 -10 -56 6 -11 28 -37 -4 -30 -37 5 -26 4 -28 -21
-22 -22 6 -25 4 -20 -10 5 -12 1 -16 -16 -15 -12 0 -31 4 -42 8 -11 5 -25 4
-32 -1 -15 -12 -83 1 -83 15 0 7 -11 -5 -25 -26 -14 -20 -34 -37 -43 -37 -10
0 -27 -7 -39 -15 -12 -8 -24 -11 -27 -6 -3 5 -26 12 -50 15 -42 7 -44 8 -37
34 5 18 14 27 27 26 12 0 21 7 21 18 2 26 -63 26 -72 -1 -3 -10 -15 -23 -28
-28 -22 -11 -22 -11 6 -22 15 -6 27 -15 27 -21 0 -9 -30 -15 -53 -11 -4 1 -15
-5 -23 -14 -19 -18 -51 -20 -57 -2 -6 17 -20 2 -23 -26 -1 -12 -3 -23 -3 -24
-1 -1 -18 7 -38 17 -35 17 -38 17 -42 2 -7 -36 -31 -51 -75 -47 -31 3 -43 0
-43 -10 0 -8 3 -14 6 -13 3 0 18 0 34 -1 22 -1 27 -6 27 -27 0 -23 -4 -25 -32
-24 -53 3 -61 1 -54 -16 3 -8 2 -13 -2 -11 -4 2 -20 -11 -35 -29 -19 -23 -24
-35 -16 -40 7 -4 9 -3 5 4 -3 6 -2 13 4 17 5 3 10 0 10 -8 0 -22 -11 -27 -31
-14 -16 10 -21 9 -28 -2 -5 -8 -16 -11 -30 -6 -17 5 -21 2 -21 -14 0 -11 -14
-29 -30 -41 -37 -27 -57 -60 -41 -69 8 -5 5 -15 -8 -30 -11 -13 -22 -28 -24
-34 -2 -6 -18 -12 -36 -13 -31 -2 -45 -12 -54 -38 -2 -5 -25 -12 -53 -15 -43
-5 -49 -9 -48 -28 0 -13 -5 -23 -12 -23 -7 0 -14 -4 -16 -10 -4 -13 -68 -25
-68 -13 0 5 11 15 25 21 14 6 25 15 25 20 0 15 -61 54 -76 48 -16 -6 -28 28
-22 65 3 21 8 24 41 21 36 -3 42 2 38 34 -2 16 19 30 56 37 83 16 145 62 112
82 -6 4 -7 19 -4 36 5 24 4 28 -9 23 -26 -10 -62 4 -79 30 -13 20 -14 29 -4
49 7 14 20 28 31 31 13 3 17 11 13 26 -7 29 10 66 41 86 24 16 26 15 38 0 20
-27 27 0 10 35 -9 17 -13 35 -10 40 8 14 31 10 38 -6 3 -8 12 -15 21 -15 11 0
15 11 15 40 0 22 5 40 10 40 6 0 15 12 21 27 8 22 6 30 -15 52 -27 28 -35 80
-21 137 7 30 5 32 -30 38 -32 6 -36 10 -33 34 2 15 12 31 23 37 34 17 65 54
59 69 -3 9 -12 12 -21 9 -11 -5 -14 -3 -9 6 5 7 14 10 21 7 17 -6 39 19 32 38
-6 16 11 36 30 36 7 0 13 -11 13 -25 0 -30 20 -33 37 -6 10 16 9 22 -4 33 -9
7 -19 12 -22 11 -3 -1 -8 1 -11 4 -3 4 0 3 7 -1 7 -3 14 2 18 13 3 11 12 22
20 25 8 3 15 12 15 20 0 9 9 20 20 26 15 8 18 17 13 41 -5 25 0 36 28 66 23
24 30 37 21 40 -9 4 -7 14 9 40 19 31 20 36 6 50 -19 19 -54 9 -62 -18 -4 -11
-18 -25 -31 -31 -32 -15 -47 -1 -48 44 -1 43 -38 61 -123 62 -35 1 -63 5 -63
10 0 4 -11 6 -24 4 -20 -4 -26 0 -28 16 -2 17 -14 23 -66 32 -70 13 -84 20
-56 31 32 13 25 29 -16 42 -30 9 -41 18 -47 39 -9 38 -31 52 -80 50 -48 -2
-50 -4 -26 -30 14 -15 14 -18 1 -18 -23 0 -50 34 -37 47 13 13 -2 48 -24 56
-8 3 -36 -5 -63 -18 -56 -28 -82 -31 -90 -11 -12 31 -154 45 -154 16 0 -15
-27 -12 -33 4 -3 8 -15 12 -30 9 -15 -3 -41 6 -72 26 -27 17 -55 31 -62 31
-39 0 -143 71 -143 97 0 7 -8 22 -17 32 -10 10 -31 38 -48 60 -20 29 -35 41
-47 38 -28 -8 -52 16 -45 45 5 17 2 30 -9 38 -16 14 -54 91 -54 111 0 12 -32
90 -77 189 -28 62 -92 160 -105 160 -4 0 -30 22 -58 49 -60 59 -100 76 -123
53 -14 -13 -18 -13 -33 -2 -14 12 -18 12 -30 -5 -20 -27 -17 -35 11 -35 24 0
25 -3 25 -58 0 -47 4 -63 21 -78 13 -12 18 -25 14 -39 -13 -44 -16 -75 -6 -75
12 0 26 -36 30 -78 0 -7 6 -10 11 -7 6 4 8 15 5 25 -8 25 12 35 31 16 9 -9 20
-13 26 -10 7 5 8 2 2 -7 -5 -8 -10 -27 -10 -44 -1 -16 -5 -40 -9 -52 -6 -18
-3 -23 9 -23 9 0 19 -7 22 -15 4 -8 10 -13 14 -10 11 7 29 -18 32 -46 2 -19
11 -26 43 -34 35 -9 40 -14 43 -43 2 -21 12 -38 27 -48 20 -13 23 -19 14 -36
-8 -15 -7 -24 4 -36 23 -27 31 -88 12 -96 -19 -7 -19 -35 0 -42 8 -4 15 -18
15 -33 0 -15 3 -31 8 -35 4 -4 12 -30 17 -58 10 -49 12 -52 55 -67 46 -16 62
-29 54 -43 -9 -14 -34 -9 -34 7 0 19 -24 19 -39 1 -10 -12 -5 -16 24 -26 28
-9 34 -16 30 -30 -6 -19 20 -36 30 -20 4 6 15 10 25 10 16 0 19 -5 15 -27 -4
-19 1 -36 15 -53 l20 -25 18 21 c23 29 58 39 65 20 3 -8 22 -16 44 -18 30 -2
41 -9 51 -31 10 -21 19 -27 33 -24 13 4 25 -3 35 -19 9 -13 22 -24 30 -24 10
0 12 -8 8 -30 -4 -16 -3 -37 1 -47 11 -25 12 -29 14 -59 1 -23 4 -25 29 -20
15 4 32 14 38 22 19 24 43 16 61 -21 13 -28 14 -37 3 -50 -7 -8 -19 -15 -28
-15 -8 0 2 -12 23 -26 31 -21 45 -24 77 -19 36 6 39 5 34 -12 -5 -17 1 -21 46
-29 45 -8 53 -13 59 -38 4 -15 15 -36 24 -46 15 -17 15 -20 0 -43 -11 -17 -13
-27 -6 -32 6 -3 11 -15 11 -26 0 -12 7 -19 20 -19 25 0 27 35 3 50 -14 9 -11
9 17 4 19 -3 43 -13 53 -22 15 -14 19 -13 37 3 15 13 23 16 31 8 8 -8 6 -15
-10 -25 -22 -14 -29 -56 -11 -74 8 -8 5 -18 -9 -35 -11 -13 -20 -18 -21 -11 0
20 -20 14 -20 -7 0 -26 -17 -35 -27 -16 -7 12 -16 6 -47 -30 -39 -47 -42 -85
-8 -85 15 -1 15 -2 -2 -15 -10 -8 -24 -16 -30 -18 -5 -2 -11 -17 -12 -33 -1
-24 -5 -28 -24 -26 -13 2 -31 13 -40 25 -12 15 -29 21 -56 21 -46 0 -56 10
-42 45 6 14 11 35 12 46 0 11 8 20 16 20 9 0 15 10 16 27 1 21 -2 25 -15 18
-9 -5 -24 -11 -33 -14 -10 -3 -18 -14 -18 -24 0 -24 -25 -48 -35 -32 -8 13
-25 13 -25 0 0 -5 6 -10 14 -10 20 0 28 -40 9 -47 -18 -7 -37 14 -62 68 -21
45 -106 130 -124 123 -7 -2 -25 15 -41 41 -31 49 -37 52 -56 31 -13 -17 -40
-10 -40 10 0 8 -8 14 -17 15 -15 0 -15 2 2 8 11 5 23 7 28 4 4 -2 7 -2 7 2 0
11 -45 22 -61 14 -14 -7 -75 21 -68 32 1 2 -1 14 -5 26 -5 15 -21 26 -49 35
-23 6 -47 15 -53 20 -6 4 -15 3 -21 -3 -6 -6 -21 -8 -33 -4 -20 6 -20 8 -5 25
20 22 11 44 -16 37 -10 -3 -26 1 -36 9 -10 7 -24 14 -32 14 -8 0 -19 7 -26 16
-9 13 -16 14 -33 5 -17 -9 -30 -8 -59 4 -21 9 -56 19 -78 22 -22 3 -50 14 -63
24 -25 19 -52 16 -52 -7 0 -8 11 -20 25 -26 14 -6 25 -17 25 -24 0 -7 19 -22
43 -34 23 -11 49 -25 57 -29 60 -31 84 -41 99 -41 19 0 105 -52 116 -71 5 -6
9 -27 11 -45 3 -45 57 -93 104 -94 94 -1 150 -44 150 -117 0 -34 21 -53 58
-53 24 0 79 -60 88 -95 14 -56 -3 -89 -89 -169 -45 -43 -92 -88 -104 -99 -27
-25 -27 -27 -9 -62 8 -15 17 -22 21 -16 3 6 14 11 23 11 12 0 9 -7 -13 -25
-16 -13 -42 -24 -57 -25 -18 0 -28 -5 -28 -15 0 -8 -5 -15 -11 -15 -5 0 -7 5
-4 10 3 6 -1 10 -9 10 -9 0 -16 -11 -18 -30 -2 -23 -6 -27 -17 -20 -13 7 -13
11 -1 25 13 15 10 20 -19 45 -22 17 -30 29 -23 34 15 9 16 36 1 36 -6 0 -16
-14 -22 -30 -8 -21 -18 -30 -34 -30 -16 0 -23 -6 -23 -18 0 -31 -25 -56 -46
-47 -22 9 -65 7 -79 -5 -7 -6 -11 0 -13 16 -1 14 -5 30 -8 35 -7 13 -47 0 -57
-17 -5 -9 -26 -14 -54 -14 -30 0 -54 -6 -66 -18 -11 -9 -17 -11 -13 -5 4 7 -2
22 -13 34 -16 18 -23 20 -35 10 -10 -8 -16 -9 -21 -1 -4 7 -11 5 -21 -5 -20
-19 -74 -19 -100 0 -27 21 -51 18 -57 -6 -5 -17 -11 -20 -32 -17 -21 4 -28 1
-36 -18 -9 -26 -27 -28 -46 -4 -10 13 -16 10 -42 -21 -41 -50 -78 -62 -122
-41 -19 9 -40 22 -47 29 -19 18 -82 44 -92 38 -4 -3 -18 4 -31 14 -13 10 -39
22 -56 25 -18 4 -39 16 -46 26 -7 10 -21 20 -32 22 -11 2 -19 10 -17 17 1 7
-11 18 -28 24 -21 8 -30 18 -30 34 0 22 -9 27 -37 24 -7 -1 -19 11 -27 26 -8
15 -62 72 -120 127 -79 73 -106 105 -106 123 0 23 -14 39 -86 102 -12 10 -29
21 -38 24 -9 4 -19 15 -22 24 -3 10 -10 28 -16 40 -6 11 -7 26 -4 32 4 6 0 21
-8 33 -9 12 -16 30 -16 39 0 9 -7 22 -16 30 -11 9 -14 22 -10 42 4 18 -1 43
-13 67 -10 21 -16 50 -14 63 4 19 -1 28 -17 37 -11 6 -20 19 -18 28 2 11 -15
34 -40 56 -32 29 -47 37 -65 32 -18 -4 -23 -1 -23 12 1 9 -3 18 -9 20 -16 5
-18 -25 -2 -39 12 -11 10 -17 -10 -37 -13 -13 -21 -28 -17 -33 3 -5 1 -16 -6
-24 -17 -20 4 -53 37 -57 23 -3 28 -8 31 -40 2 -21 -1 -45 -7 -55 -9 -16 -10
-16 -11 5 0 23 -10 27 -66 23 -30 -2 -54 15 -58 41 -1 7 -6 14 -11 16 -15 4
-34 64 -28 90 4 17 0 25 -14 28 -13 4 -20 13 -18 27 1 12 -5 38 -13 57 -16 41
-17 47 -27 124 -4 39 -3 56 4 52 13 -8 29 22 35 65 2 19 10 55 16 82 14 54 3
78 -33 74 -20 -2 -22 2 -20 43 2 33 8 50 26 65 21 18 41 71 49 130 2 12 11 20
22 20 27 0 31 21 6 28 -26 7 -26 27 0 27 11 0 20 -5 20 -12 0 -7 13 3 29 22
16 19 27 38 24 42 -2 4 3 5 11 2 12 -5 16 0 16 20 0 20 8 29 36 41 32 13 37
13 51 0 34 -35 40 18 5 58 -8 9 -11 18 -6 18 5 1 19 3 31 4 13 1 30 8 38 15
13 11 20 11 39 0 13 -6 33 -9 45 -5 16 5 32 -1 57 -20 35 -27 114 -137 114
-159 0 -7 7 -36 15 -64 12 -40 20 -52 35 -52 11 0 19 -3 19 -7 -4 -22 2 -43
12 -43 6 0 33 -23 58 -51 l47 -52 32 38 c17 21 34 51 37 67 4 15 10 30 14 32
19 12 161 -59 223 -112 43 -36 131 -92 147 -92 31 0 90 -26 94 -42 3 -12 15
-18 32 -18 24 0 26 2 14 16 -7 9 -12 31 -11 49 3 37 -29 65 -73 65 -14 0 -25
4 -25 8 0 5 -14 18 -31 31 -22 16 -34 20 -43 12 -17 -14 -26 -4 -26 30 0 37
-9 59 -25 59 -7 0 -18 6 -24 14 -7 8 -24 17 -39 21 -15 4 -30 11 -33 17 -4 5
-23 10 -42 10 -27 0 -40 6 -52 24 -8 13 -21 24 -29 24 -7 0 -21 9 -31 20 -15
16 -21 18 -33 8 -12 -10 -19 -7 -38 17 -15 19 -31 29 -44 27 -15 -3 -20 2 -20
20 0 17 -8 27 -30 35 -26 10 -30 16 -29 50 1 122 -8 160 -33 135 -22 -22 -48
-14 -54 18 -7 33 -18 39 -28 14 -5 -14 -10 -12 -34 11 -15 15 -42 39 -60 53
l-33 25 -27 -25 c-15 -14 -43 -28 -63 -32 -33 -6 -37 -4 -43 18 -8 32 -33 40
-47 15 -8 -16 -16 -19 -42 -14 -18 4 -36 11 -42 16 -15 14 -52 10 -59 -6 -3
-8 -12 -15 -21 -15 -8 0 -15 -5 -15 -10 0 -6 -3 -9 -7 -8 -25 7 -98 -15 -113
-34 -16 -20 -20 -21 -60 -9 -23 7 -43 11 -43 9 -1 -2 -8 -13 -15 -26 -12 -21
-11 -24 7 -29 22 -6 28 -27 11 -38 -5 -3 -25 -6 -45 -7 -33 -1 -63 -18 -33
-18 8 0 23 -6 34 -14 15 -12 16 -17 7 -27 -10 -10 -17 -9 -35 7 -13 11 -35 26
-50 34 -16 7 -34 23 -42 35 -14 21 -13 25 9 45 l24 23 -24 19 c-14 11 -29 16
-35 13 -6 -4 -10 -3 -9 2 1 4 -3 21 -9 36 -7 16 -12 36 -12 46 0 10 -9 26 -19
35 -16 14 -17 22 -8 46 6 16 16 26 21 22 6 -3 6 1 -1 9 -12 15 -14 59 -2 59
11 0 20 48 13 75 -5 19 -13 25 -35 25 -16 0 -29 4 -29 9 0 20 13 41 21 35 5
-3 12 3 16 13 3 10 13 26 21 35 13 16 12 18 -9 26 -12 5 -34 7 -48 5 -14 -2
-37 -4 -51 -4 -21 0 -26 -6 -28 -27 -1 -15 -8 -32 -15 -40 -11 -11 -16 -10
-27 4 -12 14 -12 18 1 28 16 11 33 70 19 61 -5 -3 -10 1 -13 9 -4 9 0 12 13 9
15 -4 18 -1 13 18 -4 13 -8 18 -11 11 -2 -6 -8 -12 -13 -12 -6 0 -7 5 -4 10 3
6 -1 10 -10 10 -9 0 -13 -4 -10 -10 3 -5 -1 -10 -10 -10 -9 0 -13 -4 -10 -10
3 -5 1 -10 -6 -10 -7 0 -23 -10 -35 -21 l-23 -21 1 23 c1 13 6 30 11 37 8 10
4 15 -11 19 -19 4 -22 13 -22 54 0 48 0 49 -47 70 -27 12 -49 22 -51 24 -1 1
5 18 13 38 10 25 22 37 35 37 30 0 32 16 5 48 -13 16 -21 33 -17 37 4 4 0 6
-8 3 -19 -6 -27 -61 -8 -56 26 6 22 -17 -5 -30 -35 -17 -50 -73 -45 -172 2
-55 0 -74 -9 -73 -7 2 -15 -9 -19 -25 -12 -57 -16 -63 -30 -58 -15 6 -19 -9
-15 -54 1 -14 -7 -35 -19 -47 -11 -12 -20 -27 -20 -33 0 -5 -5 -10 -11 -10 -5
0 -8 4 -4 9 12 21 -18 22 -38 2 -21 -20 -21 -21 -2 -22 11 -1 27 -1 35 0 10 0
11 -1 2 -5 -7 -3 -17 -15 -23 -27 -9 -20 -9 -21 5 -4 13 17 14 17 20 -10 3
-15 5 -88 4 -162 -2 -128 -3 -133 -25 -142 -15 -6 -22 -17 -23 -36 -2 -100 1
-119 19 -134 11 -9 23 -33 27 -54 l7 -37 -51 6 c-44 5 -53 3 -62 -13 -5 -11
-10 -29 -10 -40 0 -12 -4 -21 -10 -21 -5 0 -7 -7 -4 -15 4 -8 9 -13 13 -11 3
2 5 -13 3 -35 -4 -33 -7 -38 -18 -28 -19 16 -21 13 -29 -45 -7 -45 -6 -47 11
-38 13 6 29 5 52 -4 27 -12 32 -19 32 -47 0 -17 -5 -39 -10 -47 -7 -12 -13
-11 -34 9 -14 13 -26 33 -28 45 -6 40 -34 30 -58 -20 -12 -26 -23 -57 -24 -68
-1 -12 -9 -35 -18 -53 -8 -17 -14 -47 -13 -67 1 -22 -3 -37 -12 -40 -7 -3 -13
-12 -13 -20 0 -10 6 -13 15 -10 8 4 15 1 15 -5 0 -6 -4 -11 -9 -11 -9 0 -51
-95 -51 -117 0 -7 -7 -24 -15 -36 -9 -14 -16 -57 -19 -114 -3 -70 -8 -97 -21
-110 -13 -12 -16 -28 -12 -59 2 -24 2 -46 -1 -49 -15 -15 -29 -100 -21 -123 6
-16 6 -29 -1 -37 -5 -6 -7 -15 -3 -18 3 -4 -1 -7 -10 -7 -9 0 -17 -4 -17 -9 0
-6 -8 -8 -18 -6 -18 3 -18 1 -4 -30 9 -19 19 -32 22 -30 4 2 16 -3 28 -11 18
-12 20 -19 11 -35 -11 -22 -13 -28 -23 -101 -7 -49 1 -61 24 -33 7 8 16 12 21
9 9 -5 3 -112 -10 -161 -5 -17 -5 -35 0 -40 8 -8 9 -28 8 -90 0 -12 -7 -27
-15 -34 -13 -10 -12 -15 5 -33 20 -22 20 -22 1 -23 -12 -1 -20 4 -20 13 0 22
-22 40 -47 38 -13 -1 -23 3 -23 7 0 5 5 9 11 9 7 0 8 14 4 39 -4 22 -2 48 3
57 7 12 5 33 -7 68 -11 31 -16 75 -15 114 2 35 -2 62 -7 62 -6 0 -7 5 -3 12 4
7 3 8 -4 4 -7 -4 -12 -18 -12 -31 0 -13 -11 -37 -25 -53 -16 -20 -21 -32 -13
-34 7 -3 8 -10 4 -17 -6 -9 -13 -4 -24 19 -15 32 -15 34 9 54 13 11 29 37 35
56 l11 35 -63 2 c-60 1 -62 0 -67 -26 -3 -16 -2 -57 3 -92 5 -35 7 -74 4 -85
-3 -12 0 -33 7 -46 7 -12 13 -26 14 -30 0 -3 3 -10 7 -14 13 -13 47 40 49 76
l1 35 11 -28 c6 -15 17 -27 24 -27 7 0 13 -11 13 -27 0 -14 -3 -23 -6 -20 -4
3 -15 2 -26 -4 -14 -7 -18 -17 -14 -31 3 -12 1 -30 -5 -40 -5 -10 -6 -18 -2
-18 13 0 31 -57 23 -70 -5 -7 -15 -10 -23 -7 -19 7 -27 -12 -27 -69 0 -50 15
-59 23 -14 5 22 11 28 23 23 9 -3 20 0 24 7 11 18 40 5 40 -19 0 -11 5 -23 10
-26 6 -4 8 -11 5 -16 -4 -5 -1 -9 4 -9 22 0 11 -39 -11 -42 -16 -2 -24 -12
-28 -32 -5 -32 -30 -48 -30 -20 0 9 -3 14 -6 11 -4 -4 2 -28 14 -54 11 -26 23
-64 27 -84 5 -25 14 -40 30 -47 14 -7 26 -23 30 -44 4 -18 13 -40 21 -48 7 -9
14 -30 16 -48 2 -24 8 -34 30 -41 30 -11 34 -21 17 -38 -18 -18 -3 -46 18 -35
22 11 58 -1 66 -21 7 -20 -1 -27 -30 -27 -13 0 -23 -4 -23 -8 0 -23 35 -75 70
-104 33 -27 41 -41 45 -78 4 -29 15 -54 31 -71 21 -22 25 -33 19 -57 -5 -25
-2 -33 14 -42 23 -12 28 -49 10 -82 -9 -16 -6 -25 14 -47 48 -51 55 -91 13
-75 -12 4 -16 0 -16 -15 0 -12 6 -24 14 -27 8 -3 16 -18 19 -33 4 -17 31 -52
66 -86 34 -32 61 -67 61 -77 0 -10 7 -18 15 -18 8 0 15 -4 15 -9 0 -5 8 -17
17 -27 22 -21 25 -44 7 -44 -8 0 -14 -4 -14 -10 0 -5 13 -10 29 -10 22 0 28
-4 26 -17 -2 -10 -4 -21 -4 -25 -1 -3 -13 -10 -27 -15 l-25 -8 26 -29 26 -28
-22 -34 c-20 -32 -20 -34 -2 -40 46 -15 66 -26 57 -32 -6 -4 -10 -17 -10 -29
0 -18 3 -20 15 -10 12 10 14 9 8 -5 -3 -9 -1 -18 5 -20 7 -3 5 -14 -7 -31 -20
-30 -17 -37 13 -40 11 0 20 -4 19 -7 -1 -4 20 -29 46 -56 26 -27 58 -59 69
-72 15 -15 24 -19 29 -11 4 8 9 4 14 -10 4 -12 18 -26 32 -32 24 -9 27 -37 3
-31 -9 2 -11 -6 -7 -27 6 -28 4 -31 -26 -39 -33 -9 -72 2 -62 18 3 4 -6 3 -20
-3 -31 -15 -36 -39 -11 -52 15 -8 19 -22 20 -77 2 -78 -13 -110 -41 -87 -14
12 -15 12 -9 0 6 -9 5 -12 -5 -9 -8 3 -19 -5 -24 -16 -6 -12 -17 -21 -25 -21
-24 0 -60 -24 -60 -40 0 -16 -40 -46 -52 -39 -4 3 -8 -3 -9 -13 -1 -13 -3 -12
-7 5 -10 35 -26 27 -32 -15 -4 -30 -9 -38 -25 -38 -15 0 -21 -8 -23 -32 -3
-33 -25 -45 -35 -20 -8 17 -78 -58 -71 -76 4 -11 -8 -16 -44 -21 -56 -7 -66
-14 -51 -32 7 -8 7 -14 -1 -19 -5 -3 -10 -4 -10 0 0 3 -18 -6 -40 -20 -22 -14
-40 -22 -40 -19 0 4 -7 1 -15 -6 -10 -8 -14 -26 -12 -51 3 -33 0 -39 -17 -39
-20 0 -70 -5 -90 -8 -5 -1 -2 -10 7 -20 14 -15 22 -39 26 -74 2 -18 131 -50
210 -52 37 -1 44 2 52 22 11 29 35 23 31 -7 -1 -17 3 -22 15 -19 10 2 18 10
18 18 0 8 8 24 18 35 15 16 21 17 37 7 31 -19 54 -14 86 20 20 21 23 29 11 25
-12 -5 -16 -3 -11 4 4 7 26 9 56 7 34 -4 51 -1 54 7 3 7 19 16 36 19 44 9 71
35 57 53 -21 24 0 27 21 3 13 -15 20 -18 20 -9 0 12 2 12 9 1 13 -22 46 -10
49 18 4 29 28 51 48 43 20 -7 66 6 59 17 -7 12 15 25 24 14 3 -5 15 -10 26
-11 11 -1 32 -4 48 -8 22 -4 29 -1 39 20 13 29 25 31 48 10 22 -20 63 -9 55
15 -4 13 0 20 14 25 10 3 22 12 25 20 3 9 18 15 35 15 16 0 33 5 36 10 7 12
55 14 55 2 0 -4 -19 -15 -42 -23 -23 -9 -43 -20 -45 -26 -6 -18 27 -23 56 -8
16 8 31 11 35 8 12 -12 6 -40 -13 -57 -27 -25 -35 -63 -17 -82 8 -8 12 -22 9
-31 -5 -12 -2 -15 10 -10 8 3 20 0 26 -7 13 -15 -24 -50 -44 -42 -22 8 -42
-26 -40 -68 1 -21 -6 -53 -15 -72 -10 -18 -16 -44 -15 -58 2 -18 -1 -23 -11
-19 -10 4 -14 -3 -14 -20 0 -32 14 -41 39 -25 15 9 23 9 34 -1 8 -6 26 -9 39
-6 27 6 130 16 170 15 15 0 29 4 33 10 3 5 17 10 30 10 13 0 27 4 30 10 3 5
16 10 28 10 60 0 136 19 174 43 24 15 54 27 67 27 14 0 27 4 30 9 4 5 28 14
54 20 56 12 118 37 127 51 3 5 17 10 29 10 13 0 29 7 36 15 7 8 23 15 36 15
14 0 33 6 44 13 14 8 23 9 28 1 11 -16 80 -45 99 -42 24 4 24 -32 1 -53 -20
-18 -24 -39 -7 -39 5 0 7 -5 4 -10 -4 -7 -35 -8 -83 -5 -71 6 -75 5 -58 -9 11
-9 28 -14 38 -10 10 3 18 1 18 -5 0 -5 -10 -11 -22 -13 -19 -2 -22 -8 -20 -33
5 -39 25 -52 76 -49 31 1 42 6 45 20 2 11 10 23 17 27 8 5 12 12 9 18 -4 5 7
14 22 21 15 7 39 20 52 30 l24 18 -27 0 c-25 0 -27 3 -24 31 4 45 33 61 56 32
14 -19 20 -20 34 -9 10 7 14 17 10 21 -4 5 -2 5 5 1 13 -7 10 -33 -5 -63 -21
-41 13 -103 52 -96 16 3 26 12 26 22 0 10 2 20 5 23 9 9 85 -33 85 -47 0 -20
20 -29 33 -16 6 6 23 11 38 11 19 0 34 9 49 30 12 17 28 30 36 30 9 0 27 14
41 30 13 17 31 30 39 30 8 0 30 16 50 35 19 19 40 35 47 35 7 0 34 23 61 50
27 28 53 50 58 50 4 0 8 7 8 15 0 8 4 15 8 15 5 0 8 -19 8 -42 -1 -37 2 -43
19 -41 11 1 24 -5 28 -13 4 -8 17 -14 27 -14 11 0 20 -4 20 -10 0 -5 5 -10 10
-10 18 0 10 51 -17 106 -25 51 -29 55 -54 50 -37 -7 -46 18 -15 41 l24 18 -24
64 c-13 35 -24 79 -24 98 0 18 -11 56 -25 83 -18 35 -25 66 -25 104 0 36 -5
60 -16 70 -25 26 -26 76 -4 156 34 120 35 144 9 181 l-22 32 22 16 22 17 -31
59 c-27 51 -31 68 -26 110 2 27 9 91 14 142 l8 91 63 71 c36 41 75 74 90 78
30 7 125 63 268 156 56 37 111 67 123 67 11 0 23 7 26 15 9 21 79 44 174 55
47 5 101 14 120 20 19 5 55 10 79 10 86 0 539 96 686 145 87 29 161 49 179 47
11 0 32 8 47 18 15 11 38 20 51 20 53 0 385 149 503 225 28 18 81 49 119 69
38 20 85 49 105 64 20 16 63 45 96 66 118 76 140 91 153 109 8 10 34 27 58 39
26 12 51 33 60 49 8 17 23 29 34 29 10 0 30 5 44 12 21 9 33 8 63 -5 55 -23
136 -31 192 -17 42 10 63 26 163 126 83 83 118 124 126 152 12 39 131 181 163
194 35 14 103 69 125 101 30 44 62 65 124 78 28 6 54 17 57 25 3 8 13 14 23
14 9 0 39 20 66 45 27 25 65 49 85 55 25 7 41 20 55 45 10 19 25 37 34 40 8 3
35 23 60 45 25 22 50 40 56 40 6 0 18 7 25 16 11 14 10 18 -6 31 -20 15 -20
15 1 9 13 -4 28 1 42 14 11 11 28 20 36 20 25 0 74 49 81 80 4 17 12 30 19 30
7 0 18 11 24 24 6 13 35 37 64 54 29 17 71 49 93 71 25 26 53 43 75 47 76 15
189 82 221 132 9 15 38 49 63 75 25 27 46 52 46 57 0 4 14 13 31 20 17 7 42
30 55 51 13 21 36 45 51 53 16 8 39 29 53 48 23 32 140 158 169 181 8 7 44 41
81 77 38 36 85 79 106 95 20 17 56 48 78 71 23 22 66 57 97 77 52 33 90 72
147 146 26 35 102 72 147 73 17 0 37 6 45 13 8 7 36 20 62 30 26 10 50 26 53
36 3 10 14 21 24 24 10 3 23 17 29 30 6 14 17 25 23 25 16 0 109 97 109 114 0
7 6 19 14 25 7 6 16 25 20 42 5 28 9 31 37 27 28 -4 33 -1 45 28 8 18 14 44
14 56 0 13 9 48 21 78 12 30 29 82 39 115 30 104 37 117 61 110 43 -14 87 4
136 56 52 55 191 129 242 129 23 0 44 16 102 80 41 44 81 82 90 85 9 3 21 15
27 28 51 101 127 212 172 252 12 11 31 36 41 57 10 20 30 45 44 56 14 11 25
24 25 29 0 4 8 24 19 43 10 19 21 46 26 60 17 58 49 111 75 125 27 14 80 105
80 138 0 7 14 29 30 47 l30 34 0 1366 0 1366 -37 36 c-35 33 -98 67 -150 83
-14 4 -23 15 -24 28 -6 109 -6 158 2 163 5 3 7 20 4 37 -4 19 1 51 10 77 9 25
18 52 20 60 2 8 7 25 10 36 5 16 0 27 -19 42 -14 11 -26 29 -26 40 0 12 -4 32
-10 47 -7 18 -6 40 2 71 10 35 10 49 0 62 -7 9 -16 27 -22 40 -10 24 -21 27
-36 12 -7 -7 -16 2 -29 31 l-19 41 23 17 c20 15 21 19 7 30 -9 8 -16 24 -16
38 0 55 -179 249 -308 332 -91 60 -102 73 -102 125 0 31 -6 39 -39 60 -30 20
-38 30 -34 48 4 18 -5 30 -41 55 -53 37 -65 70 -41 106 18 28 24 143 10 187
-10 31 -135 175 -189 217 -22 18 -51 33 -63 33 -25 0 -39 16 -21 24 7 3 3 3
-9 0 -15 -3 -25 1 -33 16 -6 12 -27 28 -47 36 -28 12 -34 19 -30 36 6 20 -11
42 -64 83 -35 28 -61 69 -54 88 7 16 -21 55 -70 97 -71 61 -96 90 -101 120 -8
36 -28 48 -55 32 -10 -7 -25 -12 -34 -12 -19 0 -104 58 -128 88 -11 12 -30 22
-45 22 -31 0 -92 21 -92 32 0 4 -10 8 -23 8 -12 0 -33 7 -46 16 -13 9 -42 17
-65 18 -33 1 -41 4 -39 20 1 15 -4 17 -28 12 -33 -6 -106 8 -159 32 -19 9 -65
16 -101 18 -38 1 -79 9 -98 19 -23 11 -44 15 -70 10 -34 -6 -41 -3 -65 25 -20
24 -31 30 -47 25 -13 -5 -25 -2 -30 6 -6 11 -13 11 -36 0 -82 -39 -111 -44
-123 -20 -13 24 -32 24 -111 -2 -73 -23 -121 -27 -127 -11 -5 15 -35 15 -49 1
-8 -8 -22 0 -51 30 -34 35 -47 41 -95 47 -42 5 -60 12 -71 28 -7 12 -33 35
-57 51 -55 37 -59 43 -52 75 4 21 -3 33 -36 63 -23 20 -46 37 -51 37 -6 0 -10
6 -10 13 0 21 -85 58 -151 67 -35 4 -77 13 -92 19 -35 14 -97 14 -117 1z
m1245 -430 c-3 -5 -13 -10 -21 -10 -8 0 -12 5 -9 10 3 6 13 10 21 10 8 0 12
-4 9 -10z m-3184 -1507 c13 -15 12 -15 -8 -4 -24 12 -29 21 -14 21 5 0 15 -7
22 -17z m569 -73 c-21 -13 33 -13 80 0 47 14 57 -2 15 -24 -31 -17 -35 -24
-35 -58 0 -21 -4 -38 -9 -38 -15 0 -20 15 -11 30 5 9 5 19 -1 27 -8 9 -18 9
-44 -4 -45 -21 -68 -12 -55 22 5 14 7 25 4 25 -2 0 1 7 8 15 7 8 24 14 38 14
20 1 22 -1 10 -9z m-887 -27 c4 -2 7 -11 7 -19 0 -12 -12 -14 -60 -10 -52 3
-62 1 -71 -15 -12 -23 -19 -24 -45 -5 -15 12 -17 17 -6 28 28 28 138 42 175
21z m1426 -12 c10 -6 10 -10 1 -16 -7 -4 -19 0 -28 9 -14 13 -14 16 -2 16 8 0
21 -4 29 -9z m120 -37 c14 -12 -19 -1 -35 12 -18 14 -18 14 6 3 14 -6 27 -13
29 -15z m-1601 -25 c-2 -6 -8 -10 -13 -10 -5 0 -11 4 -13 10 -2 6 4 11 13 11
9 0 15 -5 13 -11z m1237 -99 c34 -13 26 -26 -17 -25 -23 0 -34 5 -36 18 -4 19
14 22 53 7z m115 0 c0 -5 -4 -10 -10 -10 -5 0 -10 5 -10 10 0 6 5 10 10 10 6
0 10 -4 10 -10z m-1870 -25 c0 -2 -9 -9 -19 -15 -21 -11 -54 -3 -45 11 5 9 64
13 64 4z m6456 -411 c-5 -13 -10 -14 -18 -6 -6 6 -8 18 -4 28 5 13 10 14 18 6
6 -6 8 -18 4 -28z m-3641 -184 c-6 -9 -9 -9 -16 1 -10 17 0 34 13 21 6 -6 7
-16 3 -22z m-3480 -215 c0 -5 -26 -11 -57 -12 -59 -2 -80 12 -30 20 43 7 87 3
87 -8z m4020 -275 c3 -5 1 -10 -4 -10 -6 0 -11 5 -11 10 0 6 2 10 4 10 3 0 8
-4 11 -10z m55 -33 c15 -12 40 -51 40 -62 0 -3 -9 4 -20 15 -11 11 -27 20 -35
20 -8 0 -15 9 -15 20 0 23 8 25 30 7z m100 -131 c0 -2 -3 -12 -6 -20 -5 -13
-9 -14 -20 -5 -16 13 -9 29 12 29 8 0 14 -2 14 -4z m33 -51 c2 -33 -14 -42
-29 -17 -14 21 1 71 17 55 5 -5 11 -22 12 -38z m-5098 -55 c3 -5 -1 -10 -10
-10 -9 0 -13 5 -10 10 3 6 8 10 10 10 2 0 7 -4 10 -10z m5420 -170 c3 -5 1
-10 -4 -10 -6 0 -11 5 -11 10 0 6 2 10 4 10 3 0 8 -4 11 -10z m650 -680 c3 -5
-1 -10 -10 -10 -9 0 -13 5 -10 10 3 6 8 10 10 10 2 0 7 -4 10 -10z m450 -1878
c-3 -3 -11 0 -18 7 -9 10 -8 11 6 5 10 -3 15 -9 12 -12z m-309 -429 c-11 -11
-19 6 -11 24 8 17 8 17 12 0 3 -10 2 -21 -1 -24z m314 -214 c0 -11 -7 -19 -15
-19 -10 0 -15 10 -15 31 0 27 2 30 15 19 8 -7 15 -21 15 -31z m-40 -73 c0 -8
-6 -19 -14 -25 -20 -16 -30 3 -16 29 11 21 30 19 30 -4z m-489 -63 c-10 -17
-10 -16 -11 3 0 23 13 41 18 25 2 -6 -1 -18 -7 -28z m0 -78 c1 -17 -18 -17
-25 0 -4 11 -1 15 10 13 8 -2 15 -7 15 -13z m-281 -195 c0 -5 -4 -10 -9 -10
-6 0 -13 5 -16 10 -3 6 1 10 9 10 9 0 16 -4 16 -10z m-2043 -43 c16 -20 28
-23 68 -21 56 4 101 -18 109 -53 5 -19 11 -22 36 -16 21 4 36 0 48 -10 9 -9
28 -21 42 -27 97 -43 260 -162 260 -190 0 -6 4 -10 9 -10 5 0 14 -14 20 -32 8
-24 8 -38 -1 -60 -12 -26 -41 -36 -38 -14 1 5 -16 17 -37 27 -21 9 -49 29 -63
44 -14 15 -44 35 -66 45 -23 10 -63 34 -89 54 -25 20 -54 36 -62 36 -9 0 -25
7 -35 16 -9 9 -37 18 -60 20 -43 3 -58 17 -68 63 -4 22 -11 25 -50 28 -73 5
-103 11 -111 24 -4 6 -14 9 -23 6 -10 -4 -16 -1 -16 7 0 16 35 58 43 50 3 -3
10 4 17 15 14 28 42 27 67 -2z m-987 -48 c0 -5 -9 -9 -20 -9 -22 0 -27 16 -7
23 15 5 27 -1 27 -14z m570 -19 c0 -11 -7 -20 -15 -20 -17 0 -18 2 -9 24 9 23
24 20 24 -4z m-407 -67 c6 -33 1 -43 -22 -43 -15 0 -20 20 -12 63 3 19 29 4
34 -20z m1480 -25 c7 -7 18 -26 25 -41 9 -22 17 -27 32 -22 15 5 20 2 20 -14
0 -11 9 -22 20 -26 26 -8 70 -73 70 -102 0 -24 -33 -33 -46 -12 -3 6 -17 8
-29 5 -34 -9 -55 3 -55 29 0 12 -9 30 -20 40 -11 10 -20 26 -20 35 0 10 -7 23
-15 30 -11 9 -12 17 -4 32 8 15 7 24 -7 39 -16 18 -16 19 0 19 10 0 23 -6 29
-12z m-63 -8 c0 -5 -5 -10 -11 -10 -5 0 -7 5 -4 10 3 6 8 10 11 10 2 0 4 -4 4
-10z m1255 0 c3 -5 -1 -10 -9 -10 -9 0 -16 5 -16 10 0 6 4 10 9 10 6 0 13 -4
16 -10z m-1465 -240 c0 -14 -14 -12 -28 2 -19 19 -14 30 8 18 11 -6 20 -15 20
-20z m-107 5 c7 -16 -8 -29 -23 -20 -10 6 -2 35 10 35 4 0 10 -7 13 -15z
m-1411 -89 c4 -19 1 -23 -19 -23 -13 0 -26 3 -29 8 -3 5 0 9 7 9 8 0 8 4 -1
15 -11 13 -9 15 13 15 18 0 26 -6 29 -24z m-4362 -136 c-11 -21 -22 -25 -33
-13 -7 6 21 32 36 33 4 0 3 -9 -3 -20z m-412 -53 c2 -10 -3 -17 -12 -17 -18 0
-29 16 -21 31 9 14 29 6 33 -14z m802 -104 c0 -20 -24 -11 -28 10 -2 12 1 15
12 11 9 -3 16 -13 16 -21z m545 17 c-3 -5 -10 -10 -16 -10 -5 0 -9 5 -9 10 0
6 7 10 16 10 8 0 12 -4 9 -10z m-948 -52 c-3 -7 -5 -2 -5 12 0 14 2 19 5 13 2
-7 2 -19 0 -25z m540 -160 c-2 -7 3 -22 12 -33 11 -14 8 -13 -11 4 -26 23 -29
41 -7 41 6 0 9 -6 6 -12z m2160 -70 c-3 -7 -5 -2 -5 12 0 14 2 19 5 13 2 -7 2
-19 0 -25z m3023 -74 c0 -8 -4 -12 -10 -9 -5 3 -10 10 -10 16 0 5 5 9 10 9 6
0 10 -7 10 -16z m-5479 -87 c-1 -12 -15 -9 -19 4 -3 6 1 10 8 8 6 -3 11 -8 11
-12z m79 -68 c0 -5 -7 -9 -15 -9 -8 0 -15 6 -15 14 0 7 -9 16 -21 19 -12 3
-18 10 -14 17 7 11 65 -24 65 -41z m1380 -84 c10 -13 9 -15 -9 -15 -12 0 -21
6 -21 15 0 8 4 15 9 15 5 0 14 -7 21 -15z m-1685 -25 c10 -19 23 -30 38 -30
40 -1 66 -35 43 -57 -5 -4 -6 -3 -3 3 6 11 -1 13 -70 17 -16 1 -31 6 -35 12
-15 20 -8 85 8 85 2 0 10 -13 19 -30z m286 -62 c6 -12 2 -21 -16 -32 -32 -21
-42 -20 -55 5 -12 22 -2 67 22 93 11 12 15 10 27 -17 7 -18 17 -39 22 -49z
m-927 6 c8 -20 -1 -34 -21 -34 -10 0 -13 6 -9 16 3 9 6 20 6 25 0 15 17 10 24
-7z m588 -40 c14 -14 21 -14 32 -4 16 13 17 10 30 -67 6 -37 2 -39 -34 -18
-14 8 -37 14 -52 15 -30 0 -32 7 -22 59 7 35 19 39 46 15z m-622 -43 c0 -15
-4 -31 -9 -36 -5 -6 -5 -33 1 -65 18 -109 21 -143 9 -136 -6 4 -11 15 -11 25
0 10 -11 35 -25 56 -23 33 -25 41 -15 70 6 18 8 45 4 59 -4 19 -2 28 10 32 12
4 15 13 10 28 -6 18 -5 19 10 7 9 -7 16 -25 16 -40z m4464 0 c3 -5 -1 -11 -9
-15 -15 -6 -29 7 -18 18 9 9 21 8 27 -3z m2469 -167 c-2 -5 -7 -9 -13 -8 -27
3 -31 5 -26 13 8 12 42 7 39 -5z m-6253 -55 c0 -15 -26 -39 -43 -39 -7 0 -15
63 -10 77 7 18 53 -15 53 -38z m194 34 c5 -11 0 -23 -13 -33 -12 -9 -19 -23
-16 -35 2 -11 4 -23 4 -27 1 -5 8 -8 17 -8 9 0 26 -8 39 -18 23 -18 23 -19 4
-33 -21 -15 -25 -44 -9 -54 8 -5 8 -11 1 -19 -6 -7 -8 -16 -4 -19 3 -4 1 -7
-6 -7 -18 0 17 -48 40 -55 11 -4 17 -10 14 -15 -3 -4 4 -10 15 -13 11 -3 23 0
27 6 12 20 14 47 2 47 -5 0 -7 5 -4 10 3 6 -1 10 -9 10 -18 0 -40 36 -31 50 3
6 19 10 34 10 15 0 32 5 39 12 14 14 22 8 27 -19 1 -10 8 -17 15 -15 6 1 9 -2
6 -7 -4 -5 0 -16 9 -24 8 -8 12 -25 10 -36 -2 -13 2 -24 10 -28 8 -3 13 -9 10
-13 -2 -4 4 -15 15 -25 11 -10 20 -15 20 -11 0 4 9 2 20 -4 11 -6 20 -21 20
-35 0 -29 -18 -43 -26 -21 -12 31 -23 5 -17 -39 4 -32 0 -52 -11 -70 -17 -25
-7 -41 19 -31 9 3 19 -3 26 -15 13 -26 26 -14 31 26 4 42 34 46 43 6 4 -17 6
-33 6 -36 -1 -3 7 -13 17 -23 29 -29 21 -90 -16 -131 -27 -30 -33 -61 -12 -61
15 0 21 18 8 24 -7 3 -4 4 7 3 16 -2 20 -10 20 -37 0 -25 9 -44 29 -65 16 -16
35 -40 43 -52 9 -13 21 -23 27 -23 7 0 23 -14 36 -30 34 -41 83 -90 92 -90 4
0 14 -16 22 -35 8 -19 20 -35 26 -35 6 0 8 -4 5 -10 -3 -5 1 -10 10 -10 8 0
19 -8 23 -19 14 -36 114 -131 138 -131 3 0 22 -13 41 -30 18 -16 37 -30 41
-30 4 0 16 -13 27 -30 11 -16 34 -37 52 -47 18 -9 37 -29 43 -43 12 -30 63
-53 98 -44 14 4 22 2 22 -7 0 -7 17 -37 37 -66 30 -44 43 -54 74 -59 38 -6 56
-27 61 -74 2 -15 12 -29 26 -35 23 -10 29 -29 12 -40 -7 -4 -7 -13 0 -24 16
-31 -10 -45 -37 -19 -13 12 -23 17 -23 11 0 -5 -9 -20 -20 -33 -11 -13 -20
-31 -20 -41 0 -25 -21 -35 -32 -15 -11 20 -28 21 -28 1 0 -13 -19 -20 -43 -16
-5 1 -6 -3 -3 -8 8 -12 -39 -22 -95 -21 -24 1 -56 -2 -71 -5 -20 -5 -29 -3
-34 8 -3 9 -12 13 -19 10 -8 -2 -28 5 -44 16 -16 12 -34 21 -40 21 -20 0 -111
50 -111 60 0 6 -4 10 -10 10 -5 0 -10 -9 -10 -20 0 -32 -29 -23 -51 15 -20 34
-39 46 -39 25 0 -6 -20 -9 -50 -8 -47 3 -50 5 -73 48 -15 28 -32 46 -47 50
-15 4 -26 15 -30 30 -7 30 -58 41 -72 16 -14 -25 -38 -19 -38 10 0 28 -16 65
-34 76 -15 11 -56 10 -56 -1 0 -5 -9 -11 -20 -14 -17 -4 -19 -1 -14 19 5 20 2
24 -16 24 -11 0 -19 4 -15 9 6 10 -27 7 -44 -4 -5 -3 -12 -1 -16 5 -3 5 -19 7
-35 3 -24 -4 -30 -2 -30 11 0 10 -6 24 -14 32 -16 15 -10 57 8 51 6 -2 17 -16
24 -30 16 -32 38 -35 45 -6 3 12 10 18 16 15 5 -4 13 -1 17 5 11 18 -27 41
-56 33 -14 -3 -35 -7 -47 -9 -13 -1 -30 -8 -39 -15 -19 -17 -30 -3 -40 50 -8
41 -20 59 -50 70 -16 6 -21 15 -17 28 3 14 0 19 -14 19 -35 0 -43 3 -43 18 0
8 -4 15 -10 15 -5 0 -10 -7 -10 -15 0 -8 -9 -19 -20 -25 -11 -6 -23 -22 -26
-37 -6 -21 -8 -23 -16 -9 -5 9 -15 16 -23 16 -12 0 -12 5 1 35 8 19 11 35 8
35 -4 0 -1 7 6 15 13 16 7 45 -10 45 -5 0 -9 -10 -7 -22 1 -14 -4 -23 -15 -26
-14 -3 -18 3 -18 24 0 15 -8 36 -17 46 -12 13 -13 22 -6 29 8 8 14 5 22 -10 7
-12 18 -21 26 -21 20 0 20 49 0 56 -17 7 -45 59 -45 84 0 9 6 22 13 29 7 7 -4
5 -26 -5 -43 -21 -59 -12 -62 33 -3 48 -5 53 -15 53 -5 0 -10 -14 -10 -31 0
-24 -4 -30 -17 -27 -14 3 -17 12 -16 38 6 77 13 100 33 100 12 0 20 7 20 16 0
12 6 15 25 10 27 -7 30 -4 15 23 -7 13 -22 19 -55 19 -25 1 -53 6 -64 11 -22
12 -34 61 -18 79 8 10 4 19 -19 37 -36 29 -26 43 33 46 51 3 59 -2 42 -30 -7
-11 -11 -23 -8 -26 11 -11 61 15 66 35 3 10 14 20 26 22 37 6 32 28 -7 28 -36
0 -36 0 -34 42 3 39 1 42 -29 50 -41 11 -47 22 -28 52 11 17 22 22 37 18 20
-5 20 -4 4 20 -14 21 -15 30 -5 52 10 21 9 29 -4 43 -11 13 -14 27 -8 53 8 39
37 53 48 23 11 -30 63 -103 74 -103 5 0 13 8 16 18 4 9 11 20 16 23 17 12 -4
30 -31 27 -26 -3 -27 -2 -27 52 -1 76 3 85 26 64 10 -9 16 -20 14 -24 -7 -11
74 -92 85 -85 15 9 12 41 -5 55 -14 11 -14 15 2 32 9 11 25 17 34 15 9 -3 23
-1 30 4 11 7 12 12 2 29 -18 28 -17 33 22 80 19 23 35 48 35 55 0 31 64 46 74
18z m2926 -18 c0 -8 -7 -15 -15 -15 -8 0 -15 7 -15 15 0 8 7 15 15 15 8 0 15
-7 15 -15z m-3732 -68 c2 -10 -3 -17 -12 -17 -18 0 -29 16 -21 31 9 14 29 6
33 -14z m227 -37 c-3 -5 -11 -10 -16 -10 -6 0 -7 5 -4 10 3 6 11 10 16 10 6 0
7 -4 4 -10z m2605 -55 c0 -8 -6 -12 -14 -9 -8 3 -12 12 -9 20 6 17 23 9 23
-11z m4440 -105 c0 -5 -2 -10 -4 -10 -3 0 -8 5 -11 10 -3 6 -1 10 4 10 6 0 11
-4 11 -10z m-7140 -24 c0 -15 -55 -48 -64 -38 -12 12 -5 28 17 38 32 16 47 16
47 0z m7070 -90 c0 -9 -15 -13 -47 -13 -27 0 -58 -3 -70 -7 -18 -6 -23 -5 -23
7 0 19 21 26 73 25 21 0 41 3 44 6 8 8 23 -3 23 -18z m-6028 -11 c-5 -28 -8
-30 -26 -12 -17 16 -9 37 13 37 14 0 17 -6 13 -25z m-32 -41 c0 -17 -22 -14
-28 4 -2 7 3 12 12 12 9 0 16 -7 16 -16z m5920 13 c0 -2 -9 -14 -20 -27 -15
-18 -23 -21 -32 -12 -15 15 7 42 33 42 11 0 19 -2 19 -3z m-886 -78 c-10 -16
-22 -9 -27 16 -4 24 -3 25 14 9 10 -9 16 -21 13 -25z m-4954 10 c0 -6 -4 -7
-10 -4 -5 3 -10 11 -10 16 0 6 5 7 10 4 6 -3 10 -11 10 -16z m5794 -31 c-7
-11 -32 -10 -39 2 -11 18 5 30 25 18 10 -7 16 -16 14 -20z m-2851 -151 c-9
-16 -24 9 -17 28 7 18 8 18 14 -1 4 -10 5 -23 3 -27z m267 18 c0 -8 -4 -17
-10 -20 -6 -4 -10 5 -10 20 0 15 4 24 10 20 6 -3 10 -12 10 -20z m-80 -15 c0
-5 -2 -10 -4 -10 -3 0 -8 5 -11 10 -3 6 -1 10 4 10 6 0 11 -4 11 -10z m-3060
-166 c0 -14 -12 -19 -23 -8 -9 9 4 35 14 28 5 -3 9 -12 9 -20z m-952 -155 c-2
-30 -22 -39 -31 -15 -3 8 -3 23 0 34 8 31 34 15 31 -19z m-728 -65 c0 -8 -4
-14 -10 -14 -5 0 -13 -1 -17 -2 -3 -2 -7 7 -9 19 -3 17 0 20 16 16 11 -3 20
-12 20 -19z m4755 -15 c-4 -11 -2 -26 5 -34 12 -14 -2 -31 -19 -21 -15 10 -22
69 -9 77 18 11 30 0 23 -22z m-45 -65 c0 -9 -5 -14 -12 -12 -18 6 -21 28 -4
28 9 0 16 -7 16 -16z m387 -74 c2 -12 -3 -20 -10 -20 -11 0 -14 18 -8 49 2 10
15 -11 18 -29z m-1360 -6 c-3 -3 -12 -4 -19 -1 -8 3 -5 6 6 6 11 1 17 -2 13
-5z m1293 -24 c12 -12 26 -18 33 -14 8 5 9 4 2 -3 -5 -6 -22 -13 -37 -17 -21
-5 -30 -2 -38 13 -23 44 4 57 40 21z m-996 -5 c9 -23 -35 -40 -64 -25 -25 13
-17 26 20 33 14 2 28 5 31 6 4 0 10 -6 13 -14z m-3194 -5 c0 -5 -5 -10 -11
-10 -5 0 -7 5 -4 10 3 6 8 10 11 10 2 0 4 -4 4 -10z m2009 -89 c10 -10 25 -21
32 -23 8 -3 12 -8 9 -11 -7 -8 -92 11 -104 23 -8 8 14 22 42 29 1 1 10 -7 21
-18z m869 13 c12 -4 22 -13 22 -21 0 -10 -6 -13 -16 -9 -9 3 -22 6 -30 6 -8 0
-14 7 -14 15 0 17 4 18 38 9z m-2797 -47 c-13 -13 -26 -3 -16 12 3 6 11 8 17
5 6 -4 6 -10 -1 -17z m2163 -24 c4 -4 15 -8 23 -8 34 0 22 -22 -14 -28 -40 -7
-72 11 -59 32 8 12 39 15 50 4z m546 -9 c0 -9 -5 -14 -12 -12 -18 6 -21 28 -4
28 9 0 16 -7 16 -16z m-350 -24 c0 -5 -4 -10 -10 -10 -5 0 -10 5 -10 10 0 6 5
10 10 10 6 0 10 -4 10 -10z m1586 -69 c30 5 34 -2 17 -26 -18 -24 -46 -31 -77
-19 -21 8 -20 20 5 45 15 15 24 18 34 9 7 -6 17 -10 21 -9z m-162 -17 c17 -17
8 -34 -26 -47 -11 -4 -15 -12 -12 -22 3 -8 2 -15 -3 -15 -17 0 -23 13 -12 27
6 7 9 13 5 13 -4 0 0 14 9 30 18 35 19 35 39 14z m-124 -163 c0 -24 -56 -49
-73 -32 -8 8 -8 11 1 11 7 0 12 7 12 15 0 16 39 36 53 28 4 -2 7 -12 7 -22z
m858 4 c-3 -3 -9 2 -12 12 -6 14 -5 15 5 6 7 -7 10 -15 7 -18z m-4063 -15 c3
-5 1 -10 -4 -10 -6 0 -11 5 -11 10 0 6 2 10 4 10 3 0 8 -4 11 -10z m-885 -140
c0 -5 -4 -10 -10 -10 -5 0 -10 5 -10 10 0 6 5 10 10 10 6 0 10 -4 10 -10z
m2078 -85 c12 -15 26 -23 35 -19 27 10 28 -14 1 -35 -33 -26 -56 -27 -79 -1
-10 11 -25 20 -34 20 -14 0 -14 2 -1 10 8 5 16 14 16 20 1 5 2 15 3 20 2 19
40 10 59 -15z m-1995 -37 c-6 -7 -9 -21 -8 -30 4 -23 -11 -23 -19 -2 -7 17 9
44 26 44 7 0 7 -4 1 -12z m1662 -58 c10 -17 -15 -40 -42 -40 l-25 0 23 25 c27
27 35 30 44 15z m483 -28 c2 -7 -6 -12 -17 -12 -21 0 -27 11 -14 24 9 9 26 2
31 -12z m-388 -62 c0 -11 -4 -20 -10 -20 -5 0 -10 9 -10 20 0 11 5 20 10 20 6
0 10 -9 10 -20z m610 -176 c0 -8 -4 -12 -10 -9 -5 3 -10 10 -10 16 0 5 5 9 10
9 6 0 10 -7 10 -16z m-2203 -869 c-2 -19 -8 -40 -14 -46 -9 -9 -11 -7 -8 7 2
11 4 21 5 24 1 3 1 15 0 28 -1 12 3 22 9 22 6 0 9 -15 8 -35z m128 -101 c14
14 18 14 31 2 7 -8 19 -16 26 -18 9 -3 9 -8 -2 -20 -11 -12 -19 -13 -34 -4
-14 8 -20 8 -23 -1 -7 -20 -31 -15 -38 7 -4 11 -10 18 -15 15 -4 -3 -7 3 -5
12 2 10 4 20 4 22 1 2 10 -4 21 -14 18 -16 20 -16 35 -1z m112 -140 c-3 -3
-12 -4 -19 -1 -8 3 -5 6 6 6 11 1 17 -2 13 -5z m1788 -633 c-9 -8 -36 30 -29
40 4 8 11 3 20 -12 7 -13 11 -26 9 -28z m-52 -15 c3 -8 1 -17 -6 -20 -7 -3 -2
-3 11 0 16 4 22 1 22 -10 0 -19 -4 -20 -33 -5 -29 16 -28 14 -21 33 8 20 20
21 27 2z m-73 -41 c-7 -8 -10 -15 -6 -15 3 0 -2 -9 -11 -19 -41 -45 -42 -48
-33 -83 6 -18 10 -34 10 -35 0 -2 -18 -3 -39 -3 -33 0 -39 3 -36 18 3 18 0 18
-49 7 -29 -7 -62 -17 -73 -23 -18 -10 -22 -8 -28 15 -8 34 0 41 61 52 56 11
119 44 128 66 3 9 18 15 35 15 16 0 33 5 36 10 3 6 9 10 12 10 3 0 0 -7 -7
-15z m-1270 -198 c0 -20 -30 -58 -41 -52 -5 4 -9 1 -9 -5 0 -6 -4 -9 -9 -6 -4
3 -6 17 -3 31 4 23 13 30 35 26 4 0 7 4 7 9 0 6 5 10 10 10 6 0 10 -6 10 -13z
m1570 3 c0 -5 -7 -10 -15 -10 -8 0 -15 5 -15 10 0 6 7 10 15 10 8 0 15 -4 15
-10z m-350 -114 c0 -9 -30 -14 -35 -6 -4 6 3 10 14 10 12 0 21 -2 21 -4z"/>
<path d="M11041 6496 c-8 -10 -9 -16 -1 -21 5 -3 13 1 16 10 9 22 -1 29 -15
11z"/>
<path d="M5679 4668 c-7 -24 -5 -38 7 -38 8 0 14 9 14 20 0 11 -4 20 -10 20
-5 0 -10 -1 -11 -2z"/>
<path d="M5547 4593 c-4 -21 -8 -45 -9 -53 -2 -8 2 -16 7 -17 6 -2 10 0 11 5
0 4 6 25 12 47 15 51 15 55 -2 55 -8 0 -16 -15 -19 -37z"/>
<path d="M5321 4524 c0 -11 3 -14 6 -6 3 7 2 16 -1 19 -3 4 -6 -2 -5 -13z"/>
<path d="M5737 4513 c-4 -3 -7 -11 -7 -17 0 -6 5 -5 12 2 6 6 9 14 7 17 -3 3
-9 2 -12 -2z"/>
<path d="M5390 4435 c0 -11 12 -15 44 -15 30 0 46 -5 50 -15 9 -23 26 -18 26
9 0 19 -6 24 -37 30 -61 10 -83 7 -83 -9z"/>
<path d="M5700 4434 c0 -12 29 -28 37 -21 2 2 1 11 -2 19 -7 18 -35 20 -35 2z"/>
<path d="M5357 4379 c-21 -12 -22 -42 -3 -58 12 -10 17 -8 25 8 22 40 10 67
-22 50z"/>
<path d="M5571 4064 c0 -11 3 -14 6 -6 3 7 2 16 -1 19 -3 4 -6 -2 -5 -13z"/>
<path d="M5478 3883 c-11 -3 -18 -14 -18 -28 0 -27 15 -41 26 -24 6 10 16 61
11 58 -1 -1 -10 -3 -19 -6z"/>
<path d="M5440 3766 c0 -9 7 -19 15 -23 25 -9 27 2 5 22 -18 17 -20 17 -20 1z"/>
<path d="M5677 3626 c-3 -8 1 -17 10 -20 20 -8 27 -1 20 19 -8 19 -23 20 -30
1z"/>
<path d="M5495 3590 c-3 -5 3 -10 14 -10 12 0 21 5 21 10 0 6 -6 10 -14 10 -8
0 -18 -4 -21 -10z"/>
<path d="M5600 3540 c0 -25 28 -46 42 -32 15 15 4 38 -21 45 -16 4 -21 0 -21
-13z"/>
<path d="M5773 3472 c-49 -5 -40 -22 12 -22 25 0 45 4 45 9 0 12 -20 17 -57
13z"/>
<path d="M5853 3313 c-27 -10 -12 -30 22 -31 21 -1 33 3 30 8 -9 15 -39 28
-52 23z"/>
<path d="M5960 3240 c0 -5 5 -10 11 -10 5 0 7 5 4 10 -3 6 -8 10 -11 10 -2 0
-4 -4 -4 -10z"/>
<path d="M9960 11984 c0 -9 7 -14 17 -12 25 5 28 28 4 28 -12 0 -21 -6 -21
-16z"/>
<path d="M10350 11670 c0 -13 5 -20 13 -17 6 2 12 10 12 17 0 7 -6 15 -12 18
-8 2 -13 -5 -13 -18z"/>
<path d="M8935 11490 c-3 -4 8 -10 25 -12 16 -2 27 -1 25 3 -7 11 -44 18 -50
9z"/>
<path d="M8870 11108 c0 -18 18 -34 28 -24 3 4 -2 14 -11 23 -16 16 -17 16
-17 1z"/>
<path d="M11796 10881 c-4 -7 -5 -15 -2 -18 9 -9 19 4 14 18 -4 11 -6 11 -12
0z"/>
<path d="M8590 10226 c0 -9 5 -16 10 -16 6 0 10 4 10 9 0 6 -4 13 -10 16 -5 3
-10 -1 -10 -9z"/>
<path d="M7460 10200 c0 -5 5 -10 10 -10 6 0 10 5 10 10 0 6 -4 10 -10 10 -5
0 -10 -4 -10 -10z"/>
<path d="M8143 10005 c-14 -10 -20 -21 -16 -32 5 -13 2 -15 -20 -10 -38 10
-66 -5 -91 -48 -19 -35 -26 -40 -54 -37 -26 3 -39 -3 -60 -26 -15 -16 -33 -31
-41 -33 -11 -4 -11 -12 2 -49 12 -36 20 -45 37 -43 25 3 35 -18 21 -44 -6 -12
-6 -24 0 -34 8 -11 14 -9 33 15 23 28 46 28 46 0 0 -16 36 -19 45 -4 11 19 25
10 25 -16 0 -14 4 -23 10 -19 6 4 8 11 4 16 -8 13 66 1 83 -14 9 -6 23 -5 43
3 17 7 33 10 37 6 3 -3 1 -6 -5 -6 -15 0 -16 -36 -2 -45 6 -3 13 1 16 9 10 26
27 18 20 -8 -7 -30 2 -56 19 -56 7 0 18 -7 25 -15 7 -8 24 -15 39 -14 14 0 36
-2 47 -6 15 -5 28 0 42 15 l21 22 28 -28 c15 -16 31 -28 34 -27 4 1 6 -5 5
-15 -1 -11 8 -18 23 -20 13 -2 25 -12 28 -22 6 -22 44 -34 55 -17 6 9 12 7 23
-7 8 -10 12 -22 10 -26 -7 -11 15 -26 50 -34 16 -4 50 -29 75 -55 25 -26 53
-50 63 -54 9 -4 22 -19 28 -34 21 -51 42 -88 68 -118 15 -16 37 -51 49 -77 14
-28 37 -55 57 -68 27 -17 35 -28 35 -50 0 -35 29 -88 52 -96 12 -3 17 -16 18
-37 0 -65 5 -82 28 -92 12 -5 22 -18 22 -28 0 -19 34 -74 57 -92 7 -5 16 -25
19 -42 6 -29 4 -33 -14 -33 -15 0 -20 5 -16 15 4 8 1 15 -5 15 -6 0 -11 -9
-11 -20 0 -10 -8 -24 -18 -29 -26 -14 -62 -2 -62 19 0 23 -58 70 -88 70 -13 0
-39 15 -60 35 -41 40 -142 108 -149 101 -14 -14 5 -40 126 -171 31 -34 36 -64
13 -85 -20 -19 -21 -19 -46 5 -14 13 -26 29 -26 35 0 14 -13 29 -85 98 -33 31
-94 91 -135 132 -54 54 -94 85 -142 108 -38 17 -68 38 -68 46 0 8 -9 18 -20
21 -12 4 -36 22 -55 41 -19 19 -37 34 -41 34 -3 0 -17 9 -31 20 -23 18 -24 20
-8 27 12 4 24 -1 34 -14 9 -11 22 -18 28 -16 6 2 14 -1 18 -6 3 -6 14 -11 23
-11 9 0 63 -23 120 -51 57 -28 106 -49 108 -46 13 12 -198 187 -225 187 -4 0
-13 12 -20 26 -7 16 -17 24 -26 21 -7 -3 -29 5 -48 18 -19 12 -44 26 -55 29
-10 4 -27 15 -37 26 -10 11 -26 20 -36 20 -26 0 -99 30 -99 41 0 19 -37 28
-63 14 -23 -12 -28 -11 -43 6 -11 12 -25 17 -39 13 -13 -3 -27 1 -34 10 -7 9
-18 13 -24 9 -6 -4 -26 -6 -45 -5 -24 2 -38 -3 -51 -19 -15 -18 -22 -20 -47
-12 -38 13 -81 -4 -87 -34 -2 -13 0 -23 5 -23 6 0 1 -8 -11 -17 -27 -23 -19
-34 46 -65 40 -19 49 -28 41 -36 -18 -18 6 -40 25 -23 20 16 46 4 53 -25 7
-27 -3 -47 -18 -38 -7 5 -9 1 -5 -9 3 -10 2 -17 -3 -17 -16 0 -12 -20 10 -47
13 -17 32 -27 53 -28 81 -6 117 -24 117 -60 0 -31 28 -54 41 -34 6 9 4 18 -6
25 -22 16 -19 31 18 74 39 48 81 54 116 16 19 -20 37 -26 97 -31 43 -4 78 -13
85 -21 6 -8 18 -14 25 -14 20 0 17 -76 -5 -125 -50 -112 -31 -238 53 -337 17
-20 39 -48 49 -62 10 -15 27 -26 40 -26 13 0 27 -4 32 -9 15 -13 135 -19 175
-8 19 5 61 22 94 38 32 16 66 29 75 29 9 0 33 -17 53 -37 30 -31 38 -48 44
-93 5 -37 13 -59 26 -68 11 -8 17 -21 13 -31 -8 -27 11 -79 45 -119 17 -20 40
-48 51 -60 20 -25 26 -81 9 -98 -5 -5 -28 -8 -50 -6 -31 3 -43 10 -50 26 -4
12 -20 28 -34 35 -14 8 -26 18 -26 23 0 4 -7 8 -15 8 -8 0 -15 9 -15 19 0 22
-19 39 -21 19 -3 -29 4 -54 17 -69 8 -8 14 -23 14 -31 0 -18 19 -35 40 -36 39
-2 56 -11 70 -38 19 -33 60 -43 80 -20 16 20 34 20 50 1 22 -26 39 1 38 58 0
29 -4 57 -8 62 -8 10 -13 48 -11 70 1 6 16 9 34 7 36 -4 67 -41 67 -79 0 -23
27 -49 55 -55 11 -2 25 -15 32 -29 7 -14 24 -38 38 -53 14 -15 25 -32 25 -39
1 -7 12 -25 25 -42 24 -29 24 -29 81 -17 68 14 85 26 82 61 -1 14 2 36 6 49 6
17 12 21 32 16 25 -6 50 -7 99 -1 17 2 39 -2 51 -9 32 -19 77 21 77 68 0 35
-30 78 -55 78 -9 0 -9 3 0 12 15 15 16 48 2 48 -5 0 -19 20 -31 45 -12 25 -25
48 -30 51 -5 3 -9 19 -9 35 0 17 -7 37 -15 46 -10 10 -13 23 -9 37 12 36 4 90
-15 106 -11 8 -22 26 -26 40 -4 14 -13 32 -20 40 -9 10 -13 40 -12 86 2 57 -2
76 -16 92 -10 11 -22 33 -26 48 -4 18 -16 30 -30 34 -20 4 -24 13 -28 55 -3
42 -10 56 -47 93 -24 24 -48 60 -55 83 -16 53 -49 107 -73 120 -12 6 -18 19
-17 32 3 22 -19 67 -33 67 -3 0 -1 -13 5 -30 16 -43 -3 -60 -34 -29 -12 12
-33 22 -46 23 -16 1 -32 15 -52 45 -26 39 -28 46 -16 65 10 14 11 26 5 36 -5
8 -10 11 -10 6 0 -5 -8 -2 -17 5 -15 12 -16 12 -10 -3 9 -24 -13 -35 -29 -13
-9 12 -10 24 -3 42 8 20 4 29 -19 52 -15 15 -37 33 -50 40 -13 7 -21 20 -20
29 2 11 -5 18 -21 20 -18 3 -22 8 -18 28 2 13 0 27 -4 30 -5 3 -9 18 -9 34 0
35 -36 62 -46 35 -6 -13 -14 -10 -45 21 -22 21 -39 48 -39 60 0 12 -7 27 -15
34 -8 7 -15 19 -15 27 0 7 -7 24 -15 37 -9 13 -15 28 -14 32 4 23 -3 34 -21
34 -22 0 -25 12 -10 41 10 17 7 19 -25 19 -31 0 -36 3 -41 29 -8 36 -23 43
-63 28 -26 -10 -33 -8 -53 10 -13 11 -41 24 -62 28 -35 6 -104 38 -163 76 -19
11 -27 11 -43 1 -33 -20 -66 -15 -78 13 -8 17 -20 25 -36 25 -15 0 -25 7 -29
20 -6 25 -52 27 -84 5z m647 -295 c0 -5 -4 -10 -10 -10 -5 0 -10 5 -10 10 0 6
5 10 10 10 6 0 10 -4 10 -10z m57 -137 c-3 -3 -11 -2 -17 2 -9 6 -9 10 1 16
14 8 27 -7 16 -18z m-2 -283 c3 -5 -1 -10 -9 -10 -8 0 -18 5 -21 10 -3 6 1 10
9 10 8 0 18 -4 21 -10z m275 -206 c0 -14 -21 -19 -33 -7 -9 9 13 34 24 27 5
-3 9 -12 9 -20z m-930 -25 c8 -1 40 -12 70 -26 42 -19 51 -27 39 -34 -9 -4
-27 -6 -40 -3 -13 4 -39 8 -56 11 -18 3 -33 11 -33 18 0 9 -11 12 -39 9 -33
-4 -39 -2 -44 17 -5 20 -3 21 41 15 26 -4 54 -7 62 -7z m860 -658 c0 -4 14
-25 30 -46 17 -21 30 -42 30 -46 0 -15 -57 -10 -70 6 -7 8 -19 15 -26 15 -17
0 -19 51 -2 68 14 14 38 16 38 3z m95 -241 c8 -16 15 -36 15 -45 0 -24 -23
-13 -30 13 -3 12 -17 35 -32 51 -16 16 -28 34 -28 41 0 18 59 -29 75 -60z
m603 7 c2 -12 -1 -15 -12 -11 -19 7 -22 38 -3 32 6 -3 13 -12 15 -21z m8 -79
c-3 -13 -5 -25 -5 -27 -1 -3 -6 0 -13 7 -8 8 -8 15 2 27 17 21 21 19 16 -7z
m-486 -88 c0 -5 -4 -10 -10 -10 -5 0 -10 5 -10 10 0 6 5 10 10 10 6 0 10 -4
10 -10z"/>
<path d="M7020 9629 c0 -5 5 -7 10 -4 6 3 10 8 10 11 0 2 -4 4 -10 4 -5 0 -10
-5 -10 -11z"/>
<path d="M8935 9530 c3 -5 13 -10 21 -10 8 0 12 5 9 10 -3 6 -13 10 -21 10 -8
0 -12 -4 -9 -10z"/>
<path d="M6820 9520 c0 -5 5 -10 10 -10 6 0 10 5 10 10 0 6 -4 10 -10 10 -5 0
-10 -4 -10 -10z"/>
<path d="M12936 9507 c-11 -8 -15 -17 -10 -20 14 -8 37 8 33 22 -3 8 -10 8
-23 -2z"/>
<path d="M8990 9500 c0 -5 5 -10 10 -10 6 0 10 5 10 10 0 6 -4 10 -10 10 -5 0
-10 -4 -10 -10z"/>
<path d="M8401 9464 c0 -11 3 -14 6 -6 3 7 2 16 -1 19 -3 4 -6 -2 -5 -13z"/>
<path d="M8340 9460 c0 -5 5 -10 11 -10 5 0 7 5 4 10 -3 6 -8 10 -11 10 -2 0
-4 -4 -4 -10z"/>
<path d="M6423 9258 c3 -17 28 -37 46 -38 11 0 11 3 1 15 -7 8 -16 12 -21 9
-5 -3 -9 2 -9 10 0 9 -4 16 -10 16 -5 0 -9 -6 -7 -12z"/>
<path d="M6510 9223 c1 -21 17 -31 43 -26 33 6 35 19 5 27 -31 8 -48 7 -48 -1z"/>
<path d="M6230 9105 c0 -8 4 -15 8 -15 5 0 9 7 9 15 0 8 -4 15 -9 15 -4 0 -8
-7 -8 -15z"/>
<path d="M6442 9080 c0 -17 3 -30 7 -30 10 0 11 49 1 55 -4 2 -7 -9 -8 -25z"/>
<path d="M13676 9103 c-11 -11 -6 -23 9 -23 8 0 15 4 15 9 0 13 -16 22 -24 14z"/>
<path d="M6156 9063 c-10 -24 13 -43 25 -21 5 10 16 15 24 12 8 -4 15 -1 15 6
0 6 -4 9 -9 5 -5 -3 -12 -1 -16 5 -10 16 -32 12 -39 -7z"/>
<path d="M6363 8977 c-4 -8 -17 -17 -27 -21 -18 -6 -18 -7 -1 -20 10 -7 18
-23 19 -37 1 -14 8 -25 19 -27 10 -2 17 0 16 5 -4 16 21 63 32 61 6 -2 14 4
16 12 4 12 2 12 -5 2 -7 -10 -13 -7 -26 12 -18 29 -31 33 -43 13z"/>
<path d="M6226 8933 c-4 -4 -19 -7 -34 -8 -17 0 -28 -6 -30 -17 -4 -21 22 -24
65 -7 20 7 24 12 14 18 -11 7 -11 10 0 14 8 3 9 6 3 6 -6 1 -14 -2 -18 -6z"/>
<path d="M6323 8840 c-1 -11 4 -20 13 -20 16 0 16 2 8 24 -8 22 -19 20 -21 -4z"/>
<path d="M6088 8825 c-3 -14 -2 -25 2 -25 11 0 20 39 10 45 -4 3 -10 -6 -12
-20z"/>
<path d="M6300 8821 c0 -6 -11 -11 -25 -11 -23 0 -24 -2 -15 -20 6 -12 21 -20
35 -20 20 0 25 5 25 24 0 14 -4 28 -10 31 -5 3 -10 1 -10 -4z"/>
<path d="M6350 8801 c0 -20 13 -41 21 -35 15 9 10 44 -6 44 -8 0 -15 -4 -15
-9z"/>
<path d="M6027 8719 c-27 -33 -36 -69 -17 -69 12 0 52 78 48 92 -2 5 -16 -5
-31 -23z"/>
<path d="M6268 8708 c18 -22 52 -30 52 -12 0 8 -6 14 -14 14 -8 0 -23 3 -33 7
-15 6 -16 4 -5 -9z"/>
<path d="M5882 8686 c4 -18 -2 -28 -24 -41 -43 -25 -78 -64 -78 -85 0 -11 -6
-20 -14 -20 -11 0 -25 -27 -26 -50 0 -14 78 -3 107 15 26 16 33 27 33 53 0 18
6 43 13 55 8 12 15 39 16 60 2 29 -1 37 -14 37 -13 0 -16 -6 -13 -24z"/>
<path d="M8842 8698 c2 -6 10 -14 16 -16 7 -2 10 2 6 12 -7 18 -28 22 -22 4z"/>
<path d="M6213 8655 c-11 -8 -24 -11 -29 -7 -5 4 -2 -1 5 -10 18 -24 38 -23
46 3 9 28 3 31 -22 14z"/>
<path d="M6096 8629 c-3 -8 -6 -23 -8 -34 -2 -11 -8 -20 -14 -20 -17 0 -43
-32 -34 -41 11 -12 -42 -59 -66 -59 -20 0 -47 -43 -36 -59 3 -6 12 4 19 22 16
38 18 39 48 10 19 -18 21 -27 14 -46 -11 -28 -10 -29 11 -32 40 -6 48 11 21
43 -10 13 -8 18 13 32 23 15 25 22 19 57 -5 34 -3 43 16 57 26 20 34 56 15 71
-11 10 -15 9 -18 -1z"/>
<path d="M5927 8534 c-4 -4 -7 -14 -7 -23 0 -11 3 -12 11 -4 6 6 10 16 7 23
-2 6 -7 8 -11 4z"/>
<path d="M5604 7669 c-12 -19 -12 -31 0 -54 9 -19 10 -18 17 9 10 35 -3 67
-17 45z"/>
<path d="M5443 7545 c0 -8 6 -15 13 -15 8 0 11 6 8 15 -4 8 -9 15 -13 15 -4 0
-8 -7 -8 -15z"/>
<path d="M13650 7490 c0 -5 5 -10 11 -10 5 0 7 5 4 10 -3 6 -8 10 -11 10 -2 0
-4 -4 -4 -10z"/>
<path d="M5736 7432 c1 -15 3 -29 3 -31 1 -2 9 3 18 10 9 8 14 9 10 2 -5 -8 0
-9 22 0 34 12 31 30 -4 25 -12 -1 -29 3 -36 9 -12 10 -14 7 -13 -15z"/>
<path d="M5510 7425 c0 -9 6 -12 15 -9 8 4 12 10 9 15 -8 14 -24 10 -24 -6z"/>
<path d="M5900 7430 c0 -5 4 -10 9 -10 6 0 13 5 16 10 3 6 -1 10 -9 10 -9 0
-16 -4 -16 -10z"/>
<path d="M5716 7304 c-8 -22 -8 -24 9 -24 8 0 12 -6 9 -13 -5 -14 32 -21 41
-7 3 5 3 21 -1 35 -7 29 -48 36 -58 9z"/>
<path d="M5565 7267 c-4 -10 -5 -21 -1 -24 10 -10 18 4 13 24 -4 17 -4 17 -12
0z"/>
<path d="M5607 7252 c-9 -10 -16 -26 -17 -37 -2 -50 -6 -73 -11 -69 -10 6 -15
-37 -9 -71 l5 -30 12 30 c7 17 14 47 15 67 1 20 6 34 10 32 5 -3 11 2 14 10 3
9 11 16 18 16 6 0 17 9 24 20 10 17 8 21 -17 34 -26 14 -30 14 -44 -2z"/>
<path d="M10626 7252 c-9 -14 9 -29 26 -23 17 6 16 7 -2 18 -10 7 -21 9 -24 5z"/>
<path d="M5710 7231 c0 -6 5 -13 10 -16 17 -11 11 -24 -15 -31 -18 -4 -25 -13
-25 -30 0 -20 5 -24 29 -24 22 0 32 7 44 32 16 32 14 53 -4 43 -5 -4 -9 3 -9
14 0 12 -7 21 -15 21 -8 0 -15 -4 -15 -9z"/>
<path d="M5266 7215 c4 -8 11 -15 16 -15 6 0 5 6 -2 15 -7 8 -14 15 -16 15 -2
0 -1 -7 2 -15z"/>
<path d="M5790 7165 c-17 -21 -3 -37 21 -25 10 6 19 15 19 19 0 16 -28 20 -40
6z"/>
<path d="M5860 7165 c0 -8 4 -15 10 -15 5 0 7 7 4 15 -4 8 -8 15 -10 15 -2 0
-4 -7 -4 -15z"/>
<path d="M5878 7083 c-16 -17 -15 -20 1 -42 26 -34 53 -22 49 21 -4 38 -26 47
-50 21z"/>
<path d="M5758 7068 c-58 -20 -38 -86 22 -73 37 8 49 41 24 65 -15 14 -25 16
-46 8z"/>
<path d="M5775 6831 c-7 -12 12 -24 25 -16 11 7 4 25 -10 25 -5 0 -11 -4 -15
-9z"/>
<path d="M13126 6804 c-9 -23 -8 -24 19 -24 17 0 23 4 19 14 -8 21 -31 27 -38
10z"/>
<path d="M5700 6790 c0 -5 5 -10 10 -10 6 0 10 5 10 10 0 6 -4 10 -10 10 -5 0
-10 -4 -10 -10z"/>
<path d="M5159 6732 c4 -25 12 -38 25 -40 28 -6 40 12 24 39 -7 13 -14 25 -14
27 -1 1 -10 4 -21 6 -17 4 -19 0 -14 -32z"/>
<path d="M5656 6753 c-9 -9 -7 -33 3 -33 12 0 22 28 12 34 -5 3 -11 3 -15 -1z"/>
<path d="M5706 6734 c-9 -23 -8 -24 12 -24 11 0 18 7 18 20 0 24 -21 27 -30 4z"/>
<path d="M5634 6689 c-2 -4 5 -9 15 -12 11 -3 22 1 25 8 5 14 -31 17 -40 4z"/>
<path d="M5713 6653 c-7 -2 -13 -12 -12 -21 0 -10 3 -12 5 -5 3 7 12 9 20 6 8
-3 14 1 14 11 0 16 -5 18 -27 9z"/>
<path d="M5382 6623 c-6 -3 -10 -9 -6 -14 3 -5 -4 -9 -16 -9 -15 0 -20 -5 -18
-17 3 -19 48 -32 48 -14 0 5 7 16 15 24 11 12 12 17 2 25 -7 5 -18 7 -25 5z"/>
<path d="M5610 6604 c-14 -8 -19 -14 -12 -14 18 0 15 -37 -4 -44 -30 -12 -44
-6 -44 18 0 24 -32 46 -38 27 -2 -6 -20 -13 -40 -17 -20 -4 -45 -17 -55 -30
-14 -19 -25 -22 -57 -19 -49 5 -73 -17 -39 -36 20 -10 20 -12 6 -21 -21 -11
-22 -37 -2 -44 21 -8 67 47 53 64 -17 20 7 14 27 -8 9 -10 15 -25 12 -33 -3
-7 4 -19 15 -26 13 -8 17 -18 13 -31 -5 -17 -2 -20 24 -20 27 0 30 3 29 30 -1
17 -6 30 -12 30 -6 0 -21 7 -33 15 -29 20 -20 59 11 49 11 -4 23 -11 24 -15 7
-19 23 -8 20 14 -2 14 -9 21 -21 21 -21 -2 -22 12 -1 20 29 11 51 6 88 -19 20
-14 39 -25 41 -25 3 0 5 15 5 34 0 18 7 39 15 46 16 13 20 36 8 43 -5 2 -19
-2 -33 -9z"/>
<path d="M5398 6363 c7 -3 16 -2 19 1 4 3 -2 6 -13 5 -11 0 -14 -3 -6 -6z"/>
<path d="M7720 6265 c0 -8 5 -15 10 -15 6 0 10 7 10 15 0 8 -4 15 -10 15 -5 0
-10 -7 -10 -15z"/>
<path d="M2754 6240 c-6 -6 -24 -13 -40 -16 -16 -3 -33 -9 -37 -13 -15 -15 12
-22 48 -12 33 9 149 0 186 -14 14 -5 47 -9 108 -14 7 -1 11 -7 8 -14 -3 -7 4
-19 15 -26 11 -7 17 -8 14 -2 -11 18 17 24 30 7 7 -10 21 -17 31 -16 39 5 53
-1 89 -40 20 -21 40 -38 43 -36 18 10 46 -14 51 -44 5 -31 30 -56 30 -30 0 6
-5 8 -12 4 -6 -4 -8 -3 -4 4 3 6 17 9 31 6 20 -3 23 -1 19 13 -5 15 -4 15 4 3
13 -17 -4 -43 -22 -33 -7 4 -6 1 1 -9 7 -8 11 -17 8 -20 -3 -3 8 -4 25 -3 21
1 31 -4 36 -17 3 -10 9 -18 14 -18 4 0 10 -9 13 -20 6 -22 36 -27 54 -9 7 7
19 8 30 4 32 -14 61 -16 69 -4 3 6 1 15 -6 19 -7 4 -10 12 -7 18 9 14 59 2 84
-20 17 -16 31 -19 69 -15 27 2 50 10 52 16 3 9 10 8 26 -3 21 -13 26 -12 52 5
37 24 44 24 44 0 0 -11 10 -27 23 -36 l22 -16 -22 -18 c-14 -12 -23 -32 -25
-56 -1 -22 -11 -47 -25 -61 -28 -30 -29 -51 -5 -77 9 -11 12 -18 6 -14 -7 4
-9 -4 -6 -24 4 -30 22 -41 22 -14 0 9 11 20 24 24 19 8 40 36 37 49 -3 9 43
43 57 41 9 -1 25 1 35 4 9 4 23 9 31 11 8 3 16 15 18 28 4 32 43 32 42 0 -1
-20 3 -22 23 -17 13 3 32 14 43 25 11 11 24 20 29 20 20 0 41 -13 35 -21 -3
-5 1 -9 9 -9 16 0 45 29 31 31 -5 1 -13 2 -19 4 -5 1 -16 3 -23 3 -18 3 -5 22
14 22 9 0 22 -7 30 -15 9 -8 22 -15 31 -15 14 0 14 2 0 24 -20 29 -13 37 25
29 24 -5 36 0 66 30 29 28 48 37 87 43 28 3 54 13 59 21 7 13 10 13 17 2 7
-11 9 -9 9 7 0 20 -7 22 -107 29 -123 9 -278 9 -374 0 -60 -6 -177 4 -304 26
-27 4 -75 12 -105 17 -30 6 -91 26 -135 47 -51 23 -90 35 -108 32 -15 -2 -32
2 -38 10 -6 7 -19 13 -28 13 -9 0 -25 7 -35 15 -11 8 -27 13 -37 10 -9 -3 -22
1 -29 10 -7 8 -18 15 -24 15 -7 0 -32 9 -56 21 -24 12 -54 22 -67 24 -12 1
-28 7 -35 12 -20 15 -111 32 -227 43 -128 12 -135 12 -147 0z m611 -210 c3 -5
-1 -10 -10 -10 -9 0 -13 5 -10 10 3 6 8 10 10 10 2 0 7 -4 10 -10z m855 -250
c0 -5 -7 -10 -16 -10 -8 0 -12 5 -9 10 3 6 10 10 16 10 5 0 9 -4 9 -10z"/>
<path d="M9997 6206 c-3 -8 -2 -18 4 -22 16 -9 22 2 11 21 -8 15 -10 16 -15 1z"/>
<path d="M10580 6080 c0 -20 24 -60 37 -60 17 0 17 15 -3 45 -16 25 -34 33
-34 15z"/>
<path d="M5691 6071 c-15 -10 -8 -41 9 -41 15 0 25 29 14 40 -5 5 -15 5 -23 1z"/>
<path d="M4678 5930 c-7 -24 -3 -38 8 -28 3 4 4 17 2 30 l-3 23 -7 -25z"/>
<path d="M9590 5851 c0 -5 6 -14 14 -20 11 -9 15 -8 20 5 9 23 8 24 -14 24
-11 0 -20 -4 -20 -9z"/>
<path d="M10724 5834 c3 -9 6 -18 6 -20 0 -2 4 -4 9 -4 5 0 7 9 4 20 -3 11
-10 20 -15 20 -6 0 -7 -7 -4 -16z"/>
<path d="M10586 5692 c-7 -12 20 -49 29 -40 4 4 0 16 -8 28 -8 12 -17 17 -21
12z"/>
<path d="M4898 5570 c-25 -23 -23 -29 12 -28 38 1 45 11 22 30 -15 14 -19 14
-34 -2z"/>
<path d="M10670 5573 c0 -19 41 -103 50 -103 12 0 50 -37 50 -48 0 -7 14 -18
30 -27 17 -9 30 -20 30 -24 0 -21 -13 -41 -26 -41 -18 0 -18 -14 1 -30 12 -10
18 -10 30 0 15 12 39 5 30 -9 -7 -12 94 -111 113 -111 8 0 35 -17 61 -37 86
-70 151 -90 151 -48 0 9 -13 24 -30 33 -16 9 -30 22 -30 27 0 6 -27 30 -59 54
-33 23 -62 49 -65 57 -3 8 -21 21 -41 30 -21 8 -37 23 -40 37 -3 12 -22 33
-42 47 -19 13 -42 34 -50 47 -9 13 -22 23 -29 23 -8 0 -14 5 -14 10 0 6 -20
31 -45 58 -25 26 -45 50 -45 53 0 4 -7 9 -15 13 -10 3 -15 -1 -15 -11z"/>
<path d="M9713 5255 c0 -8 6 -15 14 -15 7 0 13 7 13 15 0 8 -6 15 -13 15 -8 0
-14 -7 -14 -15z"/>
<path d="M6555 5250 c3 -5 10 -10 16 -10 5 0 9 5 9 10 0 6 -7 10 -16 10 -8 0
-12 -4 -9 -10z"/>
<path d="M9721 5214 c0 -11 3 -14 6 -6 3 7 2 16 -1 19 -3 4 -6 -2 -5 -13z"/>
<path d="M9717 5180 c-6 -18 -24 -92 -32 -137 -6 -32 -6 -33 29 -33 32 0 36 3
36 25 0 15 5 25 13 24 39 -5 53 17 31 50 -12 16 -19 19 -32 12 -14 -8 -19 -3
-28 32 -7 25 -13 36 -17 27z"/>
<path d="M7286 5052 c-7 -12 34 -72 50 -72 24 0 64 -23 64 -37 0 -7 11 -13 25
-13 14 0 33 -9 42 -20 10 -11 22 -20 28 -20 6 0 21 -9 34 -21 26 -25 52 -19
44 10 -3 12 -9 18 -14 16 -4 -3 -23 8 -42 25 -19 16 -37 27 -41 23 -3 -3 -6 1
-6 10 0 20 -1 20 -35 7 -14 -5 -24 -7 -22 -2 8 13 -12 53 -24 47 -6 -4 -28 7
-49 24 -42 33 -46 35 -54 23z"/>
<path d="M11222 5038 c3 -7 13 -15 24 -17 16 -3 17 -1 5 13 -16 19 -34 21 -29
4z"/>
<path d="M6156 5001 c-8 -12 5 -71 15 -71 12 0 23 46 15 65 -6 17 -22 20 -30
6z"/>
<path d="M7600 4800 c0 -5 5 -10 10 -10 6 0 10 5 10 10 0 6 -4 10 -10 10 -5 0
-10 -4 -10 -10z"/>
<path d="M4407 4710 c-3 -11 -2 -22 2 -24 4 -3 8 6 9 20 2 29 -4 31 -11 4z"/>
<path d="M8500 4670 c0 -5 4 -10 9 -10 6 0 13 5 16 10 3 6 -1 10 -9 10 -9 0
-16 -4 -16 -10z"/>
<path d="M4380 4555 c0 -8 2 -15 4 -15 2 0 6 7 10 15 3 8 1 15 -4 15 -6 0 -10
-7 -10 -15z"/>
<path d="M8737 4553 c-19 -18 3 -56 26 -47 24 9 22 54 -1 54 -10 0 -22 -3 -25
-7z"/>
<path d="M8781 4456 c-12 -14 -1 -59 17 -70 8 -5 22 36 22 64 0 15 -29 19 -39
6z"/>
<path d="M4377 4453 c-9 -17 -8 -123 1 -123 12 0 24 28 18 39 -3 4 -6 26 -7
49 -3 43 -5 48 -12 35z"/>
<path d="M8285 4450 c3 -5 8 -10 11 -10 2 0 4 5 4 10 0 6 -5 10 -11 10 -5 0
-7 -4 -4 -10z"/>
<path d="M4365 4290 c-3 -5 1 -10 9 -10 9 0 16 5 16 10 0 6 -4 10 -9 10 -6 0
-13 -4 -16 -10z"/>
<path d="M10860 4284 c0 -8 5 -12 10 -9 6 3 10 10 10 16 0 5 -4 9 -10 9 -5 0
-10 -7 -10 -16z"/>
<path d="M8830 4263 c-37 -33 -48 -73 -21 -73 38 0 95 79 59 81 -7 0 -4 4 7 9
17 7 17 9 3 9 -10 1 -31 -11 -48 -26z"/>
<path d="M10835 4230 c-8 -13 4 -32 16 -25 12 8 12 35 0 35 -6 0 -13 -4 -16
-10z"/>
<path d="M4357 4170 c-3 -11 -2 -20 3 -20 12 0 21 28 11 35 -5 2 -11 -4 -14
-15z"/>
<path d="M10136 4082 c-6 -10 -2 -39 6 -47 3 -3 8 6 10 20 5 25 -6 43 -16 27z"/>
<path d="M7420 3970 c0 -23 4 -24 30 -10 23 12 50 3 50 -17 0 -8 7 -13 18 -11
9 2 24 -5 33 -16 16 -20 16 -20 27 1 9 17 7 24 -13 43 -21 20 -27 21 -41 9
-13 -11 -17 -11 -25 2 -4 9 -23 16 -44 17 -29 1 -35 -2 -35 -18z"/>
<path d="M7620 3931 c10 -8 12 -13 4 -18 -6 -5 -11 -15 -12 -23 0 -8 -4 -32
-8 -52 -6 -34 -4 -39 17 -47 13 -4 26 -5 29 -1 3 3 18 6 34 6 27 -1 30 2 32
35 2 19 0 39 -4 45 -16 22 -59 52 -82 59 -19 5 -22 4 -10 -4z"/>
<path d="M7811 3888 c-11 -30 4 -59 27 -52 11 4 8 -2 -8 -15 -14 -11 -19 -21
-12 -21 6 0 12 -5 12 -11 0 -5 -4 -8 -9 -5 -5 3 -15 -1 -22 -10 -20 -24 7 -35
42 -17 32 16 38 25 12 17 -10 -3 -7 1 6 9 16 10 34 12 57 7 32 -7 77 -2 116
15 28 11 9 32 -34 38 -22 3 -63 19 -90 36 -59 37 -86 39 -97 9z"/>
<path d="M9605 3820 c-3 -5 -2 -10 4 -10 5 0 13 5 16 10 3 6 2 10 -4 10 -5 0
-13 -4 -16 -10z"/>
<path d="M4952 2041 c-8 -22 -7 -32 2 -40 17 -15 31 0 34 37 4 42 -22 44 -36
3z"/>
<path d="M5025 1970 c-3 -6 1 -7 9 -4 18 7 21 14 7 14 -6 0 -13 -4 -16 -10z"/>
<path d="M5077 1773 c-4 -6 0 -16 8 -23 21 -17 28 -8 11 15 -8 11 -15 14 -19
8z"/>
<path d="M8126 756 c-59 -78 -62 -69 72 -217 132 -147 150 -170 289 -363 69
-96 93 -137 90 -153 l-4 -23 675 0 c424 0 672 4 666 9 -5 6 -72 19 -149 31
-205 30 -583 148 -762 239 -34 17 -66 31 -71 31 -14 0 -288 160 -377 220 -44
29 -126 89 -183 132 -128 97 -176 128 -201 128 -10 0 -30 -15 -45 -34z"/>
<path d="M7540 485 c0 -29 15 -33 29 -6 11 20 5 31 -16 31 -7 0 -13 -11 -13
-25z"/>
<path d="M7773 494 c-3 -9 -1 -19 4 -23 6 -3 13 -13 16 -21 3 -8 6 2 6 23 1
37 -15 50 -26 21z"/>
<path d="M7580 455 c0 -10 7 -15 18 -13 21 4 19 22 -2 26 -10 2 -16 -3 -16
-13z"/>
<path d="M7608 418 c-20 -24 -23 -44 -9 -53 5 -3 12 3 16 14 8 27 39 32 54 9
14 -23 31 -15 24 11 -2 10 -12 18 -21 17 -10 0 -16 5 -14 12 4 20 -32 13 -50
-10z"/>
<path d="M7512 418 c-16 -16 -15 -28 2 -28 16 0 29 27 17 34 -4 3 -13 0 -19
-6z"/>
<path d="M7784 389 c-30 -10 -38 -27 -24 -44 10 -12 9 -16 -5 -21 -25 -10 -41
11 -24 32 12 15 9 14 -15 -2 -24 -15 -26 -20 -13 -22 9 -2 17 -7 17 -12 0 -4
16 -11 36 -15 20 -3 34 -8 31 -11 -2 -3 4 -15 16 -28 11 -12 25 -38 31 -57 13
-41 46 -53 46 -16 0 16 -8 28 -25 35 -20 9 -25 19 -26 49 -3 93 -16 124 -45
112z"/>
<path d="M7402 341 c-19 -12 -11 -55 11 -59 12 -3 17 3 17 22 0 14 5 26 11 26
5 0 7 5 4 10 -8 12 -25 13 -43 1z"/>
<path d="M7120 296 c0 -18 35 -22 45 -6 3 6 2 10 -4 10 -5 0 -16 3 -25 6 -11
4 -16 1 -16 -10z"/>
<path d="M7293 273 c-24 -9 -13 -31 17 -35 32 -5 39 9 18 30 -13 13 -16 13
-35 5z"/>
<path d="M7025 250 c-10 -11 -15 -23 -12 -27 4 -3 7 -1 7 5 0 6 15 12 33 14
35 3 44 21 11 26 -11 2 -28 -6 -39 -18z"/>
<path d="M7685 261 c-7 -12 12 -24 25 -16 11 7 4 25 -10 25 -5 0 -11 -4 -15
-9z"/>
<path d="M6846 161 c-17 -19 -15 -41 4 -41 14 0 40 30 40 46 0 20 -24 17 -44
-5z"/>
<path d="M7625 140 c-4 -6 -3 -16 3 -22 6 -6 12 -6 17 2 4 6 3 16 -3 22 -6 6
-12 6 -17 -2z"/>
<path d="M7920 130 c0 -17 -3 -20 -12 -12 -7 5 -28 13 -45 17 -28 6 -33 4 -33
-13 0 -26 31 -52 55 -47 24 6 60 -22 69 -53 7 -21 13 -22 109 -22 l102 1 -73
68 c-59 54 -79 67 -105 67 -18 0 -40 4 -49 8 -14 6 -18 3 -18 -14z"/>
<path d="M7650 90 c0 -5 5 -10 11 -10 5 0 7 5 4 10 -3 6 -8 10 -11 10 -2 0 -4
-4 -4 -10z"/>
<path d="M7790 78 c1 -7 10 -24 20 -37 18 -20 22 -22 37 -10 9 8 14 9 10 3 -4
-7 2 -14 15 -17 37 -10 32 0 -16 28 -25 15 -46 31 -46 36 0 5 -4 9 -10 9 -5 0
-10 -6 -10 -12z"/>
</g>
</svg>
